<svg><defs><font id="ComicSansMS-Bold" horiz-adv-x="1250"><font-face font-family="Comic Sans MS" font-weight="700" units-per-em="2048" panose-1="3 15 9 2 3 3 2 2 2 4" ascent="1638" descent="-410" x-height="1037" cap-height="1567" bbox="-228.999 -621 2518 2257" underline-thickness="175" underline-position="-185" unicode-range="U+0020-U+FB02"/><glyph glyph-name=".notdef" horiz-adv-x="1024" d="M102 0v1092h820V0H102zm102 102h616v888H204V102z"/><glyph glyph-name="space" horiz-adv-x="888"/><glyph glyph-name="exclam" unicode="!" horiz-adv-x="487" d="M242 297c-37.333 0-68.17 11.667-92.503 35s-36.5 52.666-36.5 87.999c0 26-.833 64.833-2.5 116.5s-2.5 90.5-2.5 116.5c0 92 .833 230 2.5 414s2.5 322 2.5 414c0 35.333 12.333 64.833 37 88.5s55.334 35.5 92.001 35.5 67.334-11.833 92.001-35.5 37-53.167 37-88.5v-1061c0-35.333-12.167-64.666-36.5-87.999S279.333 297 242 297zm-3.004-363c-40 0-77.333 21.332-112 63.999-31.333 39.333-47 76-47 110 0 34.667 13.667 63.667 41 87s58.333 35 93 35c40 0 77-21.333 111-64 31.333-39.333 47-75.666 47-108.999 0-34-13.5-63-40.5-87s-57.833-36-92.5-36z"/><glyph glyph-name="quotedbl" unicode="&quot;" horiz-adv-x="896" d="M801 1391l-9.001-347.998c-.667-32.667-13-60-37-82s-54.667-33-92-33c-36.667 0-67.334 11-92.001 33-25.333 21.333-37.666 48.666-36.999 81.999-.667 93.333 3 228.666 11 405.999 4.667 45.333 18 79.166 40 101.499s53 33.5 93 33.5c36.667 0 67.334-11 92.001-33s37-49.333 37-82c0-9.333-1-22.666-3-39.999s-3-30-3-38zM211.999 932.002c-90.667 0-136.001 62.669-136.001 188.002 0 39.333 1 98.166 3 176.499s3 137.166 3 176.499c0 32.667 12.333 60 37 82s55.334 33 92.001 33 67.334-11 92.001-33 37-49.333 37-82c0-38-1-94.833-3-170.5s-3-132.5-3-170.5c0-10 1.667-24.833 5-44.5s5-34.167 5-43.5c0-32.667-13.333-59.5-40-80.5s-57.334-31.5-92.001-31.5z"/><glyph glyph-name="numbersign" unicode="#" horiz-adv-x="1726" d="M310 629c65.333 162 114.668 290.669 148.001 386.002-30-.667-69.667-.667-119 0-60.667 1.333-100.334 2-119.001 2-37.333 0-68.5 11.333-93.5 34s-37.5 52-37.5 88c0 73.333 41 114.333 123 123 72.667 2 181.334 5.333 326.001 10l66 186c37.333 83.333 76.333 125 117 125 88 0 132-40 132-120 0-36.667-15.333-100-46-190h357c17.333 67.333 40.666 146.666 69.999 237.999 21.333 66.667 62.333 100 123 100 34.667 0 65.5-11.333 92.5-34s40.5-51.334 40.5-86.001c0-20-19.333-92-58-216 41.333 2 71.333 3 90 3 119.333 0 179-42 179-126 0-62-29.333-102.333-88-121-29.333-9.333-83.666-14-162.999-14-8.667 0-23 .333-43 1h-43l-129-389h141c136.667 0 205-44.333 205-133 0-34.667-12.333-62.334-37-83.001s-54.667-31-90-31c-16 0-64.667-.333-146-1-58.667-.667-107-.667-145 0-18-58-44.333-152.333-79-283-18.667-80-70.334-120-155.001-120-74 0-111 35-111 105 0 32.667 26 132.334 78 299.001H487c-57.333-136.667-99.333-245.334-126-326.001-17.333-52.667-56.333-79-117-79-34 0-64.667 11.333-92 34S111 62.333 111 97c0 9.333 34.333 104.333 103 285H99c-37.333 0-68.333 15.333-93 46-22 27.333-33 57.333-33 90 0 67.333 37.333 104.333 112 111 7.333.667 82.333.667 225 0zm421.002 388l-146-388h384l124 388h-362z"/><glyph glyph-name="dollar" unicode="$" horiz-adv-x="1420" d="M587 1153c-109.333-41.333-164-92.667-164-154 0-52.667 54.667-86 164-100v254zm215-898.001C948 305.666 1021 368.667 1021 444c0 113.333-73 177.666-219 192.999v-382zM1317 431c0-126-53.662-230.334-160.995-313.001-88-68-206-117.333-354-148v-250c0-71.333-38.333-107-115-107-33.333 0-59.333 12.667-78 38-14.667 20.667-22 43.667-22 69v221c-26-1.333-51.333-2-76-2-134 0-238.333 18-313 54-67.333 32-101 73-101 123 0 95.333 52.667 143 158 143 27.333 0 73.666-9.833 138.999-29.5s107.666-29.5 126.999-29.5c18 0 40 1.667 66 5v441c-116.667 7.333-216 32-298 74-107.333 54.667-161 130.334-161 227.001 0 110 48 211.333 144 304 85.333 82.667 190.333 143.667 315 183v165c0 78 36.667 117 110 117 70 0 105-39 105-117v-132c75.333-4.667 156-21.334 242-50.001 110-36 165-77.333 165-124 0-38-13.667-70.333-41-97s-60-40-98-40c-32 0-76.667 6.333-134 19-60.667 12.667-105.334 19.667-134.001 21v-307c9.333 0 16.666-.333 21.999-1C971.334 876.666 1087.667 835.333 1173 764c96-80 144-191 144-333z"/><glyph glyph-name="percent" unicode="%" horiz-adv-x="1680" d="M443 992c-106 0-189.665 35.666-250.998 106.999-56.667 64.667-85 146.334-85 245.001 0 74.667 38.667 143.667 116 207 73.333 60.667 147.666 91 222.999 91 109.333 0 196.333-35 261-105 61.333-66 92-150.333 92-253 0-90.667-39-163.667-117-219-68.667-48.667-148.334-73-239.001-73zm825 425c-24-37.333-50-86.998-78-148.998l-70-154-197-403c-2.667-6.667-77.667-157.334-225-452.001-20.667-49.333-54.334-122-101.001-218-26-47.333-63-71-111-71-32 0-61 11-87 33s-39 49.667-39 83c0 35.333 50.333 153.666 151 354.999l184 362 270 571c64.667 153.333 131.334 230 200.001 230 33.333 0 62.833-11.5 88.5-34.5s38.5-50.833 38.5-83.5c0-21.333-8-44.333-24-69zm-8-1436.999c-101.333 0-185.667 29.334-253 88.001-71.333 61.333-107 141-107 239 0 103.333 31 189.666 93 258.999 66.667 74.667 155 112 265 112 98.667 0 186-26.667 262-80 86-61.333 129-141 129-239 0-107.333-36.5-197.333-109.5-270s-166.167-109-279.5-109zM443.001 1405c-22 0-42.334-6.833-61.001-20.5s-28-27.167-28-40.5c0-38.667 7.5-67.667 22.5-87s37.167-29 66.5-29c30.667 0 56.334 5.833 77.001 17.5s31 24.5 31 38.5c0 40.667-9 71-27 91s-45 30-81 30zM1258 442.002c-36.667 0-64.167-11.168-82.5-33.501s-27.5-56.166-27.5-101.499c0-30 11.167-52.667 33.5-68s55.833-23 100.5-23c45.333 0 76.5 10.5 93.5 31.5s25.5 58.167 25.5 111.5c0 22-14.167 41.333-42.5 58s-61.833 25-100.5 25z"/><glyph glyph-name="ampersand" unicode="&amp;" horiz-adv-x="1340" d="M1175-94c-44.667 0-81.667 21.999-111 65.999l-90 151c-134-110-281-165-441-165-134 0-249 39.667-345 119-102 83.333-153 189.333-153 318 0 124 50 231.667 150 323 32 30 136.667 101.667 314 215-38.667 106.667-58 200.334-58 281.001 0 72 30.667 146.667 92 224 66 84 138.333 126 217 126 90.667 0 165-29 223-87 55.333-55.333 83-123 83-203 0-154.667-79.333-291.667-238-411 46.667-94.667 98-185.667 154-273l33 157c22.667 63.333 60.667 95 114 95 39.333 0 71-18.333 95-55 20.667-31.333 31-66.333 31-105 0-124-32.667-243-98-357 107.333-158.667 161-258 161-298 0-34.667-13.667-63.5-41-86.5S1209-94 1175-94zM750 1317c-18.667-2-34-14.999-46-38.999-10-20.667-15-41.667-15-63 0-9.333 6.333-35 19-77 14-46.667 21.333-72.334 22-77.001 22 22 43.333 50.333 64 85 23.333 38.667 35 69 35 91 0 30-3.667 50.333-11 61-11.333 16-34 22.333-68 19zM612 720L405 588c-74.667-58.667-112-123-112-193 0-56.667 24-103 72-139 46-34.667 102-52 168-52 112 0 211.333 42.667 298 128-40.667 60.667-113.667 190-219 388z"/><glyph glyph-name="quotesingle" unicode="'" horiz-adv-x="888" d="M569 1391l-9.001-347.998c-.667-32.667-13-60-37-82s-54.667-33-92-33c-36.667 0-67.334 11-92.001 33-25.333 21.333-37.666 48.666-36.999 81.999-.667 93.333 3 228.666 11 405.999 4.667 45.333 18 79.166 40 101.499s53 33.5 93 33.5c36.667 0 67.334-11 92.001-33s37-49.333 37-82c0-9.333-1-22.666-3-39.999s-3-30-3-38z"/><glyph glyph-name="parenleft" unicode="(" horiz-adv-x="750" d="M665 1351l-90.003-88.003c-69.333-76-124.333-185.667-165-329-36-127.333-54-252.333-54-375 0-139.333 16.667-267.666 50-384.999 44-156 112.667-266 206-330 84-58.667 126-110.667 126-156 0-33.333-13.167-61.666-39.5-84.999s-56.166-35-89.499-35c-27.333 0-58 9-92 27-297.333 159.333-446 488-446 986 0 178.667 37.333 359.334 112 542.001 84.667 206 196.334 355.667 335.001 449 34.667 22.667 64 34 88 34 36.667 0 67.834-13.167 93.501-39.5S738 1510 738 1476c0-33.333-24.333-75-73-125z"/><glyph glyph-name="parenright" unicode=")" horiz-adv-x="750" d="M293-405c-34-18-64.667-26.998-92-26.998-34 0-64 11.667-90 35s-39 51.666-39 84.999c0 40 20 76 60 108l103 77c146 143.333 219 372 219 686 0 122.667-18 247.667-54 375-40.667 143.333-95.667 253-165 329l-100 98c-42.667 46-64 84.333-64 115 0 34 13 64.167 39 90.5s57 39.5 93 39.5c24.667 0 54-11.333 88-34 139.333-93.333 251-243 335-449C700.667 940.334 738 759.667 738 581c0-498-148.333-826.667-445-986z"/><glyph glyph-name="asterisk" unicode="*" horiz-adv-x="1085" d="M896 1159c-48-9.333-104.667-17.665-170-24.998 113.333-114.667 170-193 170-235 0-32.667-13.333-60.5-40-83.5s-57.334-34.5-92.001-34.5c-36.667 0-74 19-112 57l-84 99c-26.667 30.667-50.334 55.667-71.001 75-138-130.667-231.333-196-280-196-35.333 0-66 12-92 36s-39 52-39 84c0 29.333 17 60.333 51 93l89 71 45 37c-82.667 25.333-143.667 46-183 62-54 22-81 56.667-81 104 0 31.333 12.167 59.666 36.5 84.999s54.833 38 91.5 38c19.333 0 95.333-23.333 228-70-3.333 57.333-5 97.666-5 120.999 0 33.333 12.333 61.166 37 83.499s55.334 33.5 92.001 33.5 67.5-11.167 92.5-33.5 37.5-50.166 37.5-83.499c0-40.667 1-78 3-112 121.333 18 207 27 257 27 36.667 0 66.834-11.833 90.501-35.5s35.5-51.5 35.5-83.5c0-62-35.667-100-107-114z"/><glyph glyph-name="plus" unicode="+" d="M986 523c-8 0-19.83 1.168-35.496 3.501s-27.834 3.5-36.501 3.5c-18 0-44.5-.5-79.5-1.5s-61.833-1.5-80.5-1.5c.667-22.667.667-52.334 0-89.001-.667-46.667-1-76-1-88 0-34-12.333-62.167-37-84.5S660.669 232 624.002 232 556.668 243.167 532 265.5 495 316 495 350c0-8.667-.667 48.666-2 171.999-50-2.667-93.667-4-131-4-47.333 0-89.333 8.667-126 26-46 22-69 53.333-69 94 0 52 21.333 86 64 102 23.333 8.667 67 13 131 13 38 0 81.667 1.333 131 4 0 6.667-.333 20-1 40s-1 36.333-1 49c0 133.333 45 200 135 200 35.333 0 66-10.833 92-32.5s39-49.167 39-82.5c0-10.667-1.167-27.167-3.5-49.5S750 842.333 750 831l1-70c15.333-.667 27-1 35-1 13.333 0 33.5.667 60.5 2s47.5 2 61.5 2c136 0 204-40.333 204-121 0-32-11.333-59.667-34-83-24.667-24.667-55.334-37-92.001-37z"/><glyph glyph-name="comma" unicode="," horiz-adv-x="888" d="M530-124l-78.001-154c-22.667-44-59-66-109-66-35.333 0-65.333 11.167-90 33.5s-37 48.166-37 77.499c0 17.333 21.333 69 64 155 38 76 66.667 129.667 86 161 24.667 39.333 59.334 59 104.001 59 35.333 0 65.333-11.333 90-34s37-48.667 37-78c0-13.333-22.333-64.666-67-153.999z"/><glyph glyph-name="hyphen" unicode="-" d="M874 431c-92-6.667-255.666-10.002-490.999-10.002-41.333 0-77.666 9.333-108.999 28-36.667 22.667-55 53.334-55 92.001s18.333 69.334 55 92.001c31.333 19.333 67.666 29 108.999 29 52.667 0 131.667 1.5 237 4.5s184.333 4.5 237 4.5c41.333 0 77.666-8.333 108.999-25 40-21.333 60-53 60-95 0-72.667-50.667-112.667-152-120z"/><glyph glyph-name="period" unicode="." horiz-adv-x="888" d="M441-104c-44.667 0-83.334 13.833-116.001 41.5s-49 58.834-49 93.501c0 35.333 16.333 67.166 49 95.499S396.333 169 441 169c47.333 0 86.333-13.333 117-40s46-59.334 46-98.001C604-4.334 588-35.667 556-63s-70.333-41-115-41z"/><glyph glyph-name="slash" unicode="/" horiz-adv-x="1048" d="M998 1438c-26-56-63.667-142.667-113-260-45.333-118-109.333-254.667-192-410L475 371c-14-26.667-74.333-154-181-382-24.667-52.667-63.667-79-117-79-34.667 0-65 11-91 33C58-33 44-3.667 44 31c0 15.333 3 30.666 9 45.999C105.667 213.666 204 410.833 348 668.5S590.333 1124 643 1262c40 104.667 69.667 175.667 89 213 52 102 101 152.333 147 151 34-1.333 64-13 90-35 28-24 42-53 42-87 0-20.667-4.333-42.667-13-66z"/><glyph glyph-name="zero" unicode="0" d="M611-39c-220.667 0-380.667 95.334-480 286.001C57.667 388.334 21 570.667 21 794c0 190.667 48.333 358 145 502 116 172.667 274.667 259 476 259 190.667 0 338.667-77 444-231 88.667-130 133-287 133-471 0-297.333-50.667-520.333-152-669S813.667-39 611-39zm30 1334c-108 0-194.667-53.667-260-161-57.333-93.333-86-201.666-86-324.999 0-162.667 15.333-288 46-376 49.333-142 139.333-213 270-213 109.333 0 191.333 49.833 246 149.5s82 249.167 82 448.5c0 159.333-24.833 278.666-74.5 357.999S740.333 1295 641 1295z"/><glyph glyph-name="one" unicode="1" d="M822-1L425 .001c-126 0-189 39.667-189 119 0 89.333 70.333 134 211 134 13.333 0 28-.333 44-1v887c-58-40-95.667-60-113-60-37.333 0-69.833 13.333-97.5 40s-41.5 57.667-41.5 93c0 36.667 22.333 74.334 67 113.001l113 82 122 98c50 36 98.333 54 145 54 60 0 90-36 90-108 0-79.333-3.333-191-10-335s-10-349.667-10-617v-242h66c38.667 0 71.167-12.333 97.5-37s39.5-55.334 39.5-92.001S945.833 60.667 919.5 36 860.667-1 822-1z"/><glyph glyph-name="two" unicode="2" d="M1008-2c-16.667 0-42.502 2.831-77.502 8.498s-60.167 8.5-75.5 8.5l-294 1c-25.333 0-63.666-3.167-114.999-9.5s-90-9.5-116-9.5c-7.333 0-18 1.333-32 4s-24.667 4-32 4c-60 0-100.667 24.333-122 73-13.333 30.667-20 78-20 142 0 124.667 27.667 229 83 313 42.667 64.667 111.667 129.334 207 194.001l269 177c105.333 76.667 158 163.667 158 261 0 25.333-21 50.5-63 75.5s-83 37.5-123 37.5c-70.667 0-145.5-31.5-224.5-94.5s-133.167-94.5-162.5-94.5c-35.333 0-66.333 8.667-93 26-33.333 21.333-50 51-50 89 0 40.667 16.667 75.667 50 105 80.667 71.333 151 123.333 211 156 86.667 47.333 176.334 71 269.001 71 115.333 0 219.333-30.333 312-91 106-69.333 159-160 159-272 0-113.333-26-209.666-78-288.999-40.667-63.333-105-125-193-185L605 542c-126.667-82.667-194.667-177-204-283 36.667 4.667 90.667 10 162 16 142 7.333 243.667 11 305 11 57.333 0 114-12.333 170-37 69.333-30.667 104-70 104-118 0-34.667-12.333-65-37-91-26-28-58.333-42-97-42z"/><glyph glyph-name="three" unicode="3" d="M917 810c137.333-76.667 205.998-199.333 205.998-368 0-136-50.333-251.333-151-346s-223-142-367-142c-107.333 0-204 21.667-290 65-99.333 50.667-166.333 122.667-201 216-5.333 14-8 29-8 45 0 37.333 15 68.333 45 93 28 22.667 60 34 96 34 42 0 75.667-16.667 101-50 42.667-57.333 67.334-88.666 74.001-93.999 41.333-33.333 102.333-50 183-50 63.333 0 118.833 19 166.5 57s71.5 83.667 71.5 137c0 166-111.667 260-335 282-98 9.333-147 50.333-147 123 0 55.333 38 95.666 114 120.999l215 49c45.333 14 79.333 32.333 102 55s34.334 49.667 35.001 81c2.667 99.333-75 149-233 149-52 0-109-19.833-171-59.5S318.667 1148 296 1148c-38 0-70.333 13.667-97 41s-40 58.333-40 93c0 56.667 56 113 168 169 100 50 181.333 75 244 75 151.333 0 273-32.667 365-98 100.667-72 151-174.667 151-308 0-73.333-14.167-135.833-42.5-187.5S973.667 840 917 810z"/><glyph glyph-name="four" unicode="4" d="M728 413H328.999c-214 0-321 43.667-321 131 0 36.667 18.667 77.667 56 123l93 105 491 684c52 69.333 119.667 104 203 104 39.333 0 73.333-10 102-30 34-24 51-57.667 51-101l1-752c87.333-2.667 145.666-11.667 174.999-27 32.667-18 49-53.333 49-106 .667-55.333-24.666-93.333-75.999-114-36-14-85.333-19.667-148-17 2-96 1.667-200-1-312-.667-36.667-12.667-67-36-91s-55-36-95-36C771.666-26 723.333 40.667 728 174v239zm-.001 713c-64.667-102-164.333-251.667-299-449h299v449z"/><glyph glyph-name="five" unicode="5" d="M562-63C358-63 207.666 9.67 110.999 155.003c-16.667 25.333-25 49.666-25 72.999 0 36 14.333 66.667 43 92s61.334 38 98.001 38c37.333 0 69.333-14 96-42 46.667-48.667 72-74.667 76-78 39.333-28 93.666-42 162.999-42 102.667 0 188.334 37.667 257.001 113 66 72.667 99 160.667 99 264 0 99.333-16.5 173.666-49.5 222.999s-82.833 74-149.5 74c-117.333 0-211.666-38-282.999-114l-85-95c-36-34-74.333-51-115-51-38 0-70.167 13-96.5 39s-39.5 56.667-39.5 92c0 15.333 5.667 73.333 17 174 22 195.333 33 325.333 33 390 0 16-5.833 38-17.5 66s-17.5 50-17.5 66c0 33.333 17 58.666 51 75.999 26.667 13.333 58 20 94 20 13.333 0 33.5-1.167 60.5-3.5s47.167-3.5 60.5-3.5l481-1c12 0 37.667 2 77 6s65.333 6 78 6c36 0 65.667-11.5 89-34.5s35-52.5 35-88.5c0-99.333-101-149-303-149-16 0-36.167.333-60.5 1s-40.5 1-48.5 1h-298c-2-40.667-10.333-108-25-202 87.333 42.667 191.666 64 312.999 64 162 0 285-60.333 369-181 70-99.333 105-224.333 105-375 0-181.333-56-331.333-168-450C908.333-1 754-63 562-63z"/><glyph glyph-name="six" unicode="6" d="M616-72C427.333-72 287.999-5.334 197.999 127.999c-72 106.667-108 246.667-108 420 0 324.667 138 606 414 844l104 99c48.667 43.333 89 65 121 65 36.667 0 69-12.5 97-37.5s42.667-55.167 44-90.5c1.333-33.333-36.667-87-114-161l-165-151c-61.333-60-105.666-118.667-132.999-176 36 14 69.5 24.333 100.5 31s59.5 10 85.5 10c166.667 0 295.667-43.5 387-130.5s137-208.167 137-363.5c0-161.333-48.333-293.666-145-396.999C921-18 785.333-72 616-72zm-.001 782.999c-49.333 0-93.667-8.001-133-24.001-20.667-8.667-58.667-29.667-114-63-2.667-27.333-4-52.666-4-75.999 0-126 21.333-220.5 64-283.5s106.667-94.5 192-94.5c87.333 0 155 29.333 203 88 46 56 69 132.333 69 229 0 74.667-23 130.667-69 168s-115.333 56-208 56z"/><glyph glyph-name="seven" unicode="7" d="M807 1234c-74.667.667-213.665 3.665-416.998 8.998-50.667 0-126.334 2.333-227.001 7-88.667 7.333-133 50.333-133 129 0 36.667 13.333 67.334 40 92.001s59.334 37 98.001 37c84 0 210.167-2.5 378.5-7.5s294.5-7.5 378.5-7.5h183c36 0 67.667-7 95-21 34-17.333 51-43 51-77 0-36.667-20-80.334-60-131.001l-101-112c-84.667-94-163-209.333-235-346-22.667-42.667-82.334-167.667-179.001-375-12.667-27.333-41-102-85-224-33.333-92-67.333-164-102-216-26.667-38-63.667-57-111-57-36.667 0-69.334 12.333-98.001 37s-43 55.334-43 92.001c0 28.667 22.333 95.334 67 200.001l215 504c92 196 187 351.667 285 467z"/><glyph glyph-name="eight" unicode="8" d="M614-54c-148 0-269.332 31.335-363.999 94.002-110 73.333-166 180.333-168 321-3.333 196.667 61.334 337.667 194.001 423-96.667 76.667-145 173-145 289 0 131.333 50 240.333 150 327 95.333 82.667 210.333 124.667 345 126 159.333 1.333 278.666-41 357.999-127 68-74.667 102-176.667 102-306 0-72.667-13-131-39-175-23.333-39.333-62.333-75-117-107 81.333-45.333 139.666-98 174.999-158 40.667-66.667 61-154.334 61-263.001 0-142.667-55.667-254.334-167-335.001C898.333-17.667 770-54 614-54zm9.001 1334c-146 0-218.332-68.667-216.999-206 .667-68.667 63.667-119 189-151 70 19.333 118.333 37 145 53 47.333 28.667 71 67.667 71 117 0 74.667-16 125.667-48 153-26.667 22.667-73.334 34-140.001 34zm-14.999-605.998c-96-42-159.333-78.999-190-110.999-44.667-44.667-65.667-108.334-63-191.001 2-64.667 33.333-113.334 94-146.001 47.333-25.333 102.333-38 165-38 104.667 0 176.667 22 216 66 30.667 34.667 46 90 46 166 0 68.667-27 124.334-81 167.001-40.667 32-103 61-187 87z"/><glyph glyph-name="nine" unicode="9" d="M790 542c-40.667-14-77.833-24.5-111.5-31.5S614.666 500 587.999 500c-134 0-251 36-351 108-122.667 88-184 213.667-184 377 0 189.333 62.667 332.333 188 429 105.333 81.333 242.333 122 411 122 134 0 253.333-51.667 358-155 110-108 165.333-238.667 166-392 .667-166.667-31.666-328.334-96.999-485.001-70.667-170-167.334-298.333-290.001-385-51.333-36-131.666-79-240.999-129-125.333-56.667-214-85-266-85-39.333 0-72 14-98 42-24 26-36 56.333-36 91 0 53.333 32 94 96 122l164 53c97.333 37.333 173.833 79.833 229.5 127.5S744 455.333 790 542zm-166.999 755c-98.667 0-172.666-24.501-221.999-73.501s-74.333-122.833-75-221.5c0-80 29-142.333 87-187 52.667-40 120.667-60 204-60 33.333 0 72.833 10.333 118.5 31s97.5 51.667 155.5 93c6.667 46.667 10 83.334 10 110.001-.667 70-32.334 139.333-95.001 208-62 66.667-123 100-183 100z"/><glyph glyph-name="colon" unicode=":" horiz-adv-x="888" d="M454 800c-41.333 0-75.499 12.335-102.499 37.002s-40.5 56-40.5 94c0 7.333-1.5 18.666-4.5 33.999s-4.5 27-4.5 35c0 37.333 14.167 68.166 42.5 92.499S406.667 1129 446 1129c100 0 150-66 150-198 0-38-13.5-69.333-40.5-94s-60.833-37-101.5-37zm16.001-676.998C366.668 123.002 315 201.003 315 357.003c0 37.333 15 68.666 45 93.999 28.667 23.333 62.334 35 101.001 35 101.333 0 152-77 152-231 0-38-13.667-69.5-41-94.5s-61.333-37.5-102-37.5z"/><glyph glyph-name="semicolon" unicode=";" horiz-adv-x="888" d="M482 788c-40.667 0-74.499 12.833-101.499 38.5s-40.5 57.834-40.5 96.501c0 8-1.667 19.5-5 34.5s-5 26.5-5 34.5c0 38 14.667 69.667 44 95 27.333 24.667 60.666 37 99.999 37 100 0 150-67 150-201 0-38.667-13.5-70.834-40.5-96.501S522.667 788 482 788zm58.001-771c-20-22-33.335-37.333-40.002-46C482.666-51 473.333-68.333 472-81c-10-75.333-52.667-113-128-113-40 0-71.667 12.167-95 36.5S214-103 214-67c0 47.333 31 114.333 93 201 66.667 94 126.667 141 180 141 34.667 0 65.334-12 92.001-36s40-52.667 40-86c0-32-26.333-77.333-79-136z"/><glyph glyph-name="semicolon" unicode=";" horiz-adv-x="888" d="M482 788c-40.667 0-74.499 12.833-101.499 38.5s-40.5 57.834-40.5 96.501c0 8-1.667 19.5-5 34.5s-5 26.5-5 34.5c0 38 14.667 69.667 44 95 27.333 24.667 60.666 37 99.999 37 100 0 150-67 150-201 0-38.667-13.5-70.834-40.5-96.501S522.667 788 482 788zm58.001-771c-20-22-33.335-37.333-40.002-46C482.666-51 473.333-68.333 472-81c-10-75.333-52.667-113-128-113-40 0-71.667 12.167-95 36.5S214-103 214-67c0 47.333 31 114.333 93 201 66.667 94 126.667 141 180 141 34.667 0 65.334-12 92.001-36s40-52.667 40-86c0-32-26.333-77.333-79-136z"/><glyph glyph-name="less" unicode="&lt;" d="M885 856c-56.667-55.333-144.333-135.333-263-240 50-48.667 127.667-119 233-211 33.333-26.667 50-56.667 50-90 0-32-12.833-60.167-38.5-84.5S810.333 194 775 194c-37.333 0-84 23.667-140 71L519 377c-62 59.333-121.333 99-178 119-67.333 23.333-101 60.333-101 111 0 46 30 82.167 90 108.5S456.667 790.333 530 861c100 97.333 160.333 153.666 181 168.999 27.333 20.667 56 31 86 31 35.333 0 65.833-12 91.5-36s38.5-52 38.5-84c0-31.333-14-59.666-42-84.999z"/><glyph glyph-name="equal" unicode="=" d="M921 766l-468-.001c-15.333 0-38-.667-68-2s-52.667-2-68-2c-37.333 0-68 11.333-92 34S189 846.333 189 879c0 80.667 66 121 198 121 8 0 20-.333 36-1h31l467-1c37.333 0 68.166-11 92.499-33s36.5-49.667 36.5-83-12.167-61-36.5-83-55.166-33-92.499-33zm-14-488.001c-44 0-110 .833-198 2.5s-154 2.5-198 2.5c-20 0-49.833-1.167-89.5-3.5s-69.5-3.5-89.5-3.5c-38 0-69.5 10.667-94.5 32s-37.5 49.333-37.5 84c0 72 41 110.667 123 116 70 4.667 132.667 7 188 7 44 0 110-.833 198-2.5s154-2.5 198-2.5c37.333 0 68.166-11 92.499-33s36.5-49.667 36.5-83-12.167-61-36.5-83-55.166-33-92.499-33z"/><glyph glyph-name="greater" unicode="&gt;" d="M1000 570C839.333 432 671.335 311.333 496.002 208c-24.667-14.667-49.334-22-74.001-22-36 0-66.5 12.333-91.5 37s-37.5 53-37.5 85c0 36.667 18 68 54 94l347 242C617.334 699.333 543.667 760.666 473 827.999c-89.333 84-134 143-134 177 0 32.667 13.5 60.834 40.5 84.501s57.833 35.5 92.5 35.5c36 0 68.333-14.667 97-44 149.333-153.333 283-258.333 401-315 54-26 81-60.333 81-103 0-32.667-17-63.667-51-93z"/><glyph glyph-name="question" unicode="?" horiz-adv-x="1159" d="M868 647L702.999 531C635.666 484.333 584.333 441.333 549 402c-32-35.333-67.333-53-106-53-38 0-71.333 13.833-100 41.5S300 450 300 486c0 53.333 43 113 129 179l238 169c86 65.333 129 124.333 129 177 0 62-31.5 120.167-94.5 174.5S573 1267 505 1267c-36 0-85.333-20.5-148-61.5S250 1144 224 1144c-39.333 0-72.5 14.5-99.5 43.5S84 1248.667 84 1284c0 66.667 58.333 127.667 175 183 98.667 47.333 180.667 71 246 71 144.667 0 275.5-53.333 392.5-160s175.5-229 175.5-367c0-136.667-68.333-258-205-364zM387.999-72c-38 0-72.666 12-103.999 36-34 26.667-51 59.667-51 99 0 45.333 13.333 87.333 40 126 32 47.333 75 71 129 71 45.333 0 80.666-17 105.999-51 20-28 30-61 30-99 0-40.667-11-78.667-33-114-28-45.333-67-68-117-68z"/><glyph glyph-name="at" unicode="@" horiz-adv-x="1907" d="M1306 388c-46 0-92.168 11.17-138.501 33.504s-92.833 55.5-139.5 99.5c-28-30-64.333-56.667-109-80-48-25.333-90-38-126-38-84 0-163 32.5-237 97.5s-111 137.833-111 218.5c0 128 51.667 244 155 348 106 106 226.333 159 361 159 80 0 120-33.667 120-101 0-50-30.667-88.333-92-115-110.667-47.333-167.667-72-171-74-61.333-42.667-92-108-92-196 0-9.333 5.667-21.333 17-36 14-18 30.333-27.333 49-28 47.333-1.333 88 21.334 122 68l78 130c32.667 46.668 70 70 112 70 69.333 0 104-40.332 104-121 0-12.666-2.167-31.833-6.5-57.5s-6.5-45.167-6.5-58.5c0-24.667 13.333-39.667 40-45 4.667-.667 28.334-1 71.001-1 78 0 131.667 16.667 161 50 27.333 31.333 41 86.666 41 165.999 0 144-60.333 261.667-181 353-112.667 84.667-248 127-406 127-180 0-321.333-65-424-195-94-118-141-267.667-141-449 0-164.667 54.667-303.334 164-416.001 114-116.667 260.333-175 439-175 64.667 0 179.334 29.667 344.001 89 35.333 12.667 59 19 71 19 39.333 0 72.666-14.5 99.999-43.5s41-61.833 41-98.5c0-67.333-76.333-124.333-229-171-122-38-230.333-57-325-57-246.667 0-455.667 80-627 240C158 263.335 70 467.668 70 713c0 253.333 73.333 466.333 220 639 158.667 185.333 369 278 631 278 234.667 0 436-67.667 604-203 178.667-144 268-327.333 268-550 0-152.667-40.333-271.334-121-356.001-84-88.667-206-133-366-133z"/><glyph glyph-name="A" unicode="A" horiz-adv-x="1498" d="M1250-30c-52.667 2-105.67 63.997-159.003 185.997-35.333 78.667-65.666 169.334-90.999 272.001-49.333-7.333-130-14.666-242-21.999-105.333-7.333-186-16-242-26-30.667-73.333-84-183.666-160-330.999-29.333-48-70-72-122-72-36.667 0-69.667 12.5-99 37.5s-44 56.833-44 95.5c0 34 48.667 149.333 146 346-9.333 20.667-13.333 40-12 58 2.667 32 35 57 97 75 94.667 164 200 334 316 510 166.667 252.667 269.334 379 308.001 379 73.333 0 122.333-44.333 147-133l63-321c40.667-192 90.334-411.667 149.001-659 4.667-18.667 21.667-62.667 51-132 24-57.333 36-100.333 36-129 0-38.667-14.5-71-43.5-97s-61.833-38.333-98.5-37zM876.997 995.997l-215-365.002c30 6.667 76.667 12 140 16 74.667 4.667 121.667 8.334 141 11.001-16 86.667-38 199.334-66 338.001z"/><glyph glyph-name="B" unicode="B" horiz-adv-x="1291" d="M884 39C728.667-19 532.335-47.996 295.002-47.996c-40 0-75.833 16.667-107.5 50s-47.5 69-47.5 107v1060c-2 45.333-3.667 90.666-5 135.999-2 51.333-.333 94.666 5 129.999 9.333 62.667 67.666 100.667 174.999 114 50.667 14.667 134.667 22 252 22 126 0 246.667-40.667 362-122 135.333-94.667 203-213 203-355 0-76.667-14-141.334-42-194.001-22-42.667-60.333-88.334-115-137.001 64.667-31.333 122-78.666 172-142 56.667-70.666 85-141 85-211 0-88.666-48.333-172.666-145-252C1022.334 105.335 954.667 65.668 884 39zM567.001 1300c-86 0-137.668-.668-155.001-2.001l1-212-1-210c60.667-7.333 106.334-9.666 137.001-6.999 204 16 306 91 306 225 0 47.333-30 93-90 137-62 46-128 69-198 69zM684 593.003c-60.667 0-151.333 2.333-272 7v-374c114.667 6 239 28 373 66 117.333 33.333 175.333 69.333 174 108-2 51.333-39.667 97-113 137-57.333 32-111.333 50.667-162 56z"/><glyph glyph-name="C" unicode="C" horiz-adv-x="1267" d="M1104 1065c-60 0-104.333 31.663-133 94.996-13.333 30-26.666 48-39.999 54-10 4.667-36.333 7-79 7-84 0-181-65.333-291-196-154-182.667-231-353.667-231-513 0-72.667 24.333-135 73-187s107-78 175-78c66 0 133 17.333 201 52 24 12.667 74.667 45.334 152 98.001 52 34.667 91.333 52 118 52 40 0 74-14.667 102-44 26-27.333 39-58.666 39-93.999 0-39.333-17.333-73.666-52-102.999-183.333-154.667-370-232-560-232-150 0-276.667 54.667-380 164-98.667 105.333-148 229.333-148 372 0 223.333 97.667 451.333 293 684 166 197.333 335.667 296 509 296 29.333 0 55.833-1 79.5-3s44.5-5 62.5-9c29.333 28.667 64.666 43 105.999 43 68 0 110-39 126-117 11.333-56 17-121.333 17-196 0-33.333-9.667-63.666-29-90.999-25.333-36-62-54-110-54z"/><glyph glyph-name="D" unicode="D" horiz-adv-x="1478" d="M282-10c-39.333.667-72.33 14.168-98.997 40.501s-40 58.166-40 95.499c0 66.667 3.167 166.667 9.5 300s9.5 233.333 9.5 300c0 74-1.5 185-4.5 333s-4.5 259-4.5 333c0 36.667 17.667 73.167 53 109.5s73 54.5 113 54.5c22 0 77.333-20.667 166-62 103.333-49.333 164.666-77 183.999-83 195.333-63.333 362-161.333 500-294 164.667-158 247-332.667 247-524 0-115.333-28.333-225-85-329C1274.335 158 1196.668 73 1098 9 987.334-63 831.667-99 631-99c-48.667 0-104.667 7-168 21-76.667 17.333-137 40-181 68zm562.003 1028c-64.667 40.667-203.333 104.667-416 192V220c26-16.667 55.833-29.167 89.5-37.5s71.167-12.5 112.5-12.5c144 0 247.333 20 310 60 59.333 38 106.5 89.667 141.5 155s52.5 133.333 52.5 204c0 165.333-96.667 308.333-290 429z"/><glyph glyph-name="E" unicode="E" horiz-adv-x="1279" d="M1109 1282c-13.333 0-27.33 2.003-41.996 6.003-108 29.333-213 44-315 44-50 0-103.667-4-161-12s-118.333-20-183-36c0-88.667-3-220.334-9-395.001 37.333 2.667 167.666 15 390.999 37 127.333 12.667 208 19 242 19 39.333 0 73-12.5 101-37.5s42-58.167 42-99.5c0-79.333-42.333-124.333-127-135-53.333-4-133-10.667-239-20-94.667-10.667-237.334-23.667-428.001-39-4.667-84.667-7-153-7-205 0-130.667 7.667-205 23-223 7.333-8.667 49.333-13 126-13 41.333 0 103.666 1 186.999 3s145.666 3 186.999 3c13.333 0 33 2 59 6s45.333 6 58 6c38.667 0 71.667-11 99-33 31.333-24.667 47-59.334 47-104.001 0-74.667-39-119.334-117-134.001-66.667-12.667-205-19-415-19-217.333 0-359 29.333-425 88C130.333 53.667 94 193.667 94 409c0 89.333 6.5 223.5 19.5 402.5S133 1124.333 133 1213c0 23.333-3.333 57.833-10 103.5s-10 80.167-10 103.5c0 101.333 46.667 152 140 152 29.333 0 56.333-8.333 81-25 77.333 19.333 150.833 33.833 220.5 43.5S690 1605 752 1605c168 0 302.333-19.333 403-58 61.333-23.333 92-65.666 92-127 0-34.666-12-65.333-36-92-26.667-30.667-60.667-46-102-46z"/><glyph glyph-name="F" unicode="F" horiz-adv-x="1243" d="M1056 1250c-15.333 0-32.334 3.001-51.001 9.001-86 28-191 42-315 42-40.667 0-87.5-2.667-140.5-8s-111.833-13.333-176.5-24c1.333-128 1.333-238 0-330 101.333 24.667 185.333 37 252 37 124 0 232-5.667 324-17 86-10.667 129-56 129-136 0-38.667-13.667-71-41-97s-60.666-39-99.999-39c-34.667 0-86.667 2.667-156 8s-121.333 8-156 8c-48.667 0-132.667-15.333-252-46v-627c0-38.667-15.167-71-45.5-97s-65.166-39-104.499-39c-38.667 0-70 12.833-94 38.5s-36 58.167-36 97.5v1146c0 26 .5 65.333 1.5 118s1.5 92 1.5 118c0 39.333 13.167 72 39.5 98s59.5 39 99.5 39c25.333 0 47.666-5 66.999-15 77.333 13.333 148.333 23.166 213 29.499s123 9.5 175 9.5c76 0 171.667-15.667 287-47 144.667-39.333 217-85 217-137 0-38-13.5-70.667-40.5-98s-59.5-41-97.5-41z"/><glyph glyph-name="G" unicode="G" horiz-adv-x="1392" d="M1335 588c-45.333-198.667-136.667-357.664-274-476.997-139.333-120-302.666-180-489.999-180-177.333 0-310.333 46.833-399 140.5s-133 234.167-133 421.5c0 170.667 42 345.667 126 525s192 324.666 324 435.999c92.667 78 192 117 298 117 64.667 0 152.667-23.333 264-70 132-55.333 198-114.333 198-177 0-36-13.667-68.167-41-96.5s-61-42.5-101-42.5c-20 0-64.167 18.833-132.5 56.5s-130.833 56.5-187.5 56.5c-60 0-141-64.667-243-194-148.667-188-223-391.667-223-611 0-111.333 16.333-187 49-227 34.667-42 101.667-63 201-63 102 0 191.667 29 269 87 82 61.333 142.667 150.666 182 267.999-154.667-12-289.334-43.667-404.001-95-20.667-9.333-41.334-14-62.001-14-41.333 0-75.666 15.333-102.999 46-24.667 27.333-37 58.333-37 93 0 102 120.667 173.333 362 214 136 22.667 294.667 34 476 34 40 0 73.5-13 100.5-39s40.5-58 40.5-96c0-48.667-20-86.334-60-113.001z"/><glyph glyph-name="H" unicode="H" horiz-adv-x="1573" d="M1501 1387c-13.333-48.667-19.998-90.997-19.998-126.997 0-18.667-1.833-47.5-5.5-86.5s-5.5-67.833-5.5-86.5c0-63.333-3.333-157.333-10-282s-10-218.667-10-282c0-48.667 3.667-121.334 11-218.001s11-169.334 11-218.001c0-36.667-13-67.667-39-93s-58.333-38-97-38c-39.333 0-73.333 12.5-102 37.5s-43 55.5-43 91.5c0 48.667-2.167 121.667-6.5 219s-6.5 170.333-6.5 219c0 38 .667 71.667 2 101-104.667-4.667-234-21-388-49l-384-71c-1.333-45.333-6-121-14-227-6.667-93.333-10-169.666-10-228.999 0-36.667-13-67.667-39-93s-58.333-38-97-38-71 12.667-97 38-39 56.333-39 93c0 67.333 5.833 168 17.5 302s17.5 234.667 17.5 302c0 85.333 2 213.833 6 385.5s6 300.167 6 385.5c0 36.667 13 67.667 39 93s58.333 38 97 38 71-12.667 97-38 39-56.333 39-93c0-50.667-1.833-126.834-5.5-228.501s-5.5-177.834-5.5-228.501c0-16.667-2.333-48.667-7-96-4-44-5.667-77.667-5-101l384 72c150 26.667 279.333 42 388 46 2.667 44.667 7 164.667 13 360 1.333 51.333 17 110.333 47 177 37.333 82 79.666 123 126.999 123 35.333 0 66.666-11.667 93.999-35 29.333-25.333 44-57 44-95 0-10-1.333-20-4-30z"/><glyph glyph-name="I" unicode="I" horiz-adv-x="1119" d="M957 1182c-34.667 0-129.667 9.333-285 28-9.333-122.667-14-285.667-14-489l-1-449c88.667 2 179 3 271 3 40 0 73.167-13.333 99.5-40s39.5-58.667 39.5-96-13.167-69.166-39.5-95.499-59.5-39.5-99.5-39.5c-37.333 0-93.333-.833-168-2.5s-130.667-2.5-168-2.5c-44 0-110-5.833-198-17.5s-154-17.5-198-17.5c-40 0-73.167 13.167-99.5 39.5S57 61.667 57 99s13.167 69.333 39.5 96 59.5 40 99.5 40c45.333 0 105 5 179 15-1.333 78.667-2 229.334-2 452.001 0 181.333 6.667 354.333 20 519l-217-6c-40 0-73.5 13-100.5 39s-40.5 58.333-40.5 97c0 39.333 13.333 71.333 40 96 24.667 22.667 55 35.667 91 39 58.667 5.333 160.667 8 306 8 130.667 0 299-14 505-42 82-11.333 123-57.333 123-138 0-42.667-16.667-76.334-50-101.001-27.333-20.667-58.333-31-93-31z"/><glyph glyph-name="J" unicode="J" horiz-adv-x="1362" d="M1197 1228c-12 0-31.005 1.168-57.005 3.501s-47 3.5-63 3.5h-78c-.667 11.333-1-12.334-1-71.001 0-477.333-33.667-825-101-1043-49.333-160.667-139-241-269-241-124 0-246.667 42.667-368 128-137.333 95.333-206 207.333-206 336 0 104 47 156 141 156s141-51.333 141-154c0-39.333 33.833-81.5 101.5-126.5s131.167-67.5 190.5-67.5c24 0 41.333 44.333 52 133 2.667 21.333 10 125 22 311 10 152 15 341.333 15 568 0 9.333-1 31-3 65l-23-1c-29.333-1.333-68.666-1-117.999 1-59.333 2.667-98.666 4-117.999 4-39.333 0-72.666 12-99.999 36-29.333 26-44 59.667-44 101 0 90.667 59.667 136 179 136 22.667 0 56.334-.833 101.001-2.5s78-2.5 100-2.5c42 0 104.833 2.333 188.5 7s146.5 7 188.5 7c178.667 0 268-49.667 268-149 0-34.667-12-65.667-36-93-27.333-30-61.666-45-102.999-45z"/><glyph glyph-name="K" unicode="K" horiz-adv-x="1251" d="M395 443l-1.001-420.996c0-29.333-8.333-56.333-25-81-23.333-34-57.333-51-102-51-52.667 0-94 21.333-124 64-23.333 33.333-35 69-35 107 0 148 4.667 370.333 14 667s14 519 14 667c0 37.333 13.333 69.333 40 96s60 40 100 40 73.167-13.333 99.5-40 39.5-58.667 39.5-96c0-60-3-141-9-243-7.333-118.667-11.666-199.667-12.999-243 46.667 44 219.667 229.333 519 556 30.667 33.333 66 50 106 50 38 0 71.167-13.333 99.5-40s42.5-59 42.5-97c0-41.333-79.333-148.666-238-321.999-117.333-127.333-241-253-371-377l219-206c85.333-78.667 162-143.334 230-194.001 34-24.667 70.667-43.334 110-56.001 71.333-22.667 107-66.334 107-131.001 0-28.667-9-56.334-27-83.001-24.667-36-59-54-103-54-95.333 0-219 62.333-371 187C670.667 179.334 563.667 279.667 395 443z"/><glyph glyph-name="L" unicode="L" horiz-adv-x="1128" d="M1042 38C963.333 3.333 841.668-27.67 677.001-55.003c-150.667-25.333-274.334-38-371.001-38-163.333 0-245 71.667-245 215 0-11.333 6.667 94.334 20 317.001 17.333 289.333 26 611.333 26 966 0 38 13.167 70.333 39.5 97s59.5 40 99.5 40 73.333-13.333 100-40 40-59 40-97c0-355.333-9-682.666-27-981.999-6-53.333-12.333-135-19-245C498 180.666 700.667 219.333 948 294c15.333 4.667 30 7 44 7 42 0 76-15.333 102-46 23.333-27.333 35-58 35-92 0-57.333-29-99-87-125z"/><glyph glyph-name="M" unicode="M" horiz-adv-x="1808" d="M529 790c-30-108-72.005-271.001-126.005-489.001l-37-225c-27.333-94.667-77.666-142-150.999-142-46 0-82.333 15.667-109 47-22.667 26.667-34 58.334-34 95.001 0 108 23 239.667 69 395 68.667 232.667 105.667 361.667 111 387l59 308c30 141.333 62.5 235.5 97.5 282.5s79.167 70.5 132.5 70.5c60.667 0 105.334-30.667 134.001-92 26.667-58 55.334-176.667 86.001-356 29.333-174 73-361.333 131-562 76 198 146.667 415.333 212 652l56 230c36 95.333 91.667 143 167 143 72.667 0 126.667-55.333 162-166 14.667-44.667 30.334-128 47.001-250 38.667-284 87.334-527.333 146.001-730 59.333-206 89-318 89-336 0-39.333-15.667-72.333-47-99-29.333-24-62.333-36-99-36-72.667 0-126.667 52-162 156l-56 242c-32 120-66.667 292.333-104 517-30-89.333-79.667-229.666-149-420.999l-60-184c-24.667-72.667-50.334-132.334-77.001-179.001C981.666-14 932.333-45 869-45 806.333-45 758.333-8 725 66l-56 186c-52 170.667-98.667 350-140 538z"/><glyph glyph-name="N" unicode="N" horiz-adv-x="1665" d="M1581 246c0-33.333-5.667-86.001-17-158.001-13.333-86-62-129-146-129-46.667 0-99.334 26.333-158.001 79-256.667 231.333-546.334 555.666-869.001 972.999-4-173.333-6-279.666-6-318.999 0-52.667 1.167-132 3.5-238s3.5-185.333 3.5-238c0-196.667-48-295-144-295-48.667 0-87.667 15-117 45-26 26.667-39 59-39 97 0 26.667 2.167 67 6.5 121s6.5 94.333 6.5 121c0 39.333 1.333 98.333 4 177s4 137.667 4 177c0 42-1 105.333-3 190s-3 148-3 190c0 40-4 99.667-12 179s-12 139-12 179 17.167 75.667 51.5 107 73.5 47 117.5 47c49.333 0 104-42.667 164-128 302.667-432 601.334-784.333 896.001-1057 .667 21.333 1 72 1 152 0 328.667-3.333 550.334-10 665.001-1.333 19.333-5.666 55.333-12.999 108-6.667 46.667-10 83.334-10 110.001 0 92 48.667 138 146 138 108.667 0 163-167.667 163-503 0-7.333-.667-60-2-158-4-338.667-6-549.334-6-632.001z"/><glyph glyph-name="O" unicode="O" horiz-adv-x="1635" d="M786-61C588.667-61 420.668-4.334 282.001 108.999c-148 121.333-222 278.333-222 471 0 226.667 71 433.334 213 620.001 159.333 210 360 315 602 315 232.667 0 407-53.333 523-160s174-267 174-481c0-226.667-65.333-432-196-616C1225.334 45.333 1028.667-61 786-61zm89.001 1305c-148.667 0-276-71.999-382-215.999-99.333-134.667-149-284-149-448 0-110.667 43-200.667 129-270 82.667-66.667 187-100 313-100 146.667 0 269 72 367 216 90 131.333 135 280.666 135 447.999 0 140-31.333 237.333-94 292-60 52-166.333 78-319 78z"/><glyph glyph-name="P" unicode="P" horiz-adv-x="1091" d="M413 558c-11.333 0-39.336 2.333-84.003 7-4-93.333-6-246.666-6-459.999 0-35.333-12.333-65.666-37-90.999s-56-38-94-38-69.5 12.667-94.5 38-37.5 55.666-37.5 90.999v279c0 103.333 6.667 256.333 20 459 12.667 206 19.334 359.667 20.001 461 .667 173.333 49.334 256.333 146.001 249 22.667 6 54 10.5 94 13.5s88.667 4.5 146 4.5c130.667 0 253.334-42.333 368.001-127 127.333-94.667 191-210 191-346 0-170.667-67.667-306.334-203-407.001-120-88.667-263-133-429-133zm49.997 755c-21.333 0-40.169-.169-56.502-.502s-30.166-1.166-41.499-2.499c0-31.333-.333-78.333-1-141-1.333-74-7.666-189.333-18.999-346 34-5.333 56.667-8 68-8 104 0 190.333 24.667 259 74 73.333 52.667 110 122.334 110 209.001 0 56.667-34.333 107-103 151-66 42.667-138 64-216 64z"/><glyph glyph-name="Q" unicode="Q" horiz-adv-x="1795" d="M1646-438c-48.667 0-210.332 123-484.999 369-110.667-40-219.334-60-326.001-60-212 0-398.667 81.333-560 244C116.333 275.667 37 458 37 662c0 240 93 443.333 279 610 180.667 162 394.667 243 642 243 264.667 0 464.667-95.333 600-286 114-160.667 171-366.667 171-618 0-208.667-100.333-388-301-538l181-161 114-90c44.667-41.333 67-81.333 67-120 0-36.667-13.667-68.667-41-96-28-29.333-62.333-44-103-44zM958.002 1239c-172.667 0-321.001-55.333-445.001-166-127.333-112-191-249-191-411 0-129.333 52.833-247.5 158.5-354.5S704.335 147 835.002 147c17.333 0 36 1 56 3-98 94-147 170.333-147 229 0 40 15.333 73.333 46 100 28.667 24.667 61.667 37 99 37 45.333 0 84.333-20.333 117-61 58.667-73.333 124-139.333 196-198 160.667 98 241 216 241 354 0 184-38 331.333-114 442-85.333 124-209 186-371 186z"/><glyph glyph-name="R" unicode="R" horiz-adv-x="1311" d="M1126-12c-36 0-68.999 14.004-98.999 42.004-202 189.333-424 320.666-666 393.999 7.333-194 11-301.667 11-323 0-38-13.333-70.167-40-96.5s-60-39.5-100-39.5-73.333 13.167-100 39.5-40 58.5-40 96.5c0 50 .667 124.833 2 224.5s2 174.5 2 224.5l2 807c0 43.333 13 82.666 39 117.999 34 45.333 81 65.666 141 60.999 162-12 245-18.333 249-19 93.333-11.333 172.666-33.666 237.999-67 284.667-143.332 427-321 427-533 0-87.332-29.833-164.5-89.5-231.5s-149.167-123.5-268.5-169.5c176.667-98.666 309.667-199.333 399-302 23.333-26.667 35-56.334 35-89.001 0-37.333-14-69.5-42-96.5S1164.667-12 1126-12zM485.001 1246c-5.333.667-44.334 3.332-117.001 7.999v-531c16.667-.667 31.334-1 44.001-1 163.333 0 284.333 20.333 363 61 34 17.333 65.167 40.333 93.5 69s42.5 50.334 42.5 65.001c0 74.667-47.333 146.667-142 216-90 65.333-184.667 103-284 113z"/><glyph glyph-name="S" unicode="S" horiz-adv-x="1420" d="M571-61C401.667-61 268.33-23.33 170.997 52.003c-82 62.667-123 135-123 217 0 42 12.667 76.833 38 104.5s60.333 41.5 105 41.5c60 0 104-30.667 132-92 38-82 124-123 258-123 114.667 0 225.667 25 333 75 111.333 51.333 167 107.666 167 168.999 0 84-34.667 139.333-104 166-49.333 19.333-148.333 30.666-297 33.999-115.333 2.667-218.666 24.334-309.999 65.001-123.333 55.333-184 134.666-182 237.999 2 130 71.333 249.167 208 357.5s287.334 162.5 452.001 162.5c65.333 0 146-15 242-45 119.333-37.333 179-80.333 179-129 0-34.667-12-65.334-36-92.001-26.667-30-61-45-103-45-31.333 0-78.166 6.667-140.499 20S880 1196 848 1196c-86-.667-167.667-21.334-245-62.001-80-41.333-120-86.333-120-135 0-25.333 12.167-46.166 36.5-62.499S580.333 908.667 629 902l255-14c148-11.333 265-53 351-125 94.667-80 142-190.667 142-332 0-172-98-302.333-294-391C933.667-27.333 763-61 571-61z"/><glyph glyph-name="T" unicode="T" horiz-adv-x="1425" d="M1296 1199c-52 0-133 3.669-243 11.002-106 7.333-187 10.666-243 9.999 2.667-76 11.667-211.333 27-406 14-172 21-308 21-408 0-22.667 2.333-56.334 7-101.001s7-78.334 7-101.001c0-50-10.667-95-32-135-27.333-51.333-66.333-77-117-77-36.667 0-69 11.667-97 35-31.333 26-47 58.667-47 98 0 9.333 1.667 23.5 5 42.5s5 33.5 5 43.5c0 30.667-2.167 77-6.5 139s-6.5 108.667-6.5 140c0 89.333-7 210.333-21 363-16 175.333-25.333 296.333-28 363h-52c-148.667 0-266.667 10.667-354 32-74 18-111 61.667-111 131 0 34 12 64.667 36 92 28 32.667 64.667 47.334 110 44.001 23.333-1.333 76.333-7 159-17 66-7.333 119.333-11 160-11s101.5.667 182.5 2 141.833 2 182.5 2c50.667 0 126.667-3.5 228-10.5s177.333-10.5 228-10.5c40 0 73.5-13 100.5-39s40.5-58 40.5-96-13.5-70.167-40.5-96.5S1336 1199 1296 1199z"/><glyph glyph-name="U" unicode="U" horiz-adv-x="1509" d="M1154 173c-48.667-66-107.333-121.002-176-165.002-84-53.333-170.333-80-259-80-170 0-296.333 32.667-379 98-174.667 138-262 377.667-262 719 0 32.667 1.667 81.334 5 146.001s5 113.334 5 146.001c0 26 .667 64.833 2 116.5s2 90.5 2 116.5c0 53.333 9.667 103.666 29 150.999 26 62.667 62.333 94 109 94 36.667 0 69-12 97-36 30.667-25.333 46-58 46-98 0-38-.5-95.5-1.5-172.5s-1.5-134.833-1.5-173.5c0-32-1.667-80.333-5-145s-5-113-5-145c0-103.333 12-199.333 36-288 28-106 69-180 123-222 28-22 94.667-33.667 200-35 176-2.667 294.667 147.333 356 450 32 156.667 48 376.667 48 660 0 37.333 11 73.333 33 108 30 46 72.667 69 128 69 45.333 0 79.333-16.667 102-50 17.333-24.667 26-52 26-82 0-263.333-12.333-468.666-37-615.999-37.333-227.333-111-416-221-566z"/><glyph glyph-name="V" unicode="V" horiz-adv-x="1382" d="M634 420l234.001 605.001 87 239c39.333 94.667 81.666 167.667 126.999 219 30 34 66 51 108 51 38 0 71.333-13.167 100-39.5s43-58.5 43-96.5c0-26.667-9-53-27-79-36-52-69-114.667-99-188-1.333-2.667-26-68.667-74-198l-268-693C834.333 159.334 796.666 78.667 751.999-2c-28.667-52-70.334-78-125.001-78-69.333 0-117.666 32.667-144.999 98C400.666 212 310.333 491.667 211 857l-83 270c-37.333 125.333-56 212.333-56 261 0 39.333 14.667 72 44 98 28 24 60.667 36 98 36 64 0 108.667-33.333 134-100l40-173 95-324c52-190.667 102.333-359 151-505z"/><glyph glyph-name="W" unicode="W" horiz-adv-x="2129" d="M2052 1283l-39.998-100.999c-11.333-38.667-29.666-96-54.999-172-38-98-98.333-240.667-181-428-84.667-190.667-145.334-333-182.001-427-27.333-70-53-126-77-168-31.333-55.333-79-83-143-83-38 0-72.333 10.333-103 31-36 24-55.333 55.667-58 95-30.667 76.667-50 139.334-58 188.001-29.333 142.667-70 357-122 643-43.333-134-90-254.333-140-361-74.667-160-123.667-285.667-147-377 6-14.667 9-30.334 9-47.001 0-41.333-18.333-75-55-101-32-22-67.333-33-106-33-48.667 0-89 12.333-121 37-34.667 27.333-52.667 64.666-54 111.999l-31 117c-22 104-58 259.333-108 466-44 158-117.667 383-221 675-6 16.667-9 33.334-9 50.001 0 40 15.333 71.667 46 95 27.333 21.333 60.333 32 99 32 50.667 0 91-21.333 121-64 16.667-23.333 35.667-65.666 57-126.999 65.333-188 139-462 221-822 53.333 130 107.666 283.333 162.999 460 44.667 144 81 246.333 109 307 66.667 145.333 134.667 218 204 218 65.333 0 113-35.667 143-107 14.667-34 29-95.667 43-185 4-27.333 12.667-94.333 26-201 14-114.667 56-323.334 126-626.001 70.667 165.333 165.667 403.666 285 714.999 7.333 18.667 24.666 80 51.999 184 19.333 74.667 43.666 133.667 72.999 177 32 46.667 74.667 70 128 70 40.667 0 74.334-12.5 101.001-37.5s40-57.167 40-96.5c0-14-11.667-50-35-108z"/><glyph glyph-name="X" unicode="X" horiz-adv-x="1482" d="M1393 1295c-88-100.667-155.999-184.664-203.999-251.997-50.667-74-132-181.667-244-323l210-293c82.667-114 157-208.333 223-283 24.667-28 37-58 37-90 0-37.333-14.167-69.666-42.5-96.999s-61.833-41-100.5-41c-66 0-152.333 76-259 228l-133 196-127 173-312-342c-40-45.333-101.667-111.333-185-198-29.333-28-63-42-101-42-38.667 0-72.334 13.5-101.001 40.5s-43 59.167-43 96.5c0 32 11.667 61.333 35 88l182 193 353 390c-67.333 85.333-138.333 170.666-213 255.999-6 6.667-44 55.334-114 146.001-46 59.333-88.167 104.166-126.5 134.499S70 1341.669 70 1383.002c0 35.333 13.5 67.166 40.5 95.499s60.833 42.5 101.5 42.5c36 0 83.333-25.333 142-76 42.667-37.333 78-74.833 106-112.5l125-162.5c64-72.667 125.667-146.334 185-221.001l251 332c129.333 160 217.666 240 264.999 240 38.667 0 72.334-13.5 101.001-40.5s43-59.167 43-96.5c0-31.333-12.333-61-37-89z"/><glyph glyph-name="Y" unicode="Y" horiz-adv-x="1301" d="M1207 1234c-34-70-102.332-221.335-204.999-454.002-85.333-194.667-158-347.334-218-458.001-104-192-159.667-293.667-167-305-39.333-58-84.666-87-135.999-87-36.667 0-69 12-97 36-30.667 26.667-46 59.667-46 99 0 32.667 69.667 170 209 412-51.333 74-125 186.333-221 337l-317 501c-13.333 22.667-20 46.334-20 71.001 0 38.667 15 71.334 45 98.001 28 24.667 60.667 37 98 37 44 0 84-22.333 120-67l75-120 172-292C568.335 922.666 629.668 828.333 683.001 759l219 463 90 209c25.333 60 68.666 90 129.999 90 36.667 0 69-12 97-36 30.667-26 46-58.667 46-98 0-22.667-19.333-73.667-58-153z"/><glyph glyph-name="Z" unicode="Z" horiz-adv-x="1420" d="M1274 1195l-134.999-87.003c-112.667-83.333-246-226.666-400-429.999l-354-477-4-5c48.667 1.333 166 6 352 14 146 6.667 262.333 10 349 10 95.333 0 160-3.667 194-11 80-17.333 121.333-55.666 124-114.999 2-44-13.333-78.667-46-104-28-22-61.667-33-101-33-19.333 0-48.333 1.167-87 3.5s-67.667 3.5-87 3.5c-101.333 0-253.5-2.5-456.5-7.5S267.334-51 166.001-51c-43.333 0-79 11-107 33-31.333 24-47 57.667-47 101 0 48 21 105 63 171 13.333 20.667 51 71 113 151l329 437c130.667 168 253 304 367 408-104-7.333-183.333-11-238-11h-404c-7.333 0-18-.5-32-1.5s-24.667-1.5-32-1.5c-39.333 0-72.666 11.333-99.999 34-30.667 25.333-46 59.333-46 102 0 91.333 67.667 137 203 137 46 0 114.667-2.833 206-8.5s160-8.5 206-8.5c51.333 0 128.166 1.333 230.499 4s179.166 4 230.499 4c198.667 0 298-43.333 298-130 0-55.333-44-113.666-132-174.999z"/><glyph glyph-name="bracketleft" unicode="[" horiz-adv-x="771" d="M615-417c-19.333 0-48.499.83-87.499 2.496s-68.167 2.5-87.5 2.5c-15.333 0-37.833-.833-67.5-2.5s-52.167-2.5-67.5-2.5c-112.667 0-169 50.333-169 151 0 120 .833 299.667 2.5 539s2.5 418.666 2.5 538c0 64.666-1 161.333-3 290s-3 225.334-3 290.001c0 36.667 14.333 67.334 43 92.001s61.667 37 99 37c22.667 0 57-.833 103-2.5s80.333-2.5 103-2.5c12.667 0 31.5.833 56.5 2.5s43.833 2.5 56.5 2.5c39.333 0 71.166-12.167 95.499-36.5S728 1427.332 728 1388c0-91.333-80.667-137-242-137-8 0-35.333.667-82 2V-150l36 1c21.333.667 50.333 0 87-2 42-2 71.333-3 88-3 36.667 0 67-12.667 91-38s36-56.333 36-93c0-37.333-12-68.666-36-93.999s-54.333-38-91-38z"/><glyph glyph-name="backslash" unicode="\" horiz-adv-x="1126" d="M920-141c-49.333 0-87.666 22.334-114.999 67.001-25.333 41.333-65 122.666-119 243.999l-291 710c-42.667 96-121.667 244-237 444-14 24-21 47.333-21 70 0 35.333 13.667 65.833 41 91.5s59.333 38.5 96 38.5c44 0 80.333-20.333 109-61 82.667-118 166.667-274.333 252-469l204-495c74-178 140.667-327.667 200-449 10.667-22 16-42.333 16-61 0-35.333-13.333-65.833-40-91.5S956.667-141 920-141z"/><glyph glyph-name="bracketright" unicode="]" horiz-adv-x="771" d="M189-417c19.333 0 48.499.83 87.499 2.496s68.167 2.5 87.5 2.5c15.333 0 37.833-.833 67.5-2.5s52.167-2.5 67.5-2.5c112.667 0 169 50.333 169 151 0 120-.833 299.667-2.5 539s-2.5 418.666-2.5 538c0 64.666 1 161.333 3 290s3 225.334 3 290.001c0 36.667-14.333 67.334-43 92.001s-61.667 37-99 37c-22.667 0-57-.833-103-2.5s-80.333-2.5-103-2.5c-12.667 0-31.5.833-56.5 2.5s-43.833 2.5-56.5 2.5c-39.333 0-71.166-12.167-95.499-36.5S76 1427.332 76 1388c0-91.333 80.667-137 242-137 8 0 35.333.667 82 2V-150l-36 1c-21.333.667-50.333 0-87-2-42-2-71.333-3-88-3-36.667 0-67-12.667-91-38s-36-56.333-36-93c0-37.333 12-68.666 36-93.999s54.333-38 91-38z"/><glyph glyph-name="asciicircum" unicode="^" d="M943 1141c-32.667 0-63.003 11.668-91.003 35.001l-218 200c-161.333-169.333-271.666-254-330.999-254-35.333 0-65.833 11.5-91.5 34.5s-38.5 49.5-38.5 79.5c0 30.667 14 57.667 42 81 35.333 30 136 126.667 302 290 26.667 26 57.334 39 92.001 39 44 0 93.333-20 148-60 19.333-14 60-49.333 122-106l159-149c24.667-24 37-49.333 37-76 0-30.667-13.167-57.334-39.5-80.001s-57.166-34-92.499-34z"/><glyph glyph-name="underscore" unicode="_" horiz-adv-x="1284" d="M-75-345v186h1438v-186H-75z"/><glyph glyph-name="grave" unicode="`" horiz-adv-x="1139" d="M484 1178c-42.667 0-77.667 16.669-105 50.002l-96 123c-36 43.333-75.667 79.333-119 108-36.667 24-55 53.333-55 88 0 29.333 12.5 55.666 37.5 78.999s55.5 35 91.5 35c54.667 0 132-51.667 232-155 98-100.667 147-173.334 147-218.001 0-30.667-13.5-56.667-40.5-78s-57.833-32-92.5-32z"/><glyph glyph-name="a" unicode="a" horiz-adv-x="1138" d="M965-66c-30.667 0-79.33 33.331-145.997 99.998-61.333-29.333-115.333-51.5-162-66.5s-86.334-22.5-119.001-22.5c-160.667 0-281.167 43-361.5 129s-120.5 214.667-120.5 386c0 160.667 59.333 298.167 178 412.5s260.667 171.5 426 171.5c63.333 0 136.666-18 219.999-54 100.667-43.333 151-93.666 151-150.999 0-24-7.667-45-23-63-6.667-26.667-11.834-60.167-15.501-100.5s-5.5-87.5-5.5-141.5c0-127.333 9-219 27-275 2-6 17.333-40.667 46-104 26-57.333 39-90 39-98 0-35.333-13.5-64.666-40.5-87.999s-58.167-35-93.5-35zM717.004 619.998c0 21.333 1.498 45.831 4.498 73.498s7.5 58.5 13.5 92.5c-13.333 6.667-25.166 11.5-35.499 14.5s-19.166 4.5-26.499 4.5c-90.667 0-170-35.5-238-106.5s-102-153.167-102-246.5c0-89.333 16-156.5 48-201.5s80-67.5 144-67.5c41.333 0 80.5 6.833 117.5 20.5s71.833 33.834 104.5 60.501c-20 158.667-30 277.334-30 356.001z"/><glyph glyph-name="b" unicode="b" horiz-adv-x="1215" d="M577-42c-93.333 0-182 16.333-266 49-24.667-24.667-54.667-37-90-37-36 0-66.833 12-92.5 36S90 60 90 96c0 16 1 40.5 3 73.5s3 57.5 3 73.5v1133c0 48 10.667 90.667 32 128 26.667 47.333 64.667 71 114 71 71.333 0 107-38.667 107-116 0-8.667-1.167-22.5-3.5-41.5s-3.5-32.833-3.5-41.5V993c49.333 27.333 96.666 47.833 141.999 61.5s89 20.5 131 20.5c156.667 0 283.334-57 380.001-171 90-106.667 135-236 135-388 0-154.667-52.333-285.667-157-393C866.333 13 734.333-42 577-42zm38 861c-34.667 0-74.667-10.001-120-30.001s-96.333-50-153-90c-.667-63.333-.667-205 0-425 91.333-39.333 169.666-59 234.999-59 84.667 0 154.334 28.5 209.001 85.5s82 128.833 82 215.5S845.667 674.333 801 731c-46.667 58.667-108.667 88-186 88z"/><glyph glyph-name="c" unicode="c" horiz-adv-x="1052" d="M562-63C415.333-63 292.332-21.333 192.999 62c-104.667 88-157 204-157 348 0 132.667 47 269.667 141 411 106.667 161.333 230.667 242 372 242 69.333 0 150.333-18.667 243-56 112.667-46 169-99 169-159 0-32.667-11.333-61.667-34-87-24-27.333-55-41-93-41-28.667 0-63.167 15.5-103.5 46.5S629.666 813 548.999 813c-51.333 0-107-50.333-167-151-57.333-97.333-86-181.333-86-252 0-70 25.333-125 76-165 48-38 111.333-57 190-57 44.667 0 99.334 17 164.001 51s105.667 51 123 51c36 0 66.833-13 92.5-39s38.5-55.667 38.5-89c0-52-56.667-104-170-156-101.333-46-184-69-248-69z"/><glyph glyph-name="d" unicode="d" horiz-adv-x="1203" d="M834 1005c8.667 227.333 19.002 384.336 31.002 471.003 11.333 78.667 54.666 118 129.999 118 39.333 0 71-12.667 95-38s36-56.333 36-93c0-96.667-7.5-240.667-22.5-432s-22.5-335.333-22.5-432c0-236 7.667-394 23-474 2-10.667 3-20.334 3-29.001 0-36.667-13.333-66.834-40-90.501s-57.667-35.5-93-35.5c-49.333 0-86 22-110 66-45.333-27.333-92.333-47.833-141-61.5s-99-20.5-151-20.5c-149.333 0-273.333 47.667-372 143-100.667 97.333-151 221.333-151 372 0 179.333 50.667 324.166 152 434.499S434.667 1069 598 1069c50 0 94.667-5.333 134-16s73.333-26.667 102-48zm-19.998-314.997c-22 42-50.667 73.334-86 94.001s-77.333 31-126 31c-98.667 0-172.667-28.5-222-85.5s-74-142.5-74-256.5c0-72 26.667-133.667 80-185s115.333-77 186-77c51.333 0 90.333 6 117 18 18 8 48.667 29.333 92 64 11.333 9.333 22.333 19.666 33 30.999-1.333 32-1.333 154 0 366z"/><glyph glyph-name="e" unicode="e" horiz-adv-x="1145" d="M606-46C446.667-46 316.334-8.001 215.001 67.999c-112 84-168 202.333-168 355 0 168.667 44.333 311.334 133 428.001 98.667 129.333 231.667 194 399 194 116 0 212.333-18.667 289-56 100.667-49.333 151-126 151-230 0-73.333-41-138.333-123-195-37.333-26-112.333-64-225-114l-337-149c32-34.667 70.667-60.667 116-78s97.333-26 156-26c89.333 0 165 18.333 227 55 55.333 32.667 99.666 49 132.999 49 69.333 0 104-33.667 104-101 0-76-55.667-138-167-186-93.333-40-192.333-60-297-60zm-27 848.999c-62 0-115-20.668-159-62.001s-79.333-103.333-106-186l225 97c90 40.667 161.667 78.334 215 113.001-44.667 25.333-103 38-175 38z"/><glyph glyph-name="f" unicode="f" horiz-adv-x="1041" d="M577 1027c89.333 8 153.335 11.999 192.002 11.999 124.667 0 187-42.667 187-128 0-88-66.333-130-199-126-42 1.333-105.667-1.667-191-9-2.667-70.667-3.334-160.667-2.001-270 2.667-157.333 4-247 4-269 0-122-7.667-218.667-23-290s-59.333-107-132-107c-37.333 0-69.833 12-97.5 36s-41.5 54.333-41.5 91c0 8.667.667 17 2 25 16 95.333 24 185 24 269v500c-12-.667-34-3.334-66-8.001-25.333-3.333-44.666-5-57.999-5-40.667 0-74.334 11.833-101.001 35.5s-40 55.5-40 95.5c0 62 32.667 102.667 98 122 29.333 8.667 87.666 14.334 174.999 17.001.667 12 5 49.667 13 113 18.667 148.667 59 259.334 121 332.001 77.333 90.667 196 136 356 136 122 0 183-43.667 183-131 0-86.667-56.667-130-170-130-80.667 0-139.334-28.333-176.001-85-27.333-42-45.666-107.667-54.999-197z"/><glyph glyph-name="g" unicode="g" horiz-adv-x="1087" d="M1029 596c-28-156.667-44.665-322.001-49.998-496.001-6.667-215.333-42.667-371.666-108-468.999-87.333-130-242-195-464-195-259.333 0-389 51.333-389 154 0 36.667 11.667 66.334 35 89.001s54 34 92 34c30 0 73-5.667 129-17s105.667-17 149-17c99.333 0 172.666 30.333 219.999 91 45.333 59.333 72 153.666 80 282.999-34-34.667-72.333-60.667-115-78S518.667-51 468-51C335.333-51 227.5-7.833 144.5 78.5S20 275.333 20 410c0 181.333 55.333 328 166 440 114.667 116 269.667 174 465 174 62.667 0 116.667-7.667 162-23s82-38.666 110-69.999c84.667-10 127-60 127-150 0-44.667-7-106.334-21-185.001zM641.002 795.999c-112.667 0-200.334-37.001-263.001-111.001-56-67.333-84-154.666-84-261.999 0-79.333 15-139 45-179s75-60 135-60c54.667 0 109.667 31.667 165 95 52 60 81.667 119.333 89 178 12.667 64 27.334 163.667 44.001 299-22.667 13.333-45 23.333-67 30s-43.333 10-64 10z"/><glyph glyph-name="h" unicode="h" horiz-adv-x="1183" d="M399 915c48.667 48 100.832 83.827 156.499 107.494s115.167 35.5 178.5 35.5c114 0 196-32 246-96 37.333-48 60-121.667 68-221 3.333-82 7-164.333 11-247 10.667-107.333 17.334-172.666 20.001-195.999 9.333-74 20.666-138.667 33.999-194 3.333-14 5-26.333 5-37 0-37.333-14.167-68.166-42.5-92.499s-61.5-36.5-99.5-36.5c-67.333 0-111 33.333-131 100-16 54-30.667 130-44 228-12 94-18 171.333-18 232 0 16.667.833 41.834 2.5 75.501s2.5 58.834 2.5 75.501c0 49.333-.667 78-2 86-6 36.667-23.333 55-52 55-74 0-141-34-201-102-30.667-34-72.667-98.667-126-194 0-241.333-11.667-386.666-35-435.999-26-54.667-67.333-82-124-82-37.333 0-70.5 12.5-99.5 37.5s-43.5 55.833-43.5 92.5c0 12.667 3.667 30.334 11 53.001 4.667 14.667 8.667 104.667 12 270-3.333 134-2.666 357 2.001 669l2 33c4 78.667 6 131.334 6 158.001 0 20.667-3.167 51.167-9.5 91.5s-9.5 70.833-9.5 91.5c0 38 13.667 69.167 41 93.5s60.333 36.5 99 36.5c66 0 110.333-35.333 133-106 12.667-40 19-101.333 19-184 0-66.667-2-134.334-6-203.001-4-65.333-6-130-6-194z"/><glyph glyph-name="i" unicode="i" horiz-adv-x="574" d="M330 1202c-42.667 0-79.667 14.333-111 43s-47 63.667-47 105 15.667 76.333 47 105 68.333 43 111 43 79.5-14.333 110.5-43 46.5-63.667 46.5-105-15.5-76.333-46.5-105-67.833-43-110.5-43zm85-733c0-38 1.167-99 3.5-183s3.5-145 3.5-183c0-38.667-13-70.5-39-95.5S324-30 284-30s-73 12.5-99 37.5-39 56.833-39 95.5c0 38-1.167 99-3.5 183S139 431 139 469c0 59.333 3.333 133.666 10 222.999s10 163.666 10 222.999c0 38.667 13 70.5 39 95.5s59 37.5 99 37.5 73-12.5 99-37.5 39-56.833 39-95.5c0-59.333-3.333-133.666-10-222.999S415 528.333 415 469z"/><glyph glyph-name="j" unicode="j" horiz-adv-x="826" d="M467 1197c-42.667 0-79.5 14.333-110.5 43s-46.5 64-46.5 106 15.5 77.5 46.5 106.5S424.333 1496 467 1496s79.667-14.5 111-43.5 47-64.5 47-106.5-15.667-77.333-47-106-68.333-43-111-43zM419-187c0 70-11.336 254.666-34.003 553.999s-34 477-34 533c0 40 11.667 76 35 108 27.333 36 62.666 54 106 54 30.666 0 61.333-10.333 92-31 33.333-22.667 50.666-48.667 52-78 8-127.333 19-312.333 33-555 18-323.333 27-521.666 27-594.999 0-96.667-30.334-185.334-91-266.001-67.334-89.333-151-134-251-134-161.334 0-293.667 114-397 342-10 22-15 42.667-15 62 0 36.667 14.667 68.334 44 95.001 28.667 24.667 61.667 37 99 37 42.667 0 80.334-23 113.001-69l73-129c26.667-46 54.334-69 83.001-69 34.667 0 56.334 47 65.001 141z"/><glyph glyph-name="k" unicode="k" horiz-adv-x="1106" d="M943-41c-52.667 0-92.666 25.336-119.999 76.003-32.667 60.667-81.667 132.334-147 215l-161 205c-53.333-39.332-97.333-69.332-132-90-6.667-92.666-10-181.333-10-266 0-38.667-13-70.667-39-96s-59-38-99-38c-94 0-141 56-141 168 0 52.667 3.833 131.5 11.5 236.5s11.5 183.833 11.5 236.5c0 96.667 1.5 207.167 4.5 331.5s4.5 234.166 4.5 329.499c0 28.667-1.5 62.5-4.5 101.5s-4.5 72.833-4.5 101.5c0 38.667 13 70.5 39 95.5s59 37.5 99 37.5 73-12.5 99-37.5 39-56.833 39-95.5c0-29.333 1.667-64 5-104s5-74.667 5-104c0-79.333-2-173.333-6-282-4-104-5.667-196.667-5-278 90.667 70 228.667 197.333 414 382 29.333 29.333 62.666 44 99.999 44s70.333-13.667 99-41 43-59 43-95c0-30.667-13-60.334-39-89.001-78.667-88-172.334-180-281.001-276l208-268c100.667-134 151-223.333 151-268 0-36.667-14.667-67.834-44-93.501S980.333-41 943-41z"/><glyph glyph-name="l" unicode="l" horiz-adv-x="561" d="M410 147c0-126.667-45.999-190-137.999-190-40 0-73 12.667-99 38s-39 58-39 98v1383c0 38.667 14 70.334 42 95.001 26.667 22.667 59.667 34 99 34s71.666-11.833 96.999-35.5 38-54.834 38-93.501V147z"/><glyph glyph-name="m" unicode="m" horiz-adv-x="1591" d="M361 885c100.667 116.667 196.003 175.005 286.003 175.005 102.667 0 178-39 226-117 40.667 36 85.667 63 135 81s102.666 27 159.999 27c130.667 0 219.334-65 266.001-195 9.333-26.667 23.666-117 42.999-271 18.667-108 42.667-288 72-540 2.667-38-10.333-69.333-39-94s-62.334-37-101.001-37c-76.667 0-121.667 38-135 114-12 68.667-24.333 165.667-37 291-13.333 137.333-24.333 234.666-33 291.999-18 119.333-41 179-69 179-15.333 0-50.333-15.333-105-46s-94.667-57-120-79c0-76 9-185.333 27-328 18.667-146 28-255.333 28-328 0-38-13-69.667-39-95s-59-38-99-38-73 12.667-99 38-39 57-39 95c0 76-8.167 187.833-24.5 335.5s-24.5 259.5-24.5 335.5c0 42.667-3.667 76.667-11 102-77.333-44.667-155-119-233-223-3.333-4.667-9-11.667-17-21-2.667-134.667-4-240.334-4-317.001 0-18.667-.667-43.834-2-75.501s-2-55.167-2-70.5c0-36-14.667-64.333-44-85-26.667-19.333-59.667-29-99-29-56.667 0-95 24.667-115 74-14 33.333-21 86.333-21 159v372c0 33.333-1.333 82.166-4 146.499s-4 113.166-4 146.499c0 59.333 10.667 113 32 161 26 60 62.667 90 110 90 37.333 0 70.666-14.5 99.999-43.5s44-60.833 44-95.5c0 14-3-14.667-9-86z"/><glyph glyph-name="n" unicode="n" horiz-adv-x="1072" d="M890-71c-82 0-127.667 40.336-137 121.003l-28 207c-10 73.333-15 142.333-15 207 0 17.333 1.167 47 3.5 89s3.5 71.667 3.5 89c0 4.667.667 16.5 2 35.5s2 34.5 2 46.5c0 55.333-14.333 83-43 83-61.333 0-121.5-35.833-180.5-107.5s-105.167-162.5-138.5-272.5c-1.333-22-4.333-51.333-9-88-4-30-6-59.333-6-88 0-18.667 2.167-46.834 6.5-84.501s6.5-65.834 6.5-84.501c0-38-13.167-69.5-39.5-94.5s-59.5-37.5-99.5-37.5-73 12.5-99 37.5-39 56.5-39 94.5c0 18.667-2 46.834-6 84.501s-6 65.834-6 84.501c0 64 4.667 153 14 267s14 203 14 267c0 20-1.167 49.833-3.5 89.5s-3.5 69.167-3.5 88.5c0 37.333 13.5 68.166 40.5 92.499s60.167 36.5 99.5 36.5c87.333 0 134-52.333 140-157l1-11c97.333 98 200 147 308 147 126 0 213-52.667 261-158 32-70.667 48-176.334 48-317.001v-71c-.667-30.667-1-52.334-1-65.001 0-52 7.167-119 21.5-201S1029 110.333 1029 59c0-37.333-13.333-68.333-40-93s-59.667-37-99-37z"/><glyph glyph-name="o" unicode="o" horiz-adv-x="1077" d="M514-59C390.667-59 284.668-16.667 196.001 68c-97.333 92.667-148.333 216.334-153 371.001C38.334 586.334 78.667 717.667 164 833c101.333 136 242.333 204 423 204 133.333 0 239.333-53.333 318-160 70.667-96 106-215 106-357 0-154.667-41.333-286.667-124-396C794.333 2 670-59 514-59zm60.001 832c-82 .667-146.668-36.668-194.001-112.001-40-63.333-60-137.333-60-222 0-80 22.667-141.333 68-184 36-34 78-51 126-51 58 0 108.333 19.667 151 59 48.667 46 74.667 108.333 78 187C751.667 664.666 695.334 772.333 574.001 773z"/><glyph glyph-name="p" unicode="p" horiz-adv-x="1095" d="M564-59c-57.333 0-117.667 6.669-181 20.002l-1-408c0-38.667-13-70.667-39-96s-59-38-99-38-73 12.667-99 38-39 57.333-39 96c0 31.333.667 155.666 2 372.999 1.333 161.333 1.333 293 0 395-2 144-6.667 268-14 372-10 143.333-15 209-15 197 0 55.333 12.333 102.666 37 141.999 28.667 44.667 67.334 67 116.001 67 37.333 0 68.666-12.667 93.999-38s38-55.666 38-90.999l-1-10c44.667 25.333 89.5 44.166 134.5 56.499S587.667 1035 633 1035c153.333 0 265.333-65 336-195 52.667-98 79-225 79-381 0-146-41.667-267-125-363C833.667-7.333 714-59 564-59zm68.999 827.002c-42 0-84.668-9.833-128.001-29.5s-87-49.167-131-88.5c8-137.333 12-275 12-413 59.333-19.333 118.666-29 177.999-29 68.667 0 121.334 24.333 158.001 73 33.333 44 50 103.333 50 178 0 90-4 152.333-12 187-19.333 81.333-61.666 122-126.999 122z"/><glyph glyph-name="q" unicode="q" horiz-adv-x="1065" d="M949 309L903-55.999c-16.667-134.667-25-256.667-25-366 0-38.667-13-70.667-39-96s-59-38-99-38c-92 0-138 55.667-138 167 0 16.667 1 33.667 3 51 6 48 15.333 144 28 288-27.333-6-52.333-9-75-9-154.667 0-281 38.667-379 116-106 84-159 200-159 348 0 196 58.333 354 175 474C316.333 1002.334 480 1063.667 686 1063c35.333 0 64.333-9 87-27 23.333 14.667 47 22 71 22 38 0 70.667-14 98-42s41-60 41-96c0-189.333-11.333-393-34-611zM681 820.001c-33.333 3.333-53.33 4.334-59.997 3.001-110.667-18.667-194.334-72-251.001-160-46.667-73.333-70-160.333-70-261 0-64.667 20-117 60-157 45.333-44 108.666-65 189.999-63 46 1.333 80.333 26.666 103 75.999 30 65.333 46 181.333 48 348 0 11.333 4 82 12 212-8.667 0-19.334.667-32.001 2z"/><glyph glyph-name="r" unicode="r" horiz-adv-x="984" d="M940 721c-6-102-52.332-153-138.999-153-84 0-126 43.333-126 130l-5 101c-150-24-257.333-101-322-231l1-503c0-38-13-69.5-39-94.5s-59-37.5-99-37.5c-41.333 0-73.333 13.333-96 40-21.333 24-32 54.667-32 92v655c0 20.667.667 51.5 2 92.5s2 71.833 2 92.5c0 37.333 11.167 68.5 33.5 93.5S174.667 1036 216 1036c74 0 118-38 132-114 118 88 249 132 393 132 133.333 0 200-88.667 200-266 0-34-.333-56.333-1-67z"/><glyph glyph-name="s" unicode="s" horiz-adv-x="997" d="M806 732c-66 0-105.667 27.666-119 82.999-26.667 4.667-54 7-82 7-160.667 0-241-22-241-66 0-26 48.333-61 145-105 132-60.667 221.333-108 268-142 96.667-70 145-149 145-237 0-114.667-53.333-201.667-160-261-86-47.333-191.667-71-317-71-88.667 0-169.667 13.667-243 41-100 37.333-150 92.333-150 165 0 66.667 39.667 100 119 100 30.667 0 75-9.667 133-29s102.667-29 134-29c135.333 0 203.333 27.333 204 82 0 34-47 71.667-141 113C363.667 443.666 275.667 487.333 237 514 143 580 96 660.333 96 755c0 134 71 224.333 213 271 83.333 27.333 210 41 380 41 66.667 0 116-8.667 148-26 44-23.333 66-66.333 66-129 0-120-32.333-180-97-180z"/><glyph glyph-name="t" unicode="t" horiz-adv-x="965" d="M808 805c-14 0-30.499.503-49.499 1.503s-35.5 1.5-49.5 1.5c-27.333 0-59-2.667-95-8 12-269.333 18-445.333 18-528 0-8.667.333-24.834 1-48.501s1-42.834 1-57.501c0-153.333-48.333-230-145-230-36.667 0-68.334 11.333-95.001 34-29.333 24-44 54-44 90 0 24 1 60 3 108s3 84 3 108c0 80.667-6 253.334-18 518-41.333 2-103.833 7.5-187.5 16.5S25 862.67 25 940.002c0 37.334 12.667 69 38 95s58 39 98 39c24.667 0 81.334-4 170.001-12-.667 21.334-2.334 56.667-5.001 106-2.667 42.667-4 75.667-4 99 0 37.333 13.667 68.333 41 93s60.333 37 99 37c98.667 0 148-83 148-249l-2-82c41.333 6 75 9 101 9 76.667 0 129-5 157-15 53.333-18.667 80-59.334 80-122.001 0-38-13-69.667-39-95s-59-38-99-38z"/><glyph glyph-name="u" unicode="u" horiz-adv-x="1065" d="M978 578c0-44.667.33-112 .997-202s1-157.333 1-202c0-14 1.167-34.833 3.5-62.5s3.5-48.5 3.5-62.5c0-37.333-13.5-68.166-40.5-92.499s-60.167-36.5-99.5-36.5c-55.333 0-95.666 25-120.999 75-85.333-31.333-173.666-47-264.999-47-94.667 0-174.334 20-239 60-72.668 46-116 113-130 201-26 166.667-39 315.667-39 447 0 86.667 10 185.667 30 297 13.332 75.333 58.332 113 135 113 38.666 0 71.666-12.167 99-36.5s41-55.166 41-92.499c0-29.333-4.834-75.333-14.5-138s-14.5-110.334-14.5-143.001c0-94 3.166-176.167 9.5-246.5s15.832-128.5 28.5-174.5c16.666-7.333 32.833-13 48.5-17s30.834-6 45.501-6c74 0 155.333 10.667 244 32 0 51.333-.333 109.666-1 174.999-1.333 78-2 134-2 168 0 136.667 6.333 254.667 19 354 10 79.333 55.333 119 136 119 39.333 0 73-12.333 101-37s41-55.667 39-93c-12.667-254-19-371.333-19-352z"/><glyph glyph-name="v" unicode="v" horiz-adv-x="996" d="M639 74c-3.333-33.333-16.999-60.665-40.999-81.998s-53.667-32-89-32c-67.333 0-115 34.667-143 104l-331 806c-8.667 20-13 39-13 57 0 36 14.5 66.5 43.5 91.5s62.167 37.5 99.5 37.5c57.333 0 98.333-26.333 123-79 38-80.667 112-269.334 222-566.001 35.333 75.333 84 190 146 344 18.667 51.333 47.667 123 87 215 27.333 53.333 68.666 80 123.999 80 37.333 0 70.5-12.333 99.5-37S1010 957.667 1010 921c0-24-54-156-162-396-88-196-157.667-346.333-209-451z"/><glyph glyph-name="w" unicode="w" horiz-adv-x="1401" d="M1381 881c-70-261.333-140.333-498.664-211-711.997-20-60-52.667-121.667-98-185-32-44-74.667-65.667-128-65-84 1.333-150 82.333-198 243-18 61.333-39.333 175.666-64 342.999-14-29.333-22.667-49-26-59-34.667-82.667-85.334-211-152.001-385-10-28-25-50.333-45-67-28-44.667-69.667-68-125-70-31.333-1.333-64.333 26.667-99 84-36.667 58-66.334 132.667-89.001 224-20.667 82.667-52.667 262.667-96 540-9.333 60-14 107-14 141 0 36.667 13.833 67.167 41.5 91.5s60.834 36.5 99.501 36.5c72 0 116.333-35.667 133-107 8.667-37.333 16-83.333 22-138 8-78.667 13-125 15-139 8.667-52 22-137 40-255 49.333 135.333 106 303.666 170 504.999 27.333 86.667 78.666 130 153.999 130 74 0 122.667-48.333 146-145 16.667-68 34.334-156.333 53.001-265 27.333-158 44-252 50-282 6 20.667 58.333 223.334 157 608.001 14.667 57.333 56.334 86 125.001 86 38 0 71.5-12.333 100.5-37s43.5-55.334 43.5-92.001c0-6.667-1.667-16.334-5-29.001z"/><glyph glyph-name="x" unicode="x" horiz-adv-x="1209" d="M1087 811L939.999 682l-153-142 305-373c22-27.333 33-54.333 33-81 0-34.667-14-65-42-91s-60-39-96-39C949.666-44 916.333-28 887 4c-60 65.333-159 183-297 353-54-54-137.667-132.667-251-236-36-30-63.333-55-82-75-29.333-30.667-62.333-46-99-46-36 0-67.833 13-95.5 39S21 95.333 21 130c0 38.667 27.333 83 82 133l132 113 190 187-113 156c-46 61.333-89.333 109-130 143-34.667 28.667-52 61-52 97 0 34.667 13.167 65.5 39.5 92.5s57.833 40.5 94.5 40.5c47.333 0 112.666-47.667 195.999-143l160-206 171 144c70.667 61.333 121.334 113.666 152.001 156.999 28.667 40.667 65 61 109 61 36 0 68.167-12.667 96.5-38s42.5-55.333 42.5-90c0-43.333-34.667-98.666-104-165.999z"/><glyph glyph-name="y" unicode="y" horiz-adv-x="1132" d="M1096 845L751.001 131.999c-85.333-174-150.333-318.333-195-433-14-41.333-36-102.666-66-183.999-24-62.667-66.667-94-128-94-38 0-71.333 12.333-100 37s-43 55.667-43 93c0 62 70.667 245.667 212 551-73.333 144.667-189.666 357.667-348.999 639l-49 77c-18 30.667-27 58.667-27 84 0 36 14.333 67.667 43 95s61.667 41 99 41c44 0 78.333-16.333 103-49 94.667-126 205-315.667 331-569l130 286c47.333 99.333 93.666 186.666 138.999 261.999 28.667 48 68 72 118 72 37.333 0 70.666-12.667 99.999-38s44-56.333 44-93c0-19.333-5.667-40.666-17-63.999z"/><glyph glyph-name="z" unicode="z" horiz-adv-x="1102" d="M757 505C645.667 354.333 576.334 261.667 549.001 227c40.667 1.333 74.334 2 101.001 2s65.5-4.833 116.5-14.5 89.5-14.5 115.5-14.5c40 0 73.167-12.5 99.5-37.5s39.5-56.5 39.5-94.5-13-69.333-39-94-59.333-37-100-37c-26.667 0-65.5 4.667-116.5 14s-89.5 14-115.5 14c-149.333 0-289-12.333-419-37-17.333-3.333-32-5-44-5-36.667 0-68 10-94 30-29.333 22-44 51-44 87 0 42.667 21 81.667 63 117 166 140.667 339.667 346.334 521 617.001-41.333-2-81-3-119-3-102 0-205.333 7.333-310 22-82 11.333-123 54.666-123 129.999 0 36.667 12.667 68 38 94s57.666 39 96.999 39c32.667 0 82.167-3.5 148.5-10.5S480.667 1035 514 1035c45.333 0 113.333 2.833 204 8.5s158.667 8.5 204 8.5c83.333 0 125-34 125-102 0-60-28.333-122-85-186S837 613.667 757 505z"/><glyph glyph-name="braceleft" unicode="{" horiz-adv-x="750" d="M613 1371l-83-6.004c-70-7.333-105-62.666-105-165.999 0-27.333 2.167-92.833 6.5-196.5s6.5-169.167 6.5-196.5c0-37.333-11.333-79-34-125-23.333-48-52.333-86.333-87-115 70-92 105-167.333 105-226 0-21.333-2.667-53.166-8-95.499s-8-74.166-8-95.499c0-51.333 8.333-105.333 25-162 22.667-76 53.334-114 92.001-114 64 0 108.333-5 133-15 42-18 63-55 63-111 0-87.333-65.333-131-196-131-124 0-222.667 65.667-296 197-58.667 105.333-88 217.333-88 336 0 17.333 2.667 43.5 8 78.5s8 61.5 8 79.5c0 40-31.5 81.167-94.5 123.5s-94.5 84.833-94.5 127.5c0 39.333 25 83.666 75 133 42 42 85.667 74 131 96 .667 28.666-.666 92.666-3.999 192-2.667 105.332-4 169.332-4 192 0 220 74.333 361 223 423 49.333 20.666 98.666 31 147.999 31 43.333 0 84.666-10 123.999-30 52-27.334 78-65.667 78-115 0-61.333-41.333-97.666-124-108.999z"/><glyph glyph-name="bar" unicode="|" horiz-adv-x="863" d="M444-362c-87.333 0-131.668 82.666-133.001 247.999 0 19.333.333 47.5 1 84.5s1 63.167 1 78.5v1542c0 36 12.833 65.667 38.5 89s56.834 35 93.501 35c37.333 0 67.666-11.833 90.999-35.5s35-53.167 35-88.5v-1803c-.667-35.333-9.667-66.666-27-93.999-23.333-37.333-56.666-56-99.999-56z"/><glyph glyph-name="braceright" unicode="}" horiz-adv-x="750" d="M695 471l-94-68.992c-36-28.667-54-60.334-54-95.001 0-18 2.833-44.5 8.5-79.5s8.5-61.167 8.5-78.5c0-118.667-29.333-230.667-88-336-73.333-131.333-172-197-296-197-130.667 0-196 43.667-196 131 0 56 21 93 63 111 24.667 10 69 15 133 15 38.667 0 69.334 38 92.001 114 16.667 56.667 25 110.667 25 162 0 21.333-2.667 53.166-8 95.499s-8 74.166-8 95.499c0 58.667 35 134 105 226-34.667 28.667-63.667 67-87 115-22.667 46-34 87.667-34 125 0 27.333 2.167 92.833 6.5 196.5s6.5 169.167 6.5 196.5c0 103.333-35 158.666-105 165.999-72.667 7.333-116.667 13.666-132 18.999-50 16-75 48-75 96 0 49.333 26 87.666 78 114.999 39.333 20 80.666 30 123.999 30 49.333 0 98.666-10.333 147.999-31 148.667-62 223-203 223-423 0-22.667-1.333-86.334-4-191.001C531.666 881.334 530.333 817.667 531 789c45.333-22 89-54.333 131-97 50-50 75-94.667 75-134 0-31.333-14-60.333-42-87z"/><glyph glyph-name="asciitilde" unicode="~" d="M855 467c-84 0-158.665 23.001-223.998 69.001-34.667 24-86.667 74.667-156 152l-22 25c-42.667 0-96.667-48-162-144-27.333-40-64.666-60-111.999-60-34.667 0-65 10-91 30-28 21.333-42 47.333-42 78 0 16 4.667 32.667 14 50 38 71.333 88 131 150 179 76 58.667 157 88 243 88 65.333 0 123.666-20.333 174.999-61 3.333-2.667 40.666-41 111.999-115 41.333-42 81.666-64.333 120.999-67 5.333-.667 17.666 25.333 36.999 78 32 86.667 78.333 130 139 130 87.333 0 131-42.333 131-127 0-70.667-29-137.334-87-200.001C1017.666 502 942.333 467 855 467z"/><glyph glyph-name="nonbreakingspace" horiz-adv-x="975"/><glyph glyph-name="exclamdown" unicode="¡" horiz-adv-x="487" d="M282 1309c-40 0-77 21.334-111 64.001-31.333 39.333-47 75.666-47 108.999 0 34 14 63.333 42 88 26 23.333 56.333 35 91 35 40 0 77.333-21.333 112-64 31.333-39.333 47-76 47-110 0-34.667-13.667-63.667-41-87s-58.333-35-93-35zM384 57.001c0-35.333-12.333-64.666-37-87.999s-55.667-35-93-35-68.166 11.667-92.499 35-36.5 52.666-36.5 87.999v1062c0 35.333 12.167 64.666 36.5 87.999s55.166 35 92.499 35 68.333-11.667 93-35 37-52.666 37-87.999c0-26 .667-64.833 2-116.5s2-90.5 2-116.5c0-92-.667-230.167-2-414.5s-2-322.5-2-414.5z"/><glyph glyph-name="cent" unicode="¢" d="M1138 608c-88.667-210.667-231-324.666-427-341.999v-102c0-86.667-32.333-130-97-130-36.667 0-61.5 6.833-74.5 20.5s-19.5 38.167-19.5 73.5v148c-294 104-441 303-441 597 0 123.333 43 245.5 129 366.5s190 202.167 312 243.5c.667 79.333 3.334 132 8.001 158 11.333 60.667 35.666 92.667 72.999 96 32 2.667 59.5-7.833 82.5-31.5s34.5-53.167 34.5-88.5c0-68.667-.333-113.334-1-134.001 85.333-14 145.666-29.667 180.999-47 30.667 33.333 69.334 50 116.001 50 31.333 0 56.333-9.833 75-29.5s28-43.5 28-71.5c0-37.333-15.333-92-46-164-35.333-81.333-69-122-101-122-18.667 0-40.667 12-66 36l-55 56c-10 8.667-54 25.667-132 51V505c57.333 10 104.666 38.333 141.999 85 4.667 6 28.667 45.333 72 118 22.667 39.333 47.334 58.333 74.001 57 35.333-2 67-12 95-30 32.667-21.333 49-48 49-80 0-14-3.667-29.667-11-47zM325 873.001c0-180.667 65-297.667 195-351v702c-42-27.333-84.333-78-127-152-45.333-78-68-144.333-68-199z"/><glyph glyph-name="sterling" unicode="£" horiz-adv-x="1625" d="M587 210c52.667-2 125.667-21.669 219-59.002 90.667-36 163.334-54 218.001-54 127.333 0 198 33.167 212 99.5s22.667 102.833 26 109.5c17.333 33.333 53 50 107 50 40 0 71.667-12.5 95-37.5s35-55.833 35-92.5c0-38.667-7.667-80.667-23-126-56.667-166.667-207.334-250-452.001-250-63.333 0-143.833 18.833-241.5 56.5s-175.167 56.5-232.5 56.5c-42.667 0-92-13.333-148-40s-93-40-111-40c-34.667 0-64.5 12.167-89.5 36.5S164-27.669 164 4.998c0 28 16.333 58.667 49 92 48 49.333 78.667 84.333 92 105 32.667 52.667 49 116 49 190 0 56-16.667 150.667-50 284-34-1.333-73.667-2-119-2-125.333 0-188 42.333-188 127 0 34 12 63.167 36 87.5s54.333 36.5 91 36.5c12 0 30.333-.667 55-2s43-2 55-2h30v16c-2 182 47.333 335.667 148 461 113.333 141.333 270 212 470 212 112.667 0 216.667-23.333 312-70 122-60.667 183-145 183-253 0-34.667-13.5-63.5-40.5-86.5s-57.833-34.5-92.5-34.5c-44 0-77.333 17.333-100 52-37.333 56.667-61 89.334-71 98.001-43.333 34.667-111.333 52-204 52-114 0-201.667-42.667-263-128-56-77.333-84-178-84-302 69.333 5.333 133.333 8 192 8 38.667 0 96.667-1.833 174-5.5s135.333-5.5 174-5.5c36.667 0 67.334-11.833 92.001-35.5s37-53.167 37-88.5-12.333-64.666-37-87.999-55.334-35-92.001-35c-38.667 0-96.667 2-174 6s-135.333 6-174 6c-42.667 0-93.667-2-153-6 34-136 51-236.667 51-302 0-63.333-8.333-124-25-182z"/><glyph glyph-name="currency" unicode="¤" d="M1191 1011c-51.333-31.333-122.333-72.002-213-122.002 8-21.333 13.833-44.166 17.5-68.499s5.5-49.833 5.5-76.5c0-28.667-5.167-58-15.5-88s-26.166-60.667-47.499-92c142-117.333 213-201.333 213-252 0-35.333-14.5-66.166-43.5-92.499s-62.167-39.5-99.5-39.5c-35.333 0-71.666 16.333-108.999 49l-85 87c-31.333 30-58.333 53-81 69-18-4.667-37-8.167-57-10.5s-41-3.5-63-3.5c-34.667 0-69.167 5.167-103.5 15.5s-68.833 25.5-103.5 45.5l-156-167c-30.667-32.667-65.667-49-105-49-38 0-71.333 12.833-100 38.5s-43 56.5-43 92.5c0 30 16.333 64.667 49 104l85 86c34.667 36 60.667 65 78 87-10.667 23.333-18.667 47.5-24 72.5s-8 50.5-8 76.5c0 32 5 62.833 15 92.5s25 57.834 45 84.501c-120.667 117.333-181 197-181 239 0 36 14.5 66.667 43.5 92s62.5 38 100.5 38c32 0 60.667-10.667 86-32l64-65c27.333-26 67.333-66.667 120-122 27.333 6.667 56 11.667 86 15s61.333 5 94 5c15.333 0 33.666-3 54.999-9s45.666-15 72.999-27c197.333 112.667 309 169 335 169 38 0 70.667-13.833 98-41.5s41-58.834 41-93.501c0-44-22-79.667-66-107zM621 859.998c-40 0-76.668-9.5-110.001-28.5s-50-38.5-50-58.5c0-43.333 14.333-77.5 43-102.5s66.334-37.5 113.001-37.5c29.333 0 55 13.667 77 41 19.333 24 29 47.333 29 70 0 38.667-8.5 67.667-25.5 87s-42.5 29-76.5 29z"/><glyph glyph-name="yen" unicode="¥" d="M481 620l-63.003 88.999c-10.667.667-79 7-205 19-75.333 7.333-113 46-113 116 0 74.667 41.333 112 124 112 12.667 0 27.667-.333 45-1-146.667 232-220 360.667-220 386 0 32.667 13 60.334 39 83.001s55.333 34 88 34c42.667 0 76.667-18.667 102-56 56-81.333 97.667-148.333 125-201 32.667-62.667 68.334-124.334 107.001-185.001l106-166c64.667 76.667 142 205 232 385 20 32 47.333 80 82 144 22 48.667 59.333 73 112 73 32.667 0 61.334-10.333 86.001-31 26.667-22.667 40-50.667 40-84 0-30-66-155.667-198-377 12 1.333 24.333 2 37 2 35.333 0 64.666-11.167 88-33.5s35-50.166 35-83.499-11.668-61.166-35-83.499-52.667-33.5-88-33.5c-22.667 0-53-2.667-91-8-44.667-6-75-9.667-91-11-20.667-23.333-50.334-59-89-107 32-.667 57.666-1 77-1 12.666 0 31.5 1.833 56.5 5.5s43.5 5.5 55.5 5.5c35.332 0 64.332-12 87-36s34-51.667 34-83c0-82.667-69.668-124-209-124-16 0-51 1.333-105 4v-93l1-60c0-18 1.5-43.833 4.5-77.5s4.5-59.5 4.5-77.5c0-33.333-11.5-61.333-34.5-84s-52.168-34-87.5-34-64.667 11.333-88 34-35 50.667-35 84c0 20-1 50-3 90s-3 70-3 90v136c-112 8-173.667 13.333-185 16C230.666 414.334 192.333 451.667 191 509c-.667 48 18.333 81 57 99 28.667 13.333 68.667 18.333 120 15l55-3h58z"/><glyph glyph-name="brokenbar" unicode="¦" horiz-adv-x="863" d="M449 1712c36 0 65.5-11.667 88.5-35s34.5-53 34.5-89V935c0-100.667-43.333-151-130-151-84 0-126 51.333-126 154v650c0 35.333 13.167 64.833 39.5 88.5S413 1712 449 1712zm0-1145c36 0 65.5-11.667 88.5-35s34.5-53 34.5-89v-653c0-100.667-43.333-151-130-151-84 0-126 51.333-126 154v650c0 35.333 13.167 64.833 39.5 88.5S413 567 449 567z"/><glyph glyph-name="section" unicode="§" horiz-adv-x="1300" d="M1066 518c48-65.333 72.003-137.666 72.003-216.999 0-128-52.667-225.667-158-293-88.667-56.667-200.334-85-335.001-85-160 0-290 32-390 96-118.667 76.667-178 189.667-178 339 0 36 12.167 65.667 36.5 89s55.166 35 92.499 35c51.333 0 86.666-21.667 105.999-65l35-124c34-99.333 131-149 291-149 74.667 0 130.5 12.5 167.5 37.5s55.5 62.167 55.5 111.5c0 80-78.667 137.667-236 173-160.667 36-266.667 73.333-318 112-82 62-123 167.333-123 316 0 67.333 35.333 136 106 206-22 44-38.667 82.333-50 115s-17 60-17 82c0 112.667 50.667 200.667 152 264 84.667 53.333 184.667 80 300 80 168 0 305.667-55 413-165 29.333-30 44-62.333 44-97 0-32-11.667-60.667-35-86s-52.666-38-88-38c-28 0-77 25.167-147 75.5s-131.332 75.5-184 75.5c-46.666 0-89.333-10-128-30-41.333-21.333-62-47.333-62-78s15-59.334 45-86.001 74.667-51.334 134-74.001l280-90c136-56 204-167 204-333 0-27.333-8.333-61.666-25-102.999-18-44.667-38-76-60-94zM882.003 634c6.667 42 10 75.001 10 99.001 0 52-62.667 103-188 153l-271 100c-6-7.333-14-25-24-53s-15-45.667-15-53c0-65.333 45-116 135-152 11.333-4 86-23.667 224-59 30.667-6.667 73.667-18.334 129-35.001z"/><glyph glyph-name="dieresis" unicode="¨" horiz-adv-x="1139" d="M809 1164c-39.333 0-76.333 10.668-111 32.001-41.333 25.333-62 57.333-62 96 0 93.333 69.333 140 208 140 36 0 71.667-12 107-36 40.667-27.333 61-60 61-98 0-44.667-22.667-79.334-68-104.001-37.333-20-82.333-30-135-30zm-431 0c-124 0-186.001 47.332-186.001 141.999 0 32 20.667 62 62 90 38.667 26 76.334 39 113.001 39 128.667 0 192.667-48 192-144 0-33.333-23.333-63.666-70-90.999-40.667-24-77.667-36-111-36z"/><glyph glyph-name="copyright" unicode="©" horiz-adv-x="1629" d="M818 251c-240.667-2.667-426.667 49.001-558 155.001-140 112.667-210 281.667-210 507 0 182.667 86.833 346.167 260.5 490.5s371.167 216.5 592.5 216.5c205.333 0 368-62.667 488-188 114-118.667 171-272.334 171-461.001 0-165.333-71-323.333-213-474-152.667-162-329.667-244-531-246zm126 1121c-192 1.333-347-42.667-465-132-114-85.333-171-194.333-171-327 0-140.667 42-249 126-325 74.667-67.333 171.667-101 291-101 145.333 0 275.666 45.667 390.999 137 124.667 98.667 187 220.667 187 366 0 116-28.333 207-85 273-61.333 72-152.666 108.333-273.999 109zM812 604.001c-103.333-2-193.332 21.001-269.999 69.001-87.333 55.333-131 130.666-131 225.999 0 112.667 54.667 205.667 164 279 97.333 65.333 204 98 320 98 118 0 177-37.333 177-112 0-66.667-31.333-100-94-100-6.667 0-16.5 1.667-29.5 5s-22.833 5-29.5 5c-68.667 0-131.667-18.333-189-55-54.667-34.667-81.334-70.667-80.001-108 2.667-67.333 51-101 145-101 41.333 0 89.5 17.667 144.5 53s95.167 53 120.5 53c55.333 0 83-35.333 83-106 0-59.333-36.333-109-109-149-66-36.667-140-55.667-222-57z"/><glyph glyph-name="ordfeminine" unicode="ª" d="M745 1006c-78.667-65.333-171.667-98.001-279-98.001-92 0-173 50-243 150-60 86.667-90 168.667-90 246 0 100 42.167 188 126.5 264s183.166 113.667 296.499 113c110-.667 178.667-3 206-7 84-11.333 141.667-39.666 173-84.999 21.333-20 34-45.333 38-76 14.667-114 31.334-277.667 50.001-491 2-40.667-12-73.334-42-98.001-26.667-22-59.334-33-98.001-33-35.333 0-65.666 9.667-90.999 29-28 20.667-43.667 49.334-47 86.001zm-204 423c-29.333 2-58.167-10.832-86.5-38.499s-42.5-56.5-42.5-86.5c0-26 4-53.333 12-82 10-38 23.667-57 41-57 117.333 1.333 188 89 212 263-30-.667-75.333-.334-136 .999z"/><glyph glyph-name="guillemotleft" unicode="«" horiz-adv-x="1308" d="M1257 835c-56.667-54.667-144.334-134.666-263.001-239.999 50.667-48.667 128.667-119 234-211 32.667-26 49-56 49-90 0-32-12.833-60.333-38.5-85s-56.167-37-91.5-37c-37.333 0-84 23.667-140 71l-116 113c-63.333 60.667-122.666 100.667-177.999 120-67.333 23.333-101 60-101 110 0 46.667 30 83.167 90 109.5s126.667 74.833 200 145.5c100.667 97.333 161 153.666 181 168.999 28 21.333 56.667 32 86 32 35.333 0 66-12.167 92-36.5s39-52.5 39-84.5c0-31.333-14.333-60-43-86zm-603 20.001c-56.667-54.667-144.667-134.666-264-239.999 50.667-48.667 128.667-119 234-211 32.667-26 49-56 49-90 0-32-12.667-60.333-38-85s-55.666-37-90.999-37c-37.333 0-84 23.667-140 71l-116 112c-62.667 60-122.334 100-179.001 120-67.333 23.333-101 60.333-101 111 0 46 30 82.167 90 108.5s126.667 75.166 200 146.499C399.333 958.334 460 1014.667 480 1030c26.667 20.667 55 31 85 31 35.333 0 66-12.167 92-36.5s39-52.5 39-84.5c0-31.333-14-59.666-42-84.999z"/><glyph glyph-name="logicalnot" unicode="¬" d="M1090 299c0-32-12.331-58.502-36.998-79.502s-55.667-31.5-93-31.5-68.166 10.5-92.499 31.5-36.5 47.5-36.5 79.5c0 89.333-.333 163.333-1 222-264-11.333-425-17-483-17-47.333 0-89.333 8-126 24-46 20.667-69 50.334-69 89.001 0 52.667 21.333 96.334 64 131.001 38.667 32 82 48 130 48s119 1.167 213 3.5 164.667 3.5 212 3.5c13.333 0 33.666.667 60.999 2s48 2 62 2c45.333 0 89.666-18.333 132.999-55 45.333-38.667 68.666-81.667 69.999-129 .667-24.667-.333-78.667-3-162-2.667-90.667-4-144.667-4-162z"/><glyph glyph-name="hyphenminus" unicode="­" d="M874 431c-92-6.667-255.666-10.002-490.999-10.002-41.333 0-77.666 9.333-108.999 28-36.667 22.667-55 53.334-55 92.001s18.333 69.334 55 92.001c31.333 19.333 67.666 29 108.999 29 52.667 0 131.667 1.5 237 4.5s184.333 4.5 237 4.5c41.333 0 77.666-8.333 108.999-25 40-21.333 60-53 60-95 0-72.667-50.667-112.667-152-120z"/><glyph glyph-name="registered" unicode="®" horiz-adv-x="1629" d="M769 207c-208.667 0-378.001 53.334-508.001 160.001-140 115.333-210 275.666-210 480.999 0 242 73.667 431.667 221 569 153.333 142.667 372.333 214 657 214 186.667 0 343.334-70.667 470.001-212 120-133.333 180-288 180-464 0-218.667-87-401-261-547-160.667-134-343.667-201-549-201zm142.999 1181c-200.667 0-351.335-44.999-452.002-134.999s-151-225-151-405c0-134 43.667-235 131-303 79.333-62.667 189-94 329-94 136.667 0 259.334 43.667 368.001 131 120 97.333 180.333 220.666 181 369.999.667 117.333-36.666 218.333-111.999 303-78.667 88.667-176.667 133-294 133zm-54.001-563.998c26-10.667 75.336-38.667 148.003-84 28-20.667 44-33.334 48-38.001 12-12.667 18-29.667 18-51-.667-63.333-32-95-94-95-58 0-116 22-174 66-16.667 12.667-65.334 58.334-146.001 137.001-12-68-22.667-112.333-32-133-22-44-58.333-65.333-109-64-31.333.667-56.333 20.334-75 59.001-16.667 33.333-25 70.666-25 111.999 0 102 24.333 238.333 73 409 11.333 40 45.666 79.667 102.999 119s114.666 60.333 171.999 63c22 1.333 42.333 2 61 2 223.333 0 335-81.333 335-244 0-92-31-157.333-93-196-37.333-24-107.333-44.667-210-62zM781.001 1176l-51 .001c-13.333-64.667-27.333-137.334-42-218.001 175.333 8 263 57 263 147 0 53.333-56.667 77-170 71z"/><glyph glyph-name="overscore" unicode="¯" horiz-adv-x="1284" d="M-75 1703v186h1438v-186H-75z"/><glyph glyph-name="degree" unicode="°" d="M587 974c-114.667 0-206.002 37-274.002 111-62 67.333-93 150.333-93 249 0 100 39.333 183.333 118 250 74.667 64 163.667 96 267 96 114.667 0 208.834-34.833 282.501-104.5s110.5-157.167 110.5-262.5c0-96.667-42.667-178-128-244-81.333-63.333-175.666-95-282.999-95zm17.998 500c-40 0-75.332-13-105.999-39-33.333-28-50-61.667-50-101 0-43.333 11.667-79.333 35-108 25.333-30.667 59.666-46 102.999-46 48 0 90.167 13.167 126.5 39.5s54.5 57.5 54.5 93.5c0 50-14.667 89.333-44 118s-69 43-119 43z"/><glyph glyph-name="plusminus" unicode="±" d="M972 508c-8 0-20.164 1.168-36.497 3.501s-28.5 3.5-36.5 3.5c-17.333 0-44-.667-80-2-33.333-.667-59.666-1-79-1l1-34c0-84.667-4-141.334-12-170.001-19.332-66-62.332-99-129-99-38 0-68 12.667-90 38-19.332 22.667-29 50.667-29 84 0-4.667-.666 54-2 176-50-2.667-93.666-4-131-4-47.332 0-89.332 9-126 27-46 22.667-69 55-69 97 0 54 21.334 89 64 105 23.334 8.667 67 13 131 13 37.334 0 80.667 1.333 130 4 0 6-.333 18.333-1 37s-1 33.667-1 45c0 143.333 45.333 215 136 215 35.333 0 66-11.333 92-34s39-51 39-85c0-11.333-1.167-28.333-3.5-51s-3.5-40-3.5-52v-71c14.667-.667 26.667-1 36-1 13.333 0 33.666.833 60.999 2.5S880.668 757 894 757c136 0 204-42 204-126 0-32.667-11.333-61-34-85-24.667-25.333-55.334-38-92.001-38zm.003-629.999c-8 0-19.998 1.167-35.998 3.5s-28 3.5-36 3.5c-61.333 0-153.333-2.167-276-6.5s-214.667-6.5-276-6.5c-47.333 0-89.333 9-126 27-46 22.667-69 55-69 97 0 78.667 50.333 118 151 118 44 0 109.667 1.667 197 5s152.666 5 195.999 5c22 0 54.833.333 98.5 1s76.5 1 98.5 1c136 0 204-41.667 204-125 0-32.667-11.333-61-34-85-24.667-25.333-55.334-38-92.001-38z"/><glyph glyph-name="twosuperior" unicode="²" d="M840 912c-36-6-91.668-9.002-167.001-9.002-22.667 0-56.167.667-100.5 2s-77.833 2-100.5 2c-42.667 0-80 9-112 27-41.333 22.667-62 56.334-62 101.001 0 82.667 31.333 153.334 94 212.001 31.333 28.667 99 73 203 133 74 42.667 111 81 111 115 0 6.667-8.667 17.667-26 33s-30.666 23-39.999 23c-45.333 0-82.5-24.333-111.5-73s-64.833-73-107.5-73c-30.667 0-57.834 9.5-81.501 28.5s-35.5 43.5-35.5 73.5c0 72 40.333 132 121 180 69.333 40.667 142.333 61 219 61 72.667 0 139.334-25.833 200.001-77.5s91-110.167 91-175.5c0-104-36-183.667-108-239l-227-142c46-1.333 71.333-2 76-2 22 0 54.5 3 97.5 9s74.833 9 95.5 9c32.667 0 60-11 82-33 20-20.667 30-45 30-73 0-58.667-47-96-141-112z"/><glyph glyph-name="threesuperior" unicode="³" d="M561 830c-53.333 0-103.666 9.336-150.999 28.003-62.667 24.667-94 59.334-94 104 0 29.334 11 55.667 33 79s49 35 81 35c14.667 0 36.334-4.167 65.001-12.5s50.667-12.5 66-12.5c92.667 0 139 12.333 139 37 0 54-20 84.333-60 91-40.667 4.667-81 9-121 13-42.667 14.667-64 47-64 97 0 41.333 18 71.666 54 90.999 9.333 5.333 42.666 16 99.999 32 36 10.667 54 25.667 54 45 0 28.667-37.667 43-113 43-9.333 0-23.333-2.833-42-8.5s-33-8.5-43-8.5c-28.667 0-53 8.667-73 26s-30 40.666-30 69.999c0 48.667 23.333 86 70 112 36 20 75.333 30 118 30 89.333 0 165.333-19.333 228-58 76.667-48 115-116.667 115-206 0-52.667-14.667-100-44-142 53.333-52.667 80-128.334 80-227.001 0-89.333-44-157.333-132-204-68.667-36-147.334-54-236.001-54z"/><glyph glyph-name="acute" unicode="´" horiz-adv-x="1139" d="M520 1341c-54.667-60-98.001-101.669-130.001-125.002-26-19.333-54.667-29-86-29-35.333 0-66 11.333-92 34s-39 49-39 79c0 24.667 14 51.667 42 81l73 68c71.333 78 113.333 122.667 126 134 60.667 54.667 114.334 82 161.001 82 35.333 0 65.833-11.667 91.5-35s38.5-49.666 38.5-78.999c0-34-17.833-63.167-53.5-87.5S572 1398.333 520 1341z"/><glyph glyph-name="mu1" unicode="µ" d="M1189 763l-56.997-200-89-409c-4-28.667-11.333-71.667-22-129-8.667-35.333-27.834-64.5-57.501-87.5S899.668-97 861-97c-55.333 0-91.666 25-109 75-90-30.667-180.332-46-271-46-46 0-87 4.667-123 14-41.332-119.333-75-209-101-269-24-55.333-65-83-123-83-36 0-68 11.667-96 35s-42 53-42 89c0 20 26.668 100.333 80 241 54.668 144 84.668 232.333 90 265 2 28.667 5.668 71 11 127 26 238 75 441 147 609 30.668 70.667 81 106 151 106 33.334 0 61.334-9.667 84-29 25.334-20.667 38-47.667 38-81 0-30.667-13.332-82-40-154-32.666-88-51.333-141.333-56-160-38.667-168-58-303.667-58-407v-15c26.667-13.333 53.667-20 81-20 79.333 0 165.666 11.333 258.999 34l76 360c31.333 140 65 258 101 354 28.667 74.667 79.667 112 153 112 32 0 59.667-9 83-27 26.667-20 40-46.667 40-80 0-18.667-15.667-82-47-190z"/><glyph glyph-name="paragraph" unicode="¶" horiz-adv-x="1558" d="M1196-108c-28-50.667-66.333-76-115-76-34.667 0-65 11-91 33-28 24-42 53.333-42 88 0 13.333 2.667 28 8 44 49.333 150.667 98 357.667 146 621 50.667 275.333 76 484 76 626 0 32.667-5.167 81-15.5 145s-15.5 112-15.5 144c0 36 12.667 65.167 38 87.5s56.333 33.5 93 33.5c64 0 105.667-34 125-102 22-76.667 33-179.334 33-308.001 0-112.667-29-340.667-87-684C1287.667 182.666 1236.667-34.667 1196-108zm-160 1528c1.333-27.333 2-49.665 2-66.998 0-246-16.667-501-50-765-40.667-320.667-84.334-552.334-131.001-695.001-19.333-59.333-59.666-89-120.999-89-34.667 0-65 11-91 33-28 23.333-42 52.666-42 87.999 0 7.333 2 19 6 35 5.333 20.667 28.333 156 69 406h-16c-156.667 0-296.667 40.333-420 121C101.333 580.333 31 702.333 31 853c0 169.333 50.333 315.666 151 438.999 95.333 116.667 227.666 203.667 396.999 261 26.667 9.333 93.334 28 200.001 56 119.333 32 187.666 48 204.999 48 36.667 0 67.334-13.667 92.001-41 23.333-24.667 35-53.667 35-87 0-49.333-25-85.666-75-108.999zm-256-70c-156.667-39.333-273.999-94-351.999-164-92.667-82.667-139-193.667-139-333 0-71.333 41.333-130.333 124-177 74.667-42 157.667-63 249-63 17.333 0 39.666 3.667 66.999 11 34.667 197.333 52 407.333 52 630 0 32.667-.333 64.667-1 96z"/><glyph glyph-name="periodcentered" unicode="·" d="M618 581c-44.667 0-83.334 13.833-116.001 41.5s-49 58.834-49 93.501c0 35.333 16.333 67.166 49 95.499S573.333 854 618 854c47.333 0 86.333-13.333 117-40s46-59.334 46-98.001c0-35.333-16-66.666-48-93.999s-70.333-41-115-41z"/><glyph glyph-name="periodcentered" unicode="∙" d="M618 581c-44.667 0-83.334 13.833-116.001 41.5s-49 58.834-49 93.501c0 35.333 16.333 67.166 49 95.499S573.333 854 618 854c47.333 0 86.333-13.333 117-40s46-59.334 46-98.001c0-35.333-16-66.666-48-93.999s-70.333-41-115-41z"/><glyph glyph-name="cedilla" unicode="¸" horiz-adv-x="1139" d="M623-445c-64 0-126.333 13.335-187 40.002-73.333 32-110 73.333-110 124 0 54.667 36 82 108 82 26 0 56-7.167 90-21.5s63-21.5 87-21.5c19.333.667 33.833 4.667 43.5 12s14.5 18.333 14.5 33c0 17.333-5.333 32.666-16 45.999-11.333 13.333-28.333 24.333-51 33l-126 42c-44.667 20-67 49.667-67 89 0 27.333 10.5 51.166 31.5 71.499S488.333 115 521 115c90 0 175.333-30.333 256-91 85.333-64 128-136 128-216 0-78.667-24.5-140.5-73.5-185.5S713-445 623-445z"/><glyph glyph-name="onesuperior" unicode="¹" d="M840 857l-408 .003c-32.667 0-59.667 11-81 33s-32 48-32 78c0 43.333 17.333 71 52 83 18 6.667 52.667 10 104 10-3.333 0 11.667.333 45 1v333c-28.667-11.333-55.334-17-80.001-17-31.333 0-57.833 9.667-79.5 29s-32.5 44.666-32.5 75.999c0 37.333 14 66 42 86l87 49 95 65c44 27.333 76.667 41 98 41 66.667 0 100-38.667 100-116v-20c-.667-8-1-14-1-18v-508c64.667 1.333 107.667-.334 129-5.001 50.667-12 76-40.667 76-86 0-30.667-10.667-57.334-32-80.001S873.333 857 840 857z"/><glyph glyph-name="ordmasculine" unicode="º" d="M611 892c-128 0-235.333 45.667-322 137-77.333 81.333-116 169.333-116 264 0 99.333 50.833 192.5 152.5 279.5s210.834 129.833 327.501 128.5c93.333-.667 187.666-43 282.999-127 92.667-82 139-159 139-231 0-150-38.667-262.667-116-338S765.667 892 611 892zm14 548c-40 0-78.832-17.168-116.499-51.501s-56.5-66.166-56.5-95.499c0-42.667 17.167-80.167 51.5-112.5s74.5-48.5 120.5-48.5c47.333 0 88.333 22.333 123 67 32.667 42.667 49 90.667 49 144 0 19.333-14.333 39.333-43 60-34.667 24.667-77.334 37-128.001 37z"/><glyph glyph-name="guillemotright" unicode="»" horiz-adv-x="1308" d="M51 835c56.667-54.667 144.334-134.666 263.001-239.999-50.667-48.667-128.667-119-234-211-32.667-26-49-56-49-90 0-32 12.833-60.333 38.5-85s56.167-37 91.5-37c37.333 0 84 23.667 140 71l116 113c63.333 60.667 122.666 100.667 177.999 120 67.333 23.333 101 60 101 110 0 46.667-30 83.167-90 109.5s-126.667 74.833-200 145.5C305.333 938.334 245 994.667 225 1010c-28 21.333-56.667 32-86 32-35.333 0-66-12.167-92-36.5S8 953 8 921c0-31.333 14.333-60 43-86zm603 20.001c56.667-54.667 144.667-134.666 264-239.999-50.667-48.667-128.667-119-234-211-32.667-26-49-56-49-90 0-32 12.667-60.333 38-85s55.666-37 90.999-37c37.333 0 84 23.667 140 71l116 112c62.667 60 122.334 100 179.001 120 67.333 23.333 101 60.333 101 111 0 46-30 82.167-90 108.5s-126.667 75.166-200 146.499C908.667 958.334 848 1014.667 828 1030c-26.667 20.667-55 31-85 31-35.333 0-66-12.167-92-36.5S612 972 612 940c0-31.333 14-59.666 42-84.999z"/><glyph glyph-name="onequarter" unicode="¼" d="M840 857l-408 .003c-32.667 0-59.667 11-81 33s-32 48-32 78c0 43.333 17.333 71 52 83 18 6.667 52.667 10 104 10-3.333 0 11.667.333 45 1v333c-28.667-11.333-55.334-17-80.001-17-31.333 0-57.833 9.667-79.5 29s-32.5 44.666-32.5 75.999c0 37.333 14 66 42 86l87 49 95 65c44 27.333 76.667 41 98 41 66.667 0 100-38.667 100-116v-20c-.667-8-1-14-1-18v-508c64.667 1.333 107.667-.334 129-5.001 50.667-12 76-40.667 76-86 0-30.667-10.667-57.334-32-80.001S873.333 857 840 857zm249-321.997c-10.667 0-79.667 3.334-207 10.001-140 7.333-278.667 11-416 11-30 0-75.333-1-136-3s-106-3-136-3c-32 0-59.167 10.667-81.5 32S79 629.67 79 661.003c0 30.667 11.167 56.667 33.5 78s49.5 32 81.5 32c30 0 75.333 1 136 3s106 3 136 3c-14 0 169-4.667 549-14 128-3.333 192-42.333 192-117 0-34-11.333-61-34-81s-50.667-30-84-30zM892-163.996c-18 0-43.332 2-75.999 6 .667-59.333 1-100.666 1-123.999 0-46.667-5.833-76.334-17.5-89.001s-41.167-19-88.5-19c-39.333 0-65 31.333-77 94-4.667 26.667-7 74.667-7 144-213.333-12.667-320.333-19-321-19-34 0-62.5 10.5-85.5 31.5s-34.5 48.167-34.5 81.5c0 43.333 19 82 57 116 52.667 46.667 112.667 109.667 180 189l169 199c31.333 34.667 72.666 52 123.999 52 30.667 0 58.167-10.333 82.5-31s36.5-46.667 36.5-78c0-14-4.167-33.833-12.5-59.5s-12.5-45.5-12.5-59.5c0-58.667 1-139 3-241 122.667 1.333 184-34.667 184-108 0-56.667-35-85-105-85zm-468.999 206c60.667 0 128.667-.333 204-1l-3 182z"/><glyph glyph-name="onehalf" unicode="½" d="M825 856l-407.997-.001c-32.667 0-59.5 11.167-80.5 33.5s-31.5 48.5-31.5 78.5c0 42.667 17.333 70.334 52 83.001 17.333 6 51.666 9 102.999 9-2.667 0 12.666.333 45.999 1v334c-28.667-11.333-55.334-17-80.001-17-31.333 0-57.833 9.667-79.5 29s-32.5 44.666-32.5 75.999c0 37.333 14 66 42 86l86 49 96 65c44 27.333 76.667 41 98 41 46.667 0 76.667-18 90-54 6-17.333 9-52.666 9-105.999v-503c65.333 1.333 108.333-.334 129-5.001 50.667-11.333 76-39.666 76-84.999 0-30.667-10.667-57-32-79-22-24-49.667-36-83-36zm249-322.001c2.667 0-66 3.667-206 11s-278.667 11-416 11c-30 0-75.5-1-136.5-3s-106.5-3-136.5-3c-32 0-59.167 10.667-81.5 32S64 629.665 64 660.998c0 30.667 11.167 56.667 33.5 78s49.5 32 81.5 32c30 0 75.5 1 136.5 3s106.5 3 136.5 3c72 0 163.333-2 274-6 158-5.333 249.333-8.333 274-9 128.667-3.333 193-42.333 193-117 0-33.333-11.5-60.166-34.5-80.499s-51.167-30.5-84.5-30.5zm-247.997-933c-34.667-6-90.668-9-168.001-9-22.667 0-56.167.667-100.5 2s-77.833 2-100.5 2c-42 0-79.333 9.667-112 29-41.333 24-62 59.667-62 107 0 86.667 31.333 161 94 223 30.667 29.333 98.667 76 204 140 73.333 44.667 110 85 110 121 0 7.333-8.667 19-26 35s-30.666 24-39.999 24c-45.333 0-82.5-25.667-111.5-77s-64.833-77-107.5-77c-30.667 0-57.834 10.167-81.501 30.5s-35.5 46.166-35.5 77.499c0 76 40.333 139 121 189 69.333 43.333 142.333 65 219 65 72.667 0 139.334-27.167 200.001-81.5s91-116.166 91-185.499c0-109.333-36-193.333-108-252l-227-150c22-.667 47.333-1 76-1 22 0 54.667 3.167 98 9.5s75.333 9.5 96 9.5c32.667 0 60-11.667 82-35 20-22 30-48 30-78 0-62-47-101.333-141-118z"/><glyph glyph-name="threequarters" unicode="¾" d="M561 830c-53.333 0-103.666 9.336-150.999 28.003-62.667 24.667-94 59.334-94 104 0 29.334 11 55.667 33 79s49 35 81 35c14.667 0 36.334-4.167 65.001-12.5s50.667-12.5 66-12.5c92.667 0 139 12.333 139 37 0 54-20 84.333-60 91-40.667 4.667-81 9-121 13-42.667 14.667-64 47-64 97 0 41.333 18 71.666 54 90.999 9.333 5.333 42.666 16 99.999 32 36 10.667 54 25.667 54 45 0 28.667-37.667 43-113 43-9.333 0-23.333-2.833-42-8.5s-33-8.5-43-8.5c-28.667 0-53 8.667-73 26s-30 40.666-30 69.999c0 48.667 23.333 86 70 112 36 20 75.333 30 118 30 89.333 0 165.333-19.333 228-58 76.667-48 115-116.667 115-206 0-52.667-14.667-100-44-142 53.333-52.667 80-128.334 80-227.001 0-89.333-44-157.333-132-204-68.667-36-147.334-54-236.001-54zm513-295.997c16.667 0-52 3.667-206 11s-292.667 11-416 11c-30 0-75.5-1-136.5-3s-106.5-3-136.5-3c-32.667 0-60 10.5-82 31.5s-33 47.167-33 78.5 11 57.666 33 78.999 49.333 32 82 32c30 0 75.5 1 136.5 3s106.5 3 136.5 3c136 0 291.333-4.333 466-13 108.667-5.333 166-8.666 172-9.999 68.667-14.667 103-51 103-109 0-34-11.333-61-34-81s-51-30-85-30zm-196-698c-18 0-43.332 2-75.999 6 .667-59.333 1-100.666 1-123.999 0-46.667-6-76.334-18-89.001s-41.667-19-89-19c-39.333 0-65 31.333-77 94-4.667 26.667-7 74.667-7 144-213.333-12.667-320.333-19-321-19-34 0-62.333 10.333-85 31s-34 48-34 82c0 44 18.667 82.667 56 116 52.667 46.667 113 109.667 181 189l169 199c31.333 34.667 72.666 52 123.999 52 30.667 0 58-10.333 82-31s36-46.667 36-78c0-14-4.167-33.833-12.5-59.5s-12.5-45.5-12.5-59.5c0-24 1.333-104.333 4-241 122.667 1.333 184-34.667 184-108 0-56.667-35-85-105-85zm-469.999 206c60.667 0 128.667-.333 204-1l-3 182z"/><glyph glyph-name="questiondown" unicode="¿" horiz-adv-x="1159" d="M761 1273c-46 0-82 15.667-108 47-22 26.667-33 58.334-33 95.001 0 41.333 10.667 79.666 32 114.999 28 45.333 67 68 117 68 38 0 72.667-12 104-36 34-26.667 51-59.667 51-99 0-46-12.333-87-37-123-30-44.667-72-67-126-67zM653-72C508.333-72 377.333-18.667 260 88S84 316.667 84 454c0 100.667 31.667 188.334 95 263.001C217.667 762.334 288 819.667 390 889c105.333 72 178.333 130.333 219 175 31.333 34.667 66.333 52 105 52s72.167-13.667 100.5-41 42.5-59 42.5-95c0-53.333-42.667-113.333-128-180L490 632c-85.333-66-128-125.333-128-178 0-62 31.5-120.167 94.5-174.5S585 198 653 198c36 0 85.167 20.5 147.5 61.5S907 321 933 321c39.333 0 72.5-14.5 99.5-43.5s40.5-61.167 40.5-96.5c0-66.667-58.333-127.667-175-183-98-46.667-179.667-70-245-70z"/><glyph glyph-name="Agrave" unicode="À" horiz-adv-x="1498" d="M1290-30c-52.667 2-105.67 63.997-159.003 185.997-35.333 78.667-65.666 169.334-90.999 272.001-49.333-7.333-130-14.666-242-21.999-105.333-7.333-186-16-242-26-30.667-73.333-84-183.666-160-330.999-29.333-48-70-72-122-72-36.667 0-69.667 12.5-99 37.5s-44 56.833-44 95.5c0 34 48.667 149.333 146 346-9.333 20.667-13.333 40-12 58 2.667 32 35 57 97 75 94.667 164 200 334 316 510 166.667 252.667 269.334 379 308.001 379 73.333 0 122.333-44.333 147-133l63-321c40.667-192 90.334-411.667 149.001-659 4.667-18.667 21.667-62.667 51-132 24-57.333 36-100.333 36-129 0-38.667-14.5-71-43.5-97s-61.833-38.333-98.5-37zM916.997 995.997l-215-365.002c30 6.667 76.667 12 140 16 74.667 4.667 121.667 8.334 141 11.001-16 86.667-38 199.334-66 338.001zM1046 1638c-42.667 0-77.667 16.669-105 50.002l-96 123c-36 43.333-75.667 79.333-119 108-36.667 24-55 53.333-55 88 0 29.333 12.5 55.666 37.5 78.999s55.5 35 91.5 35c54.667 0 132-51.667 232-155 98-100.667 147-173.334 147-218.001 0-30.667-13.5-56.667-40.5-78s-57.833-32-92.5-32z"/><glyph glyph-name="Aacute" unicode="Á" horiz-adv-x="1498" d="M1290-30c-52.667 2-105.67 63.997-159.003 185.997-35.333 78.667-65.666 169.334-90.999 272.001-49.333-7.333-130-14.666-242-21.999-105.333-7.333-186-16-242-26-30.667-73.333-84-183.666-160-330.999-29.333-48-70-72-122-72-36.667 0-69.667 12.5-99 37.5s-44 56.833-44 95.5c0 34 48.667 149.333 146 346-9.333 20.667-13.333 40-12 58 2.667 32 35 57 97 75 94.667 164 200 334 316 510 166.667 252.667 269.334 379 308.001 379 73.333 0 122.333-44.333 147-133l63-321c40.667-192 90.334-411.667 149.001-659 4.667-18.667 21.667-62.667 51-132 24-57.333 36-100.333 36-129 0-38.667-14.5-71-43.5-97s-61.833-38.333-98.5-37zM916.997 995.997l-215-365.002c30 6.667 76.667 12 140 16 74.667 4.667 121.667 8.334 141 11.001-16 86.667-38 199.334-66 338.001zM1187 1784c-54.667-60-98.001-101.669-130.001-125.002-26-19.333-54.667-29-86-29-35.333 0-66 11.333-92 34s-39 49-39 79c0 24.667 14 51.667 42 81l73 68c71.333 78 113.333 122.667 126 134 60.667 54.667 114.334 82 161.001 82 35.333 0 65.833-11.667 91.5-35s38.5-49.666 38.5-78.999c0-34-17.833-63.167-53.5-87.5S1239 1841.333 1187 1784z"/><glyph glyph-name="Acircumflex" unicode="Â" horiz-adv-x="1498" d="M1290-30c-52.667 2-105.67 63.997-159.003 185.997-35.333 78.667-65.666 169.334-90.999 272.001-49.333-7.333-130-14.666-242-21.999-105.333-7.333-186-16-242-26-30.667-73.333-84-183.666-160-330.999-29.333-48-70-72-122-72-36.667 0-69.667 12.5-99 37.5s-44 56.833-44 95.5c0 34 48.667 149.333 146 346-9.333 20.667-13.333 40-12 58 2.667 32 35 57 97 75 94.667 164 200 334 316 510 166.667 252.667 269.334 379 308.001 379 73.333 0 122.333-44.333 147-133l63-321c40.667-192 90.334-411.667 149.001-659 4.667-18.667 21.667-62.667 51-132 24-57.333 36-100.333 36-129 0-38.667-14.5-71-43.5-97s-61.833-38.333-98.5-37zM916.997 995.997l-215-365.002c30 6.667 76.667 12 140 16 74.667 4.667 121.667 8.334 141 11.001-16 86.667-38 199.334-66 338.001zM1287 1653c-32.667 0-63.001 11.667-91.001 35l-218 200c-162-170-272-255-330-255-35.333 0-66 11.5-92 34.5s-39 49.833-39 80.5c0 30 14.333 57 43 81 35.333 30 136 126.667 302 290 26 25.333 56.333 38 91 38 44 0 93.333-20 148-60 19.333-14 60-49.333 122-106l160-148c24-23.333 36-48.666 36-75.999 0-30.667-13.167-57.334-39.5-80.001s-57.166-34-92.499-34z"/><glyph glyph-name="Atilde" unicode="Ã" horiz-adv-x="1498" d="M1290-30c-52.667 2-105.67 63.997-159.003 185.997-35.333 78.667-65.666 169.334-90.999 272.001-49.333-7.333-130-14.666-242-21.999-105.333-7.333-186-16-242-26-30.667-73.333-84-183.666-160-330.999-29.333-48-70-72-122-72-36.667 0-69.667 12.5-99 37.5s-44 56.833-44 95.5c0 34 48.667 149.333 146 346-9.333 20.667-13.333 40-12 58 2.667 32 35 57 97 75 94.667 164 200 334 316 510 166.667 252.667 269.334 379 308.001 379 73.333 0 122.333-44.333 147-133l63-321c40.667-192 90.334-411.667 149.001-659 4.667-18.667 21.667-62.667 51-132 24-57.333 36-100.333 36-129 0-38.667-14.5-71-43.5-97s-61.833-38.333-98.5-37zM916.997 995.997l-215-365.002c30 6.667 76.667 12 140 16 74.667 4.667 121.667 8.334 141 11.001-16 86.667-38 199.334-66 338.001zM1403 1691c-44.667-38-101.667-57.001-171-57.001-78 0-140.667 10.667-188 32-44 20-87.333 55.667-130 107-24 28.667-47 43-69 43-36.667 0-69-24.167-97-72.5s-64.667-72.5-110-72.5c-30.667 0-57.334 8.333-80.001 25-24.667 18-37 40.333-37 67 0 8.667 1.667 18 5 28 20.667 62 58.667 112.667 114 152 58.667 41.333 127 62 205 62 66.667 0 120.334-12.667 161.001-38 24-14.667 59.333-48 106-100 26.667-29.333 56.334-44 89.001-44 27.333 0 48.333 9.333 63 28l33 57c3.333 10.667 9.666 26.334 18.999 47.001 16 28.667 48 43 96 43 32.667 0 60-9 82-27s33-40.333 33-67c0-24.667-15.667-62.667-47-114-29.333-47.333-55-80.333-77-99z"/><glyph glyph-name="Adieresis" unicode="Ä" horiz-adv-x="1498" d="M1290-30c-52.667 2-105.67 63.997-159.003 185.997-35.333 78.667-65.666 169.334-90.999 272.001-49.333-7.333-130-14.666-242-21.999-105.333-7.333-186-16-242-26-30.667-73.333-84-183.666-160-330.999-29.333-48-70-72-122-72-36.667 0-69.667 12.5-99 37.5s-44 56.833-44 95.5c0 34 48.667 149.333 146 346-9.333 20.667-13.333 40-12 58 2.667 32 35 57 97 75 94.667 164 200 334 316 510 166.667 252.667 269.334 379 308.001 379 73.333 0 122.333-44.333 147-133l63-321c40.667-192 90.334-411.667 149.001-659 4.667-18.667 21.667-62.667 51-132 24-57.333 36-100.333 36-129 0-38.667-14.5-71-43.5-97s-61.833-38.333-98.5-37zM916.997 995.997l-215-365.002c30 6.667 76.667 12 140 16 74.667 4.667 121.667 8.334 141 11.001-16 86.667-38 199.334-66 338.001zM1219 1614c-39.333 0-76.333 10.668-111 32.001-41.333 25.333-62 57.333-62 96 0 93.333 69.333 140 208 140 36 0 71.667-12 107-36 40.667-27.333 61-60 61-98 0-44.667-22.667-79.334-68-104.001-37.333-20-82.333-30-135-30zm-431.003 0c-124 0-186.001 47.332-186.001 141.999 0 32 20.667 62 62 90 38.667 26 76.334 39 113.001 39 128.667 0 192.667-48 192-144 0-33.333-23.333-63.666-70-90.999-40.667-24-77.667-36-111-36z"/><glyph glyph-name="Aring" unicode="Å" horiz-adv-x="1498" d="M1290-30c-52.667 2-105.67 63.997-159.003 185.997-35.333 78.667-65.666 169.334-90.999 272.001-49.333-7.333-130-14.666-242-21.999-105.333-7.333-186-16-242-26-30.667-73.333-84-183.666-160-330.999-29.333-48-70-72-122-72-36.667 0-69.667 12.5-99 37.5s-44 56.833-44 95.5c0 34 48.667 149.333 146 346-9.333 20.667-13.333 40-12 58 2.667 32 35 57 97 75 94.667 164 200 334 316 510 166.667 252.667 269.334 379 308.001 379 73.333 0 122.333-44.333 147-133l63-321c40.667-192 90.334-411.667 149.001-659 4.667-18.667 21.667-62.667 51-132 24-57.333 36-100.333 36-129 0-38.667-14.5-71-43.5-97s-61.833-38.333-98.5-37zM916.997 995.997l-215-365.002c30 6.667 76.667 12 140 16 74.667 4.667 121.667 8.334 141 11.001-16 86.667-38 199.334-66 338.001zm74 433.003c-100-1.333-184.334 24.001-253.001 76.001-69.333 51.333-104 114.666-104 189.999 0 96 39.333 172 118 228 74 52 169 78 285 78 92.667 0 172.334-23.333 239.001-70 74.667-50.667 112-117.667 112-201 0-104.667-42.333-183-127-235-68.667-42.667-158.667-64.667-270-66zM1037 1800c-117.333 0-175.002-34.668-173.002-104.001.667-17.333 17.834-33.166 51.501-47.499S985.333 1627 1024 1627c44.667 0 78.167 8.667 100.5 26s33.5 43 33.5 77c0 20.667-11.5 37.5-34.5 50.5s-51.833 19.5-86.5 19.5z"/><glyph glyph-name="AE" unicode="Æ" horiz-adv-x="2226" d="M2118 1297c-11.333 0-24.999 2.002-40.999 6.002-121.333 30-226.666 45-315.999 45-50 0-103.667-4-161-12s-118.333-20-183-36c3.333-26.667 5-50.334 5-71.001 0-82.667-4.667-191-14-325 56.667 3.333 187 15.666 391 36.999 129.333 13.333 209.666 20 240.999 20 40.667 0 74.667-13 102-39s41-58.667 41-98c0-75.333-41.333-120.333-124-135-54-4-134.667-10.667-242-20-94.667-10.667-237.334-23.667-428.001-39-4-72.667-6-141-6-205 0-134 7-208 21-222 10-10 52.667-15 128-15 41.333 0 103.666 1.167 186.999 3.5s145.666 3.5 186.999 3.5c13.333 0 32.833 2 58.5 6s45.167 6 58.5 6c42 0 76.833-12.667 104.5-38s41.5-58.333 41.5-99c0-68.667-42.667-114.667-128-138-43.333-11.333-114-17.666-212-18.999-28 0-65.333.333-112 1-53.333.667-89 1-107 1-206 0-342.667 35-410 105-64.667 66.667-97 201.667-97 405 0 67.333 2 137.666 6 210.999-106.667-9.333-266.667-22.333-480-39-55.333-73.333-137-190.333-245-351-26-40.667-66.667-100.334-122-179.001-30-39.333-67.333-59-112-59-37.333 0-70.666 12.833-99.999 38.5s-44 56.834-44 93.501c0 24 8.333 49 25 75 208 324 389 572 543 744l310 374c154.667 170 280.667 255 378 255 28.667 0 55.667-8.333 81-25 77.333 19.333 150.833 33.833 220.5 43.5s135.5 14.5 197.5 14.5c180.667 0 315.667-19.667 405.001-59 60-26.667 90-68.667 90-126 0-36-12.667-67.667-38-95-27.333-29.333-60.666-44-100-44zm-976-90c-37.333-38-127.668-144.666-271.001-319.999 92 8 177.667 13.333 257 16 8.667 123.333 13.334 224.666 14.001 303.999z"/><glyph glyph-name="Ccedilla" unicode="Ç" horiz-adv-x="1267" d="M1104 1061c-38 0-69 11.667-93 35-14.667 14.667-29.667 38-45 70-13.333 27.333-23.666 43-30.999 47-8 3.333-35.667 5-83 5-84 0-181-66-291-198-154-184.667-231-357.334-231-518.001 0-71.333 23.667-133.333 71-186 48.667-54.667 107.667-82 177-82 64 0 130 17.667 198 53 24.667 12.667 76.667 45.667 156 99 52 35.333 91 53 117 53 39.333 0 72.666-14.167 99.999-42.5s41-60.833 41-97.5c0-47.333-48-103.666-144-168.999C968.667 76.667 886.667 33.334 800 .001c21.333-38 32-76 32-114 0-117.333-50.667-199-152-245-70.667-32-174.334-48-311.001-48-113.333 0-170 37.667-170 113 0 30.667 10.667 56.834 32 78.501s48.333 32.5 81 32.5c12.667 0 31.5-.667 56.5-2s43.833-2 56.5-2c58.667 0 96 1.667 112 5 43.333 9.333 65 32 65 68 0 27.333-34.333 52.666-103 75.999l-144 49c-101.333 56.667-177.5 126-228.5 208s-76.5 176.333-76.5 283c0 225.333 97.667 455.666 293 690.999 165.333 199.333 335 299 509 299 28 0 53.833-1 77.5-3s45.167-5.333 64.5-10c30.667 30 66 45 106 45 64.667 0 107.334-40.667 128.001-122 10-40 15-105 15-195 0-38-11.667-71-35-99-26-31.333-60.667-47-104-47z"/><glyph glyph-name="Egrave" unicode="È" horiz-adv-x="1279" d="M1109 1282c-13.333 0-27.33 2.003-41.996 6.003-108 29.333-213 44-315 44-50 0-103.667-4-161-12s-118.333-20-183-36c0-88.667-3-220.334-9-395.001 37.333 2.667 167.666 15 390.999 37 127.333 12.667 208 19 242 19 39.333 0 73-12.5 101-37.5s42-58.167 42-99.5c0-79.333-42.333-124.333-127-135-53.333-4-133-10.667-239-20-94.667-10.667-237.334-23.667-428.001-39-4.667-84.667-7-153-7-205 0-130.667 7.667-205 23-223 7.333-8.667 49.333-13 126-13 41.333 0 103.666 1 186.999 3s145.666 3 186.999 3c13.333 0 33 2 59 6s45.333 6 58 6c38.667 0 71.667-11 99-33 31.333-24.667 47-59.334 47-104.001 0-74.667-39-119.334-117-134.001-66.667-12.667-205-19-415-19-217.333 0-359 29.333-425 88C130.333 53.667 94 193.667 94 409c0 89.333 6.5 223.5 19.5 402.5S133 1124.333 133 1213c0 23.333-3.333 57.833-10 103.5s-10 80.167-10 103.5c0 101.333 46.667 152 140 152 29.333 0 56.333-8.333 81-25 77.333 19.333 150.833 33.833 220.5 43.5S690 1605 752 1605c168 0 302.333-19.333 403-58 61.333-23.333 92-65.666 92-127 0-34.666-12-65.333-36-92-26.667-30.667-60.667-46-102-46zm-316.996 465c-42.667 0-77.667 16.668-105 50.001l-96 123c-36 43.333-75.667 79.333-119 108-36.667 24-55 53.333-55 88 0 29.333 12.5 55.666 37.5 79 25 23.333 55.5 35 91.5 35 54.667 0 132-51.667 232-155 98-100.667 147-173.334 147-218.001 0-30.667-13.5-56.667-40.5-78s-57.833-32-92.5-32z"/><glyph glyph-name="Eacute" unicode="É" horiz-adv-x="1279" d="M1109 1282c-13.333 0-27.33 2.003-41.996 6.003-108 29.333-213 44-315 44-50 0-103.667-4-161-12s-118.333-20-183-36c0-88.667-3-220.334-9-395.001 37.333 2.667 167.666 15 390.999 37 127.333 12.667 208 19 242 19 39.333 0 73-12.5 101-37.5s42-58.167 42-99.5c0-79.333-42.333-124.333-127-135-53.333-4-133-10.667-239-20-94.667-10.667-237.334-23.667-428.001-39-4.667-84.667-7-153-7-205 0-130.667 7.667-205 23-223 7.333-8.667 49.333-13 126-13 41.333 0 103.666 1 186.999 3s145.666 3 186.999 3c13.333 0 33 2 59 6s45.333 6 58 6c38.667 0 71.667-11 99-33 31.333-24.667 47-59.334 47-104.001 0-74.667-39-119.334-117-134.001-66.667-12.667-205-19-415-19-217.333 0-359 29.333-425 88C130.333 53.667 94 193.667 94 409c0 89.333 6.5 223.5 19.5 402.5S133 1124.333 133 1213c0 23.333-3.333 57.833-10 103.5s-10 80.167-10 103.5c0 101.333 46.667 152 140 152 29.333 0 56.333-8.333 81-25 77.333 19.333 150.833 33.833 220.5 43.5S690 1605 752 1605c168 0 302.333-19.333 403-58 61.333-23.333 92-65.666 92-127 0-34.666-12-65.333-36-92-26.667-30.667-60.667-46-102-46zm-235.996 636c-54.667-60-98.001-101.668-130.001-125.001-26-19.333-54.667-29-86-29-35.333 0-66 11.333-92 34s-39 49-39 79c0 24.667 14 51.667 42 81l73 68c71.333 78 113.333 122.667 126 134 60.667 54.667 114.334 82 161.001 82 35.333 0 65.833-11.667 91.5-35s38.5-49.666 38.5-79c0-34-17.833-63.167-53.5-87.5s-79.5-65.166-131.5-122.499z"/><glyph glyph-name="Ecircumflex" unicode="Ê" horiz-adv-x="1279" d="M1109 1282c-13.333 0-27.33 2.003-41.996 6.003-108 29.333-213 44-315 44-50 0-103.667-4-161-12s-118.333-20-183-36c0-88.667-3-220.334-9-395.001 37.333 2.667 167.666 15 390.999 37 127.333 12.667 208 19 242 19 39.333 0 73-12.5 101-37.5s42-58.167 42-99.5c0-79.333-42.333-124.333-127-135-53.333-4-133-10.667-239-20-94.667-10.667-237.334-23.667-428.001-39-4.667-84.667-7-153-7-205 0-130.667 7.667-205 23-223 7.333-8.667 49.333-13 126-13 41.333 0 103.666 1 186.999 3s145.666 3 186.999 3c13.333 0 33 2 59 6s45.333 6 58 6c38.667 0 71.667-11 99-33 31.333-24.667 47-59.334 47-104.001 0-74.667-39-119.334-117-134.001-66.667-12.667-205-19-415-19-217.333 0-359 29.333-425 88C130.333 53.667 94 193.667 94 409c0 89.333 6.5 223.5 19.5 402.5S133 1124.333 133 1213c0 23.333-3.333 57.833-10 103.5s-10 80.167-10 103.5c0 101.333 46.667 152 140 152 29.333 0 56.333-8.333 81-25 77.333 19.333 150.833 33.833 220.5 43.5S690 1605 752 1605c168 0 302.333-19.333 403-58 61.333-23.333 92-65.666 92-127 0-34.666-12-65.333-36-92-26.667-30.667-60.667-46-102-46zm-84 471c-32.667 0-63.001 11.667-91.001 35l-218 200c-162-170-272-255-330-255-35.333 0-66 11.5-92 34.5s-39 49.833-39 80.5c0 30 14.333 57 43 81 35.333 30 136 126.667 302 290 26 25.333 56.333 38 91 38 44 0 93.333-20 148-60 19.333-14 60-49.333 122-106l160-148c24-23.333 36-48.666 36-75.999 0-30.667-13.167-57.334-39.5-80.001s-57.166-34-92.499-34z"/><glyph glyph-name="Edieresis" unicode="Ë" horiz-adv-x="1279" d="M1109 1282c-13.333 0-27.33 2.003-41.996 6.003-108 29.333-213 44-315 44-50 0-103.667-4-161-12s-118.333-20-183-36c0-88.667-3-220.334-9-395.001 37.333 2.667 167.666 15 390.999 37 127.333 12.667 208 19 242 19 39.333 0 73-12.5 101-37.5s42-58.167 42-99.5c0-79.333-42.333-124.333-127-135-53.333-4-133-10.667-239-20-94.667-10.667-237.334-23.667-428.001-39-4.667-84.667-7-153-7-205 0-130.667 7.667-205 23-223 7.333-8.667 49.333-13 126-13 41.333 0 103.666 1 186.999 3s145.666 3 186.999 3c13.333 0 33 2 59 6s45.333 6 58 6c38.667 0 71.667-11 99-33 31.333-24.667 47-59.334 47-104.001 0-74.667-39-119.334-117-134.001-66.667-12.667-205-19-415-19-217.333 0-359 29.333-425 88C130.333 53.667 94 193.667 94 409c0 89.333 6.5 223.5 19.5 402.5S133 1124.333 133 1213c0 23.333-3.333 57.833-10 103.5s-10 80.167-10 103.5c0 101.333 46.667 152 140 152 29.333 0 56.333-8.333 81-25 77.333 19.333 150.833 33.833 220.5 43.5S690 1605 752 1605c168 0 302.333-19.333 403-58 61.333-23.333 92-65.666 92-127 0-34.666-12-65.333-36-92-26.667-30.667-60.667-46-102-46zm-199.996 450c-39.333 0-76.333 10.668-111 32.001-41.333 25.333-62 57.333-62 96 0 93.333 69.333 140 208 140 36 0 71.667-12 107-36 40.667-27.333 61-60 61-98 0-44.667-22.667-79.334-68-104.001-37.333-20-82.333-30-135-30zm-431 0c-124 0-186.001 47.332-186.001 141.999 0 32 20.667 62 62 90 38.667 26 76.334 39 113.001 39 128.667 0 192.667-48 192-144 0-33.333-23.333-63.666-70-90.999-40.667-24-77.667-36-111-36z"/><glyph glyph-name="Igrave" unicode="Ì" horiz-adv-x="1119" d="M997 1182c-34.667 0-129.667 9.333-285 28-9.333-122.667-14-285.667-14-489l-1-449c88.667 2 179 3 271 3 40 0 73.167-13.333 99.5-40s39.5-58.667 39.5-96-13.167-69.166-39.5-95.499-59.5-39.5-99.5-39.5c-37.333 0-93.333-.833-168-2.5s-130.667-2.5-168-2.5c-44 0-110-5.833-198-17.5s-154-17.5-198-17.5c-40 0-73.167 13.167-99.5 39.5S97 61.667 97 99s13.167 69.333 39.5 96 59.5 40 99.5 40c45.333 0 105 5 179 15-1.333 78.667-2 229.334-2 452.001 0 181.333 6.667 354.333 20 519l-217-6c-40 0-73.5 13-100.5 39s-40.5 58.333-40.5 97c0 39.333 13.333 71.333 40 96 24.667 22.667 55 35.667 91 39 58.667 5.333 160.667 8 306 8 130.667 0 299-14 505-42 82-11.333 123-57.333 123-138 0-42.667-16.667-76.334-50-101.001-27.333-20.667-58.333-31-93-31zm-296 437c-42.667 0-77.667 16.669-105 50.002l-96 123c-36 43.333-75.667 79.333-119 108-36.667 24-55 53.333-55 88 0 29.333 12.5 55.666 37.5 78.999s55.5 35 91.5 35c54.667 0 132-51.667 232-155 98-100.667 147-173.334 147-218.001 0-30.667-13.5-56.667-40.5-78s-57.833-32-92.5-32z"/><glyph glyph-name="Iacute" unicode="Í" horiz-adv-x="1119" d="M957 1182c-34.667 0-129.667 9.333-285 28-9.333-122.667-14-285.667-14-489l-1-449c88.667 2 179 3 271 3 40 0 73.167-13.333 99.5-40s39.5-58.667 39.5-96-13.167-69.166-39.5-95.499-59.5-39.5-99.5-39.5c-37.333 0-93.333-.833-168-2.5s-130.667-2.5-168-2.5c-44 0-110-5.833-198-17.5s-154-17.5-198-17.5c-40 0-73.167 13.167-99.5 39.5S57 61.667 57 99s13.167 69.333 39.5 96 59.5 40 99.5 40c45.333 0 105 5 179 15-1.333 78.667-2 229.334-2 452.001 0 181.333 6.667 354.333 20 519l-217-6c-40 0-73.5 13-100.5 39s-40.5 58.333-40.5 97c0 39.333 13.333 71.333 40 96 24.667 22.667 55 35.667 91 39 58.667 5.333 160.667 8 306 8 130.667 0 299-14 505-42 82-11.333 123-57.333 123-138 0-42.667-16.667-76.334-50-101.001-27.333-20.667-58.333-31-93-31zm-277 602c-54.667-60-98.001-101.669-130.001-125.002-26-19.333-54.667-29-86-29-35.333 0-66 11.333-92 34s-39 49-39 79c0 24.667 14 51.667 42 81l73 68c71.333 78 113.333 122.667 126 134 60.667 54.667 114.334 82 161.001 82 35.333 0 65.833-11.667 91.5-35s38.5-49.666 38.5-78.999c0-34-17.833-63.167-53.5-87.5S732 1841.333 680 1784z"/><glyph glyph-name="Icircumflex" unicode="Î" horiz-adv-x="1119" d="M997 1182c-34.667 0-129.667 9.333-285 28-9.333-122.667-14-285.667-14-489l-1-449c88.667 2 179 3 271 3 40 0 73.167-13.333 99.5-40s39.5-58.667 39.5-96-13.167-69.166-39.5-95.499-59.5-39.5-99.5-39.5c-37.333 0-93.333-.833-168-2.5s-130.667-2.5-168-2.5c-44 0-110-5.833-198-17.5s-154-17.5-198-17.5c-40 0-73.167 13.167-99.5 39.5S97 61.667 97 99s13.167 69.333 39.5 96 59.5 40 99.5 40c45.333 0 105 5 179 15-1.333 78.667-2 229.334-2 452.001 0 181.333 6.667 354.333 20 519l-217-6c-40 0-73.5 13-100.5 39s-40.5 58.333-40.5 97c0 39.333 13.333 71.333 40 96 24.667 22.667 55 35.667 91 39 58.667 5.333 160.667 8 306 8 130.667 0 299-14 505-42 82-11.333 123-57.333 123-138 0-42.667-16.667-76.334-50-101.001-27.333-20.667-58.333-31-93-31zm-49 491c-32.667 0-63.001 11.667-91.001 35l-218 200c-162-170-272-255-330-255-35.333 0-66 11.5-92 34.5s-39 49.833-39 80.5c0 30 14.333 57 43 81 35.333 30 136 126.667 302 290 26 25.333 56.333 38 91 38 44 0 93.333-20 148-60 19.333-14 60-49.333 122-106l160-148c24-23.333 36-48.666 36-75.999 0-30.667-13.167-57.334-39.5-80.001s-57.166-34-92.499-34z"/><glyph glyph-name="Idieresis" unicode="Ï" horiz-adv-x="1119" d="M957 1182c-34.667 0-129.667 9.333-285 28-9.333-122.667-14-285.667-14-489l-1-449c88.667 2 179 3 271 3 40 0 73.167-13.333 99.5-40s39.5-58.667 39.5-96-13.167-69.166-39.5-95.499-59.5-39.5-99.5-39.5c-37.333 0-93.333-.833-168-2.5s-130.667-2.5-168-2.5c-44 0-110-5.833-198-17.5s-154-17.5-198-17.5c-40 0-73.167 13.167-99.5 39.5S57 61.667 57 99s13.167 69.333 39.5 96 59.5 40 99.5 40c45.333 0 105 5 179 15-1.333 78.667-2 229.334-2 452.001 0 181.333 6.667 354.333 20 519l-217-6c-40 0-73.5 13-100.5 39s-40.5 58.333-40.5 97c0 39.333 13.333 71.333 40 96 24.667 22.667 55 35.667 91 39 58.667 5.333 160.667 8 306 8 130.667 0 299-14 505-42 82-11.333 123-57.333 123-138 0-42.667-16.667-76.334-50-101.001-27.333-20.667-58.333-31-93-31zm-176 452c-39.333 0-76.333 10.668-111 32.001-41.333 25.333-62 57.333-62 96 0 93.333 69.333 140 208 140 36 0 71.667-12 107-36 40.667-27.333 61-60 61-98 0-44.667-22.667-79.334-68-104.001-37.333-20-82.333-30-135-30zm-431 0c-124 0-186.001 47.332-186.001 141.999 0 32 20.667 62 62 90 38.667 26 76.334 39 113.001 39 128.667 0 192.667-48 192-144 0-33.333-23.333-63.666-70-90.999-40.667-24-77.667-36-111-36z"/><glyph glyph-name="Eth" unicode="Ð" horiz-adv-x="1478" d="M282-10c-40 .667-71.502 13.502-94.502 38.502s-34.5 57.5-34.5 97.5v436c-18-.667-33.667-1-47-1-126.667 0-190 45-190 135s62.667 135 188 135c14 0 30.333-.333 49-1v562c0 38.667 18 75.667 54 111s73.333 53 112 53c20.667 0 76.667-21 168-63 114-52 175-79.333 183-82 207.333-76 376-176 506-300 160-152.667 240-325.334 240-518.001 0-116-28.667-226.833-86-332.5S1195.332 70.667 1097.999 8c-111.333-71.333-267-107-467-107C491.666-99 375.333-69.333 282-10zm145.998 1220l.003-381.999c18-.667 57.667-3.667 119-9 49.333-4 89-6 119-6 39.333 0 72.333-12.5 99-37.5s40-56.833 40-95.5-13.333-70.334-40-95.001-59.667-37-99-37c-30.667 0-70.334 2-119.001 6-62.667 4.667-102.334 7.334-119.001 8.001 1.333-75.333 1.333-188.666 0-339.999 68.667-34.667 136-52 202-52 143.333 0 246.666 20 309.999 60 59.333 37.333 106.5 88.666 141.5 153.999s52.5 133.666 52.5 204.999c0 156-83.333 290.333-250 403-76.667 52-228.667 124.667-456 218z"/><glyph glyph-name="Ntilde" unicode="Ñ" horiz-adv-x="1665" d="M1581 246c0-33.333-5.667-86.001-17-158.001-13.333-86-62-129-146-129-46.667 0-99.334 26.333-158.001 79-256.667 231.333-546.334 555.666-869.001 972.999-4-173.333-6-279.666-6-318.999 0-52.667 1.167-132 3.5-238s3.5-185.333 3.5-238c0-196.667-48-295-144-295-48.667 0-87.667 15-117 45-26 26.667-39 59-39 97 0 26.667 2.167 67 6.5 121s6.5 94.333 6.5 121c0 39.333 1.333 98.333 4 177s4 137.667 4 177c0 42-1 105.333-3 190s-3 148-3 190c0 40-4 99.667-12 179s-12 139-12 179 17.167 75.667 51.5 107 73.5 47 117.5 47c49.333 0 104-42.667 164-128 302.667-432 601.334-784.333 896.001-1057 .667 21.333 1 72 1 152 0 328.667-3.333 550.334-10 665.001-1.333 19.333-5.666 55.333-12.999 108-6.667 46.667-10 83.334-10 110.001 0 92 48.667 138 146 138 108.667 0 163-167.667 163-503 0-7.333-.667-60-2-158-4-338.667-6-549.334-6-632.001zm-368 1464c-44.667-38-101.667-57.001-171-57.001-78 0-140.667 10.667-188 32-44 20-87.333 55.667-130 107-24 28.667-47 43-69 43-36.667 0-69-24.167-97-72.5s-64.667-72.5-110-72.5c-30.667 0-57.334 8.333-80.001 25-24.667 18-37 40.333-37 67 0 8.667 1.667 18 5 28 20.667 62 58.667 112.667 114 152 58.667 41.333 127 62 205 62 66.667 0 120.334-12.667 161.001-38 24-14.667 59.333-48 106-100 26.667-29.333 56.334-44 89.001-44 27.333 0 48.333 9.333 63 28l33 57c3.333 10.667 9.666 26.334 18.999 47.001 16 28.667 48 43 96 43 32.667 0 60-9 82-27s33-40.333 33-67c0-24.667-15.667-62.667-47-114-29.333-47.333-55-80.333-77-99z"/><glyph glyph-name="Ograve" unicode="Ò" horiz-adv-x="1635" d="M842-61C644.667-61 476.668-4.334 338.001 108.999c-148 121.333-222 278.333-222 471 0 226.667 71 433.334 213 620.001 159.333 210 360 315 602 315 232.667 0 407-53.333 523-160s174-267 174-481c0-226.667-65.333-432-196-616C1281.334 45.333 1084.667-61 842-61zm89.001 1305c-148.667 0-276-71.999-382-215.999-99.333-134.667-149-284-149-448 0-110.667 43-200.667 129-270 82.667-66.667 187-100 313-100 146.667 0 269 72 367 216 90 131.333 135 280.666 135 447.999 0 140-31.333 237.333-94 292-60 52-166.333 78-319 78zM1184 1640c-42.667 0-77.667 16.669-105 50.002l-96 123c-36 43.333-75.667 79.333-119 108-36.667 24-55 53.333-55 88 0 29.333 12.5 55.666 37.5 78.999s55.5 35 91.5 35c54.667 0 132-51.667 232-155 98-100.667 147-173.334 147-218.001 0-30.667-13.5-56.667-40.5-78s-57.833-32-92.5-32z"/><glyph glyph-name="Oacute" unicode="Ó" horiz-adv-x="1635" d="M786-61C588.667-61 420.668-4.334 282.001 108.999c-148 121.333-222 278.333-222 471 0 226.667 71 433.334 213 620.001 159.333 210 360 315 602 315 232.667 0 407-53.333 523-160s174-267 174-481c0-226.667-65.333-432-196-616C1225.334 45.333 1028.667-61 786-61zm89.001 1305c-148.667 0-276-71.999-382-215.999-99.333-134.667-149-284-149-448 0-110.667 43-200.667 129-270 82.667-66.667 187-100 313-100 146.667 0 269 72 367 216 90 131.333 135 280.666 135 447.999 0 140-31.333 237.333-94 292-60 52-166.333 78-319 78zM1165 1790c-54.667-60-98.001-101.669-130.001-125.002-26-19.333-54.667-29-86-29-35.333 0-66 11.333-92 34s-39 49-39 79c0 24.667 14 51.667 42 81l73 68c71.333 78 113.333 122.667 126 134 60.667 54.667 114.334 82 161.001 82 35.333 0 65.833-11.667 91.5-35s38.5-49.666 38.5-78.999c0-34-17.833-63.167-53.5-87.5S1217 1847.333 1165 1790z"/><glyph glyph-name="Ocircumflex" unicode="Ô" horiz-adv-x="1635" d="M842-61C644.667-61 476.668-4.334 338.001 108.999c-148 121.333-222 278.333-222 471 0 226.667 71 433.334 213 620.001 159.333 210 360 315 602 315 232.667 0 407-53.333 523-160s174-267 174-481c0-226.667-65.333-432-196-616C1281.334 45.333 1084.667-61 842-61zm89.001 1305c-148.667 0-276-71.999-382-215.999-99.333-134.667-149-284-149-448 0-110.667 43-200.667 129-270 82.667-66.667 187-100 313-100 146.667 0 269 72 367 216 90 131.333 135 280.666 135 447.999 0 140-31.333 237.333-94 292-60 52-166.333 78-319 78zM1370 1628c-32.667 0-63.001 11.667-91.001 35l-218 200c-162-170-272-255-330-255-35.333 0-66 11.5-92 34.5s-39 49.833-39 80.5c0 30 14.333 57 43 81 35.333 30 136 126.667 302 290 26 25.333 56.333 38 91 38 44 0 93.333-20 148-60 19.333-14 60-49.333 122-106l160-148c24-23.333 36-48.666 36-75.999 0-30.667-13.167-57.334-39.5-80.001s-57.166-34-92.499-34z"/><glyph glyph-name="Otilde" unicode="Õ" horiz-adv-x="1635" d="M842-61C644.667-61 476.668-4.334 338.001 108.999c-148 121.333-222 278.333-222 471 0 226.667 71 433.334 213 620.001 159.333 210 360 315 602 315 232.667 0 407-53.333 523-160s174-267 174-481c0-226.667-65.333-432-196-616C1281.334 45.333 1084.667-61 842-61zm89.001 1305c-148.667 0-276-71.999-382-215.999-99.333-134.667-149-284-149-448 0-110.667 43-200.667 129-270 82.667-66.667 187-100 313-100 146.667 0 269 72 367 216 90 131.333 135 280.666 135 447.999 0 140-31.333 237.333-94 292-60 52-166.333 78-319 78zM1425 1693c-44.667-38-101.667-57.001-171-57.001-78 0-140.667 10.667-188 32-44 20-87.333 55.667-130 107-24 28.667-47 43-69 43-36.667 0-69-24.167-97-72.5s-64.667-72.5-110-72.5c-30.667 0-57.334 8.333-80.001 25-24.667 18-37 40.333-37 67 0 8.667 1.667 18 5 28 20.667 62 58.667 112.667 114 152 58.667 41.333 127 62 205 62 66.667 0 120.334-12.667 161.001-38 24-14.667 59.333-48 106-100 26.667-29.333 56.334-44 89.001-44 27.333 0 48.333 9.333 63 28l33 57c3.333 10.667 9.666 26.334 18.999 47.001 16 28.667 48 43 96 43 32.667 0 60-9 82-27s33-40.333 33-67c0-24.667-15.667-62.667-47-114-29.333-47.333-55-80.333-77-99z"/><glyph glyph-name="Odieresis" unicode="Ö" horiz-adv-x="1635" d="M786-61C588.667-61 420.668-4.334 282.001 108.999c-148 121.333-222 278.333-222 471 0 226.667 71 433.334 213 620.001 159.333 210 360 315 602 315 232.667 0 407-53.333 523-160s174-267 174-481c0-226.667-65.333-432-196-616C1225.334 45.333 1028.667-61 786-61zm89.001 1305c-148.667 0-276-71.999-382-215.999-99.333-134.667-149-284-149-448 0-110.667 43-200.667 129-270 82.667-66.667 187-100 313-100 146.667 0 269 72 367 216 90 131.333 135 280.666 135 447.999 0 140-31.333 237.333-94 292-60 52-166.333 78-319 78zM1159 1640c-39.333 0-76.333 10.668-111 32.001-41.333 25.333-62 57.333-62 96 0 93.333 69.333 140 208 140 36 0 71.667-12 107-36 40.667-27.333 61-60 61-98 0-44.667-22.667-79.334-68-104.001-37.333-20-82.333-30-135-30zm-430.999 0c-124 0-186.001 47.332-186.001 141.999 0 32 20.667 62 62 90 38.667 26 76.334 39 113.001 39 128.667 0 192.667-48 192-144 0-33.333-23.333-63.666-70-90.999-40.667-24-77.667-36-111-36z"/><glyph glyph-name="multiply" unicode="×" d="M981 766c-33.333-23.333-83.668-64.669-151.001-124.002 140-109.333 210-195 210-257 0-31.333-9.667-60-29-86-24-30.667-56-46-96-46-46 0-91 24.667-135 74-66 74-102 113-108 117l-118-131c-23.333-59.333-67.666-89-132.999-89-37.333 0-70 11.333-98 34s-42 51.667-42 87c0 43.333 17.333 83 52 119l89 94 33 50c-75.333 68.667-138.333 118.334-189 149.001-44 26.667-66 61.334-66 104.001 0 34 13.667 64.333 41 91s60 40 98 40c57.333 0 152-59.667 284-179 30 30 86.667 76.667 170 140l57.5 45c19.667 14.667 43.167 22 70.5 22 38 0 71.333-12.667 100-38s43-55.333 43-90c0-40.667-27.667-82.667-83-126z"/><glyph glyph-name="Oslash" unicode="Ø" horiz-adv-x="1635" d="M1599 1296c-12.667-14-35.668-37.334-69.001-70.001 48-92.667 72-210 72-352 0-231.333-66.667-439-200-623-151.333-209.333-346.666-314-585.999-314-168 0-317 43-447 129-96.667-104-160.667-156-192-156-35.333 0-66.5 12.5-93.5 37.5S43 1.999 43 35.999c0 30 51 96 153 198-70.667 102-106 217-106 345 0 230 72.333 438.667 217 626 160 207.333 359.667 311 599 311 192.667 0 344-34.667 454-104 90.667 86.667 149.667 130 177 130 34.667 0 65.667-11.667 93-35s41-52.333 41-87c0-29.333-24-70.666-72-123.999zm-693.001-52c-152 0-281-74.334-387-223.001-96.667-135.333-145-282.666-145-441.999 0-45.333 8.333-89 25-131l756 760c-57.333 24-140.333 36-249 36zM1307 1010c-67.333-62.667-150-144.667-248-246L816 514 570 266c72.667-38 154.667-57 246-57 150.667 0 274.667 74.667 372 224 86.667 132 130 279 130 441 0 54.667-3.667 100-11 136z"/><glyph glyph-name="Ugrave" unicode="Ù" horiz-adv-x="1509" d="M1154 173c-48.667-66-107.333-121.002-176-165.002-84-53.333-170.333-80-259-80-170 0-296.333 32.667-379 98-174.667 138-262 377.667-262 719 0 32.667 1.667 81.334 5 146.001s5 113.334 5 146.001c0 26 .667 64.833 2 116.5s2 90.5 2 116.5c0 53.333 9.667 103.666 29 150.999 26 62.667 62.333 94 109 94 36.667 0 69-12 97-36 30.667-25.333 46-58 46-98 0-38-.5-95.5-1.5-172.5s-1.5-134.833-1.5-173.5c0-32-1.667-80.333-5-145s-5-113-5-145c0-103.333 12-199.333 36-288 28-106 69-180 123-222 28-22 94.667-33.667 200-35 176-2.667 294.667 147.333 356 450 32 156.667 48 376.667 48 660 0 37.333 11 73.333 33 108 30 46 72.667 69 128 69 45.333 0 79.333-16.667 102-50 17.333-24.667 26-52 26-82 0-263.333-12.333-468.666-37-615.999-37.333-227.333-111-416-221-566zM910.001 1634c-42.667 0-77.667 16.669-105 50.002l-96 123c-36 43.333-75.667 79.333-119 108-36.667 24-55 53.333-55 88 0 29.333 12.5 55.666 37.5 78.999s55.5 35 91.5 35c54.667 0 132-51.667 232-155 98-100.667 147-173.334 147-218.001 0-30.667-13.5-56.667-40.5-78s-57.833-32-92.5-32z"/><glyph glyph-name="Uacute" unicode="Ú" horiz-adv-x="1509" d="M1154 173c-48.667-66-107.333-121.002-176-165.002-84-53.333-170.333-80-259-80-170 0-296.333 32.667-379 98-174.667 138-262 377.667-262 719 0 32.667 1.667 81.334 5 146.001s5 113.334 5 146.001c0 26 .667 64.833 2 116.5s2 90.5 2 116.5c0 53.333 9.667 103.666 29 150.999 26 62.667 62.333 94 109 94 36.667 0 69-12 97-36 30.667-25.333 46-58 46-98 0-38-.5-95.5-1.5-172.5s-1.5-134.833-1.5-173.5c0-32-1.667-80.333-5-145s-5-113-5-145c0-103.333 12-199.333 36-288 28-106 69-180 123-222 28-22 94.667-33.667 200-35 176-2.667 294.667 147.333 356 450 32 156.667 48 376.667 48 660 0 37.333 11 73.333 33 108 30 46 72.667 69 128 69 45.333 0 79.333-16.667 102-50 17.333-24.667 26-52 26-82 0-263.333-12.333-468.666-37-615.999-37.333-227.333-111-416-221-566zM953.001 1797C898.334 1737 855 1695.331 823 1671.998c-26-19.333-54.667-29-86-29-35.333 0-66 11.333-92 34s-39 49-39 79c0 24.667 14 51.667 42 81l73 68c71.333 78 113.333 122.667 126 134 60.667 54.667 114.334 82 161.001 82 35.333 0 65.833-11.667 91.5-35s38.5-49.666 38.5-78.999c0-34-17.833-63.167-53.5-87.5s-79.5-65.166-131.5-122.499z"/><glyph glyph-name="Ucircumflex" unicode="Û" horiz-adv-x="1509" d="M1154 173c-48.667-66-107.333-121.002-176-165.002-84-53.333-170.333-80-259-80-170 0-296.333 32.667-379 98-174.667 138-262 377.667-262 719 0 32.667 1.667 81.334 5 146.001s5 113.334 5 146.001c0 26 .667 64.833 2 116.5s2 90.5 2 116.5c0 53.333 9.667 103.666 29 150.999 26 62.667 62.333 94 109 94 36.667 0 69-12 97-36 30.667-25.333 46-58 46-98 0-38-.5-95.5-1.5-172.5s-1.5-134.833-1.5-173.5c0-32-1.667-80.333-5-145s-5-113-5-145c0-103.333 12-199.333 36-288 28-106 69-180 123-222 28-22 94.667-33.667 200-35 176-2.667 294.667 147.333 356 450 32 156.667 48 376.667 48 660 0 37.333 11 73.333 33 108 30 46 72.667 69 128 69 45.333 0 79.333-16.667 102-50 17.333-24.667 26-52 26-82 0-263.333-12.333-468.666-37-615.999-37.333-227.333-111-416-221-566zm-22 1469c-32.667 0-63.001 11.667-91.001 35l-218 200c-162-170-272-255-330-255-35.333 0-66 11.5-92 34.5s-39 49.833-39 80.5c0 30 14.333 57 43 81 35.333 30 136 126.667 302 290 26 25.333 56.333 38 91 38 44 0 93.333-20 148-60 19.333-14 60-49.333 122-106l160-148c24-23.333 36-48.666 36-75.999 0-30.667-13.167-57.334-39.5-80.001s-57.166-34-92.499-34z"/><glyph glyph-name="Udieresis" unicode="Ü" horiz-adv-x="1509" d="M1154 173c-48.667-66-107.333-121.002-176-165.002-84-53.333-170.333-80-259-80-170 0-296.333 32.667-379 98-174.667 138-262 377.667-262 719 0 32.667 1.667 81.334 5 146.001s5 113.334 5 146.001c0 26 .667 64.833 2 116.5s2 90.5 2 116.5c0 53.333 9.667 103.666 29 150.999 26 62.667 62.333 94 109 94 36.667 0 69-12 97-36 30.667-25.333 46-58 46-98 0-38-.5-95.5-1.5-172.5s-1.5-134.833-1.5-173.5c0-32-1.667-80.333-5-145s-5-113-5-145c0-103.333 12-199.333 36-288 28-106 69-180 123-222 28-22 94.667-33.667 200-35 176-2.667 294.667 147.333 356 450 32 156.667 48 376.667 48 660 0 37.333 11 73.333 33 108 30 46 72.667 69 128 69 45.333 0 79.333-16.667 102-50 17.333-24.667 26-52 26-82 0-263.333-12.333-468.666-37-615.999-37.333-227.333-111-416-221-566zM990.001 1617c-39.333 0-76.333 10.668-111 32.001-41.333 25.333-62 57.333-62 96 0 93.333 69.333 140 208 140 36 0 71.667-12 107-36 40.667-27.333 61-60 61-98 0-44.667-22.667-79.334-68-104.001-37.333-20-82.333-30-135-30zm-431 0c-124 0-186.001 47.332-186.001 141.999 0 32 20.667 62 62 90 38.667 26 76.334 39 113.001 39 128.667 0 192.667-48 192-144 0-33.333-23.333-63.666-70-90.999-40.667-24-77.667-36-111-36z"/><glyph glyph-name="Yacute" unicode="Ý" horiz-adv-x="1301" d="M1247 1234c-34-70-102.332-221.335-204.999-454.002-85.333-194.667-158-347.334-218-458.001-104-192-159.667-293.667-167-305-39.333-58-84.666-87-135.999-87-36.667 0-69 12-97 36-30.667 26.667-46 59.667-46 99 0 32.667 69.667 170 209 412-51.333 74-125 186.333-221 337l-317 501c-13.333 22.667-20 46.334-20 71.001 0 38.667 15 71.334 45 98.001 28 24.667 60.667 37 98 37 44 0 84-22.333 120-67l75-120 172-292C608.335 922.666 669.668 828.333 723.001 759l219 463 90 209c25.333 60 68.666 90 129.999 90 36.667 0 69-12 97-36 30.667-26 46-58.667 46-98 0-22.667-19.333-73.667-58-153zm-324.999 648C867.334 1822 824 1780.331 792 1756.998c-26-19.333-54.667-29-86-29-35.333 0-66 11.333-92 34s-39 49-39 79c0 24.667 14 51.667 42 81l73 68c71.333 78 113.333 122.667 126 134 60.667 54.667 114.334 82 161.001 82 35.333 0 65.833-11.667 91.5-35s38.5-49.666 38.5-78.999c0-34-17.833-63.167-53.5-87.5s-79.5-65.166-131.5-122.499z"/><glyph glyph-name="Thorn" unicode="Þ" horiz-adv-x="1066" d="M366 1361l124.002 6.003c107.333 5.333 218.666-26 333.999-94 151.333-90 227-215.667 227-377 0-170.667-67.667-306.334-203-407.001-120-88.667-263-133-429-133-28 0-59.667 3-95 9-.667-62.667-1-149.334-1-260.001 0-35.333-12.333-65.666-37-91s-56-38-94-38-69.5 12.668-94.5 38-37.5 55.667-37.5 91v279c0 94 6.333 225.667 19 395C92.334 962.334 99.667 1093.667 101 1173c-.667 27.333-1 70.666-1 129.999 0 72.667 6.667 126.334 20 161 22 58.668 65.333 87.668 130 87 79.333-.666 118-64 116-190zm103.002-250l-107 .001c-7.333-108.667-17.333-271.334-30-488.001 36-6 65-9 87-9 104 0 190.333 24.667 259 74 73.333 52 110 121.333 110 208 0 56.667-34.333 107-103 151-66 42.667-138 64-216 64z"/><glyph glyph-name="germandbls" unicode="ß" horiz-adv-x="1093" d="M625-77c-72.667 0-118.331 4.666-136.998 13.999-35.333 16.667-53 59-53 127 0 28 8 52.667 24 74 19.333 25.333 46.333 38 81 38 28 0 43.833.333 47.5 1s14.5 1 32.5 1c44.667 0 74.667 6.333 90 19 18 14.667 27 43.334 27 86.001 0 75.333-11.333 141.333-34 198s-57 104-103 142l-105 78c-39.333 34-59 70-59 108 0 42 40.5 97.167 121.5 165.5s121.5 126.833 121.5 175.5c0 54-8 94.333-24 121s-40.333 40-73 40c-70.667 0-122-40-154-120-18-46-31.333-116-40-210-12-129.333-18-271.666-18-426.999 0-38.667 1.167-97.167 3.5-175.5s3.5-136.833 3.5-175.5c0-108-4.333-181.333-13-220-20.667-93.333-67.334-140-140.001-140-36.667 0-68.334 11.333-95.001 34-28.667 24-43 54.333-43 91 0 8 .667 16.333 2 25 13.333 89.333 20 171.333 20 246 0 34 1.667 84.833 5 152.5s5 118.5 5 152.5c0 24.667-.333 61.667-1 111s-1 86.333-1 111c0 226.667 22.667 399.667 68 519 72.667 190 206.667 285 402 285 122 0 217.333-45.333 286-136 59.333-78.667 89-175.334 89-290.001 0-98-61.667-207.667-185-329 152.667-116 229-290 229-522 0-116.667-32.333-207-97-271-66.667-66-161-99-283-99z"/><glyph glyph-name="agrave" unicode="à" horiz-adv-x="1138" d="M965-66c-30.667 0-79.33 33.331-145.997 99.998-61.333-29.333-115.333-51.5-162-66.5s-86.334-22.5-119.001-22.5c-160.667 0-281.167 43-361.5 129s-120.5 214.667-120.5 386c0 160.667 59.333 298.167 178 412.5s260.667 171.5 426 171.5c63.333 0 136.666-18 219.999-54 100.667-43.333 151-93.666 151-150.999 0-24-7.667-45-23-63-6.667-26.667-11.834-60.167-15.501-100.5s-5.5-87.5-5.5-141.5c0-127.333 9-219 27-275 2-6 17.333-40.667 46-104 26-57.333 39-90 39-98 0-35.333-13.5-64.666-40.5-87.999s-58.167-35-93.5-35zM717.004 619.998c0 21.333 1.498 45.831 4.498 73.498s7.5 58.5 13.5 92.5c-13.333 6.667-25.166 11.5-35.499 14.5s-19.166 4.5-26.499 4.5c-90.667 0-170-35.5-238-106.5s-102-153.167-102-246.5c0-89.333 16-156.5 48-201.5s80-67.5 144-67.5c41.333 0 80.5 6.833 117.5 20.5s71.833 33.834 104.5 60.501c-20 158.667-30 277.334-30 356.001zM640.002 1171c-42.667 0-77.667 16.669-105 50.002l-96 123c-36 43.333-75.667 79.333-119 108-36.667 24-55 53.333-55 88 0 29.333 12.5 55.666 37.5 78.999s55.5 35 91.5 35c54.667 0 132-51.667 232-155 98-100.667 147-173.334 147-218.001 0-30.667-13.5-56.667-40.5-78s-57.833-32-92.5-32z"/><glyph glyph-name="aacute" unicode="á" horiz-adv-x="1138" d="M965-66c-30.667 0-79.33 33.331-145.997 99.998-61.333-29.333-115.333-51.5-162-66.5s-86.334-22.5-119.001-22.5c-160.667 0-281.167 43-361.5 129s-120.5 214.667-120.5 386c0 160.667 59.333 298.167 178 412.5s260.667 171.5 426 171.5c63.333 0 136.666-18 219.999-54 100.667-43.333 151-93.666 151-150.999 0-24-7.667-45-23-63-6.667-26.667-11.834-60.167-15.501-100.5s-5.5-87.5-5.5-141.5c0-127.333 9-219 27-275 2-6 17.333-40.667 46-104 26-57.333 39-90 39-98 0-35.333-13.5-64.666-40.5-87.999s-58.167-35-93.5-35zM717.004 619.998c0 21.333 1.498 45.831 4.498 73.498s7.5 58.5 13.5 92.5c-13.333 6.667-25.166 11.5-35.499 14.5s-19.166 4.5-26.499 4.5c-90.667 0-170-35.5-238-106.5s-102-153.167-102-246.5c0-89.333 16-156.5 48-201.5s80-67.5 144-67.5c41.333 0 80.5 6.833 117.5 20.5s71.833 33.834 104.5 60.501c-20 158.667-30 277.334-30 356.001zM784.002 1341c-54.667-60-98.001-101.669-130.001-125.002-26-19.333-54.667-29-86-29-35.333 0-66 11.333-92 34s-39 49-39 79c0 24.667 14 51.667 42 81l73 68c71.333 78 113.333 122.667 126 134 60.667 54.667 114.334 82 161.001 82 35.333 0 65.833-11.667 91.5-35s38.5-49.666 38.5-78.999c0-34-17.833-63.167-53.5-87.5s-79.5-65.166-131.5-122.499z"/><glyph glyph-name="acircumflex" unicode="â" horiz-adv-x="1138" d="M965-66c-30.667 0-79.33 33.331-145.997 99.998-61.333-29.333-115.333-51.5-162-66.5s-86.334-22.5-119.001-22.5c-160.667 0-281.167 43-361.5 129s-120.5 214.667-120.5 386c0 160.667 59.333 298.167 178 412.5s260.667 171.5 426 171.5c63.333 0 136.666-18 219.999-54 100.667-43.333 151-93.666 151-150.999 0-24-7.667-45-23-63-6.667-26.667-11.834-60.167-15.501-100.5s-5.5-87.5-5.5-141.5c0-127.333 9-219 27-275 2-6 17.333-40.667 46-104 26-57.333 39-90 39-98 0-35.333-13.5-64.666-40.5-87.999s-58.167-35-93.5-35zM717.004 619.998c0 21.333 1.498 45.831 4.498 73.498s7.5 58.5 13.5 92.5c-13.333 6.667-25.166 11.5-35.499 14.5s-19.166 4.5-26.499 4.5c-90.667 0-170-35.5-238-106.5s-102-153.167-102-246.5c0-89.333 16-156.5 48-201.5s80-67.5 144-67.5c41.333 0 80.5 6.833 117.5 20.5s71.833 33.834 104.5 60.501c-20 158.667-30 277.334-30 356.001zM921.002 1194c-32.667 0-63.001 11.667-91.001 35l-218 200c-162-170-272-255-330-255-35.333 0-66 11.5-92 34.5s-39 49.833-39 80.5c0 30 14.333 57 43 81 35.333 30 136 126.667 302 290 26 25.333 56.333 38 91 38 44 0 93.333-20 148-60 19.333-14 60-49.333 122-106l160-148c24-23.333 36-48.666 36-75.999 0-30.667-13.167-57.334-39.5-80.001s-57.166-34-92.499-34z"/><glyph glyph-name="atilde" unicode="ã" horiz-adv-x="1138" d="M965-66c-30.667 0-79.33 33.331-145.997 99.998-61.333-29.333-115.333-51.5-162-66.5s-86.334-22.5-119.001-22.5c-160.667 0-281.167 43-361.5 129s-120.5 214.667-120.5 386c0 160.667 59.333 298.167 178 412.5s260.667 171.5 426 171.5c63.333 0 136.666-18 219.999-54 100.667-43.333 151-93.666 151-150.999 0-24-7.667-45-23-63-6.667-26.667-11.834-60.167-15.501-100.5s-5.5-87.5-5.5-141.5c0-127.333 9-219 27-275 2-6 17.333-40.667 46-104 26-57.333 39-90 39-98 0-35.333-13.5-64.666-40.5-87.999s-58.167-35-93.5-35zM717.004 619.998c0 21.333 1.498 45.831 4.498 73.498s7.5 58.5 13.5 92.5c-13.333 6.667-25.166 11.5-35.499 14.5s-19.166 4.5-26.499 4.5c-90.667 0-170-35.5-238-106.5s-102-153.167-102-246.5c0-89.333 16-156.5 48-201.5s80-67.5 144-67.5c41.333 0 80.5 6.833 117.5 20.5s71.833 33.834 104.5 60.501c-20 158.667-30 277.334-30 356.001zM968.002 1220c-44.667-38-101.667-57.001-171-57.001-78 0-140.667 10.667-188 32-44 20-87.333 55.667-130 107-24 28.667-47 43-69 43-36.667 0-69-24.167-97-72.5s-64.667-72.5-110-72.5c-30.667 0-57.334 8.333-80.001 25-24.667 18-37 40.333-37 67 0 8.667 1.667 18 5 28 20.667 62 58.667 112.667 114 152 58.667 41.333 127 62 205 62 66.667 0 120.334-12.667 161.001-38 24-14.667 59.333-48 106-100 26.667-29.333 56.334-44 89.001-44 27.333 0 48.333 9.333 63 28l33 57c3.333 10.667 9.666 26.334 18.999 47.001 16 28.667 48 43 96 43 32.667 0 60-9 82-27s33-40.333 33-67c0-24.667-15.667-62.667-47-114-29.333-47.333-55-80.333-77-99z"/><glyph glyph-name="adieresis" unicode="ä" horiz-adv-x="1138" d="M965-66c-30.667 0-79.33 33.331-145.997 99.998-61.333-29.333-115.333-51.5-162-66.5s-86.334-22.5-119.001-22.5c-160.667 0-281.167 43-361.5 129s-120.5 214.667-120.5 386c0 160.667 59.333 298.167 178 412.5s260.667 171.5 426 171.5c63.333 0 136.666-18 219.999-54 100.667-43.333 151-93.666 151-150.999 0-24-7.667-45-23-63-6.667-26.667-11.834-60.167-15.501-100.5s-5.5-87.5-5.5-141.5c0-127.333 9-219 27-275 2-6 17.333-40.667 46-104 26-57.333 39-90 39-98 0-35.333-13.5-64.666-40.5-87.999s-58.167-35-93.5-35zM717.004 619.998c0 21.333 1.498 45.831 4.498 73.498s7.5 58.5 13.5 92.5c-13.333 6.667-25.166 11.5-35.499 14.5s-19.166 4.5-26.499 4.5c-90.667 0-170-35.5-238-106.5s-102-153.167-102-246.5c0-89.333 16-156.5 48-201.5s80-67.5 144-67.5c41.333 0 80.5 6.833 117.5 20.5s71.833 33.834 104.5 60.501c-20 158.667-30 277.334-30 356.001zM839.002 1164c-39.333 0-76.333 10.668-111 32.001-41.333 25.333-62 57.333-62 96 0 93.333 69.333 140 208 140 36 0 71.667-12 107-36 40.667-27.333 61-60 61-98 0-44.667-22.667-79.334-68-104.001-37.333-20-82.333-30-135-30zm-431 0c-124 0-186.001 47.332-186.001 141.999 0 32 20.667 62 62 90 38.667 26 76.334 39 113.001 39 128.667 0 192.667-48 192-144 0-33.333-23.333-63.666-70-90.999-40.667-24-77.667-36-111-36z"/><glyph glyph-name="aring" unicode="å" horiz-adv-x="1138" d="M965-66c-30.667 0-79.33 33.331-145.997 99.998-61.333-29.333-115.333-51.5-162-66.5s-86.334-22.5-119.001-22.5c-160.667 0-281.167 43-361.5 129s-120.5 214.667-120.5 386c0 160.667 59.333 298.167 178 412.5s260.667 171.5 426 171.5c63.333 0 136.666-18 219.999-54 100.667-43.333 151-93.666 151-150.999 0-24-7.667-45-23-63-6.667-26.667-11.834-60.167-15.501-100.5s-5.5-87.5-5.5-141.5c0-127.333 9-219 27-275 2-6 17.333-40.667 46-104 26-57.333 39-90 39-98 0-35.333-13.5-64.666-40.5-87.999s-58.167-35-93.5-35zM717.004 619.998c0 21.333 1.498 45.831 4.498 73.498s7.5 58.5 13.5 92.5c-13.333 6.667-25.166 11.5-35.499 14.5s-19.166 4.5-26.499 4.5c-90.667 0-170-35.5-238-106.5s-102-153.167-102-246.5c0-89.333 16-156.5 48-201.5s80-67.5 144-67.5c41.333 0 80.5 6.833 117.5 20.5s71.833 33.834 104.5 60.501c-20 158.667-30 277.334-30 356.001zM581.002 1186c-100-1.333-184.334 24.001-253.001 76.001-69.333 51.333-104 114.666-104 189.999 0 96 39.333 172 118 228 74 52 169 78 285 78 92.667 0 172.334-23.333 239.001-70 74.667-50.667 112-117.667 112-201 0-104.667-42.333-183-127-235-68.667-42.667-158.667-64.667-270-66zm45.999 371c-117.333 0-175.002-34.668-173.002-104.001.667-17.333 17.834-33.166 51.501-47.499s69.834-21.5 108.501-21.5c44.667 0 78.167 8.667 100.5 26s33.5 43 33.5 77c0 20.667-11.5 37.5-34.5 50.5s-51.833 19.5-86.5 19.5z"/><glyph glyph-name="ae" unicode="æ" horiz-adv-x="1867" d="M786 23c-39.333-24-78.168-42-116.501-54S593.333-49 556-49C399.333-49 271.333.667 172 100 75.333 196 27 317 27 463c0 157.333 63.667 292 191 404 124.667 110.667 271.334 166 440.001 166 72.667 0 157.667-16 255-48 20.667-6.667 37-26 49-58 90 78.667 199 118 327 118 112 0 206.333-18 283-54 104.667-49.333 157-127 157-233 0-74-41-139-123-195-35.333-24.667-110.333-62.334-225-113.001l-337-149c64-69.333 154.667-104 272-104 141.333 0 240 36 296 108 24 30.667 54.333 46 91 46 34 0 64.167-11.667 90.5-35s39.5-51.333 39.5-84c0-79.333-67.667-147.666-203-204.999C1517.334-21.667 1412.667-46 1316-46c-112 0-209 21-291 63-12.667-39.333-51-59-115-59-62 0-103.333 21.667-124 65zm503 779c-124 0-212.332-83-264.999-249 146 61.333 221.667 93 227 95 85.333 38.667 156.666 77.667 213.999 117-44 24.667-102.667 37-176 37zM727.999 391c0 163.333 6.335 294.332 19.002 392.999-26.667 13.333-42.334 20.5-47.001 21.5s-23.667 1.5-57 1.5c-92.667 0-172.5-36.5-239.5-109.5S303 542.332 303 450.999c0-70 25.667-132.667 77-188 52.667-57.333 114-86 184-86 37.333 0 71.166 5.833 101.499 17.5s57.5 28.834 81.5 51.501c-12.667 70.667-19 119-19 145z"/><glyph glyph-name="ccedilla" unicode="ç" horiz-adv-x="1052" d="M774-43c12-20.667 20.998-41.665 26.998-62.998s9-43 9-65c0-85.333-24.5-152.333-73.5-201s-118.5-73-208.5-73c-64 0-126.333 14.333-187 43-73.333 34.667-110 79.667-110 135 0 59.333 36 89 108 89 26 0 56-7.833 90-23.5s63-23.5 87-23.5c19.333.667 33.833 5.167 43.5 13.5s14.5 20.5 14.5 36.5c0 20.667-10.167 40-30.5 58s-51.166 34.667-92.499 50c-114 25.333-205.667 78-275 158-74 84.667-111 187.334-111 308.001 0 135.333 47 274.666 141 417.999 106.667 164 230.667 246 372 246 69.333 0 150.333-19 243-57 112.667-46 169-99.667 169-161 0-33.333-11.333-63-34-89-24.667-28-55.667-42-93-42-28.667 0-63.167 15.833-103.5 47.5s-100.833 47.5-181.5 47.5c-51.333 0-107-51.333-167-154-57.333-98.667-86-184-86-256 0-71.333 25.333-127.333 76-168 48-38.667 111.333-58 190-58 44.667 0 99.334 17.333 164.001 52s105.667 52 123 52c36 0 66.833-13.167 92.5-39.5s38.5-56.5 38.5-90.5c0-34.667-24.333-70.334-73-107.001C892.667 7.334 838.667-20.333 774-43z"/><glyph glyph-name="egrave" unicode="è" horiz-adv-x="1145" d="M606-46C446.667-46 316.334-8.001 215.001 67.999c-112 84-168 202.333-168 355 0 168.667 44.333 311.334 133 428.001 98.667 129.333 231.667 194 399 194 116 0 212.333-18.667 289-56 100.667-49.333 151-126 151-230 0-73.333-41-138.333-123-195-37.333-26-112.333-64-225-114l-337-149c32-34.667 70.667-60.667 116-78s97.333-26 156-26c89.333 0 165 18.333 227 55 55.333 32.667 99.666 49 132.999 49 69.333 0 104-33.667 104-101 0-76-55.667-138-167-186-93.333-40-192.333-60-297-60zm-27 848.999c-62 0-115-20.668-159-62.001s-79.333-103.333-106-186l225 97c90 40.667 161.667 78.334 215 113.001-44.667 25.333-103 38-175 38zM642 1178c-42.667 0-77.667 16.669-105 50.002l-96 123c-36 43.333-75.667 79.333-119 108-36.667 24-55 53.333-55 88 0 29.333 12.5 55.666 37.5 78.999s55.5 35 91.5 35c54.667 0 132-51.667 232-155 98-100.667 147-173.334 147-218.001 0-30.667-13.5-56.667-40.5-78s-57.833-32-92.5-32z"/><glyph glyph-name="eacute" unicode="é" horiz-adv-x="1145" d="M606-46C446.667-46 316.334-8.001 215.001 67.999c-112 84-168 202.333-168 355 0 168.667 44.333 311.334 133 428.001 98.667 129.333 231.667 194 399 194 116 0 212.333-18.667 289-56 100.667-49.333 151-126 151-230 0-73.333-41-138.333-123-195-37.333-26-112.333-64-225-114l-337-149c32-34.667 70.667-60.667 116-78s97.333-26 156-26c89.333 0 165 18.333 227 55 55.333 32.667 99.666 49 132.999 49 69.333 0 104-33.667 104-101 0-76-55.667-138-167-186-93.333-40-192.333-60-297-60zm-27 848.999c-62 0-115-20.668-159-62.001s-79.333-103.333-106-186l225 97c90 40.667 161.667 78.334 215 113.001-44.667 25.333-103 38-175 38zM717 1341c-54.667-60-98.001-101.669-130.001-125.002-26-19.333-54.667-29-86-29-35.333 0-66 11.333-92 34s-39 49-39 79c0 24.667 14 51.667 42 81l73 68c71.333 78 113.333 122.667 126 134 60.667 54.667 114.334 82 161.001 82 35.333 0 65.833-11.667 91.5-35s38.5-49.666 38.5-78.999c0-34-17.833-63.167-53.5-87.5S769 1398.333 717 1341z"/><glyph glyph-name="ecircumflex" unicode="ê" horiz-adv-x="1145" d="M606-46C446.667-46 316.334-8.001 215.001 67.999c-112 84-168 202.333-168 355 0 168.667 44.333 311.334 133 428.001 98.667 129.333 231.667 194 399 194 116 0 212.333-18.667 289-56 100.667-49.333 151-126 151-230 0-73.333-41-138.333-123-195-37.333-26-112.333-64-225-114l-337-149c32-34.667 70.667-60.667 116-78s97.333-26 156-26c89.333 0 165 18.333 227 55 55.333 32.667 99.666 49 132.999 49 69.333 0 104-33.667 104-101 0-76-55.667-138-167-186-93.333-40-192.333-60-297-60zm-27 848.999c-62 0-115-20.668-159-62.001s-79.333-103.333-106-186l225 97c90 40.667 161.667 78.334 215 113.001-44.667 25.333-103 38-175 38zM919 1186c-32.667 0-63.001 11.667-91.001 35l-218 200c-162-170-272-255-330-255-35.333 0-66 11.5-92 34.5s-39 49.833-39 80.5c0 30 14.333 57 43 81 35.333 30 136 126.667 302 290 26 25.333 56.333 38 91 38 44 0 93.333-20 148-60 19.333-14 60-49.333 122-106l160-148c24-23.333 36-48.666 36-75.999 0-30.667-13.167-57.334-39.5-80.001s-57.166-34-92.499-34z"/><glyph glyph-name="edieresis" unicode="ë" horiz-adv-x="1145" d="M606-46C446.667-46 316.334-8.001 215.001 67.999c-112 84-168 202.333-168 355 0 168.667 44.333 311.334 133 428.001 98.667 129.333 231.667 194 399 194 116 0 212.333-18.667 289-56 100.667-49.333 151-126 151-230 0-73.333-41-138.333-123-195-37.333-26-112.333-64-225-114l-337-149c32-34.667 70.667-60.667 116-78s97.333-26 156-26c89.333 0 165 18.333 227 55 55.333 32.667 99.666 49 132.999 49 69.333 0 104-33.667 104-101 0-76-55.667-138-167-186-93.333-40-192.333-60-297-60zm-27 848.999c-62 0-115-20.668-159-62.001s-79.333-103.333-106-186l225 97c90 40.667 161.667 78.334 215 113.001-44.667 25.333-103 38-175 38zM855 1261c-39.333 0-76.333 10.668-111 32.001-41.333 25.333-62 57.333-62 96 0 93.333 69.333 140 208 140 36 0 71.667-12 107-36 40.667-27.333 61-60 61-98 0-44.667-22.667-79.334-68-104.001-37.333-20-82.333-30-135-30zm-431 0c-124 0-186.001 47.332-186.001 141.999 0 32 20.667 62 62 90 38.667 26 76.334 39 113.001 39 128.667 0 192.667-48 192-144 0-33.333-23.333-63.666-70-90.999-40.667-24-77.667-36-111-36z"/><glyph glyph-name="igrave" unicode="ì" horiz-adv-x="574" d="M455 469c0-38 1.167-99 3.5-183s3.5-145 3.5-183c0-38.667-13-70.5-39-95.5S364-30 324-30s-73 12.5-99 37.5-39 56.833-39 95.5c0 38-1.167 99-3.5 183S179 431 179 469c0 59.333 3.333 133.666 10 222.999s10 163.666 10 222.999c0 38.667 13 70.5 39 95.5s59 37.5 99 37.5 73-12.5 99-37.5 39-56.833 39-95.5c0-59.333-3.333-133.666-10-222.999S455 528.333 455 469zm-55 709c-42.667 0-77.667 16.669-105 50.002l-96 123c-36 43.333-75.667 79.333-119 108-36.667 24-55 53.333-55 88 0 29.333 12.5 55.666 37.5 78.999s55.5 35 91.5 35c54.667 0 132-51.667 232-155 98-100.667 147-173.334 147-218.001 0-30.667-13.5-56.667-40.5-78s-57.833-32-92.5-32z"/><glyph glyph-name="iacute" unicode="í" horiz-adv-x="574" d="M455 469c0-38 1.167-99 3.5-183s3.5-145 3.5-183c0-38.667-13-70.5-39-95.5S364-30 324-30s-73 12.5-99 37.5-39 56.833-39 95.5c0 38-1.167 99-3.5 183S179 431 179 469c0 59.333 3.333 133.666 10 222.999s10 163.666 10 222.999c0 38.667 13 70.5 39 95.5s59 37.5 99 37.5 73-12.5 99-37.5 39-56.833 39-95.5c0-59.333-3.333-133.666-10-222.999S455 528.333 455 469zm-12 872c-54.667-60-98.001-101.669-130.001-125.002-26-19.333-54.667-29-86-29-35.333 0-66 11.333-92 34s-39 49-39 79c0 24.667 14 51.667 42 81l73 68c71.333 78 113.333 122.667 126 134 60.667 54.667 114.334 82 161.001 82 35.333 0 65.833-11.667 91.5-35s38.5-49.666 38.5-78.999c0-34-17.833-63.167-53.5-87.5S495 1398.333 443 1341z"/><glyph glyph-name="icircumflex" unicode="î" horiz-adv-x="574" d="M455 469c0-38 1.167-99 3.5-183s3.5-145 3.5-183c0-38.667-13-70.5-39-95.5S364-30 324-30s-73 12.5-99 37.5-39 56.833-39 95.5c0 38-1.167 99-3.5 183S179 431 179 469c0 59.333 3.333 133.666 10 222.999s10 163.666 10 222.999c0 38.667 13 70.5 39 95.5s59 37.5 99 37.5 73-12.5 99-37.5 39-56.833 39-95.5c0-59.333-3.333-133.666-10-222.999S455 528.333 455 469zm173 718c-32.667 0-63.001 11.667-91.001 35l-218 200c-162-170-272-255-330-255-35.333 0-66 11.5-92 34.5s-39 49.833-39 80.5c0 30 14.333 57 43 81 35.333 30 136 126.667 302 290 26 25.333 56.333 38 91 38 44 0 93.333-20 148-60 19.333-14 60-49.333 122-106l160-148c24-23.333 36-48.666 36-75.999 0-30.667-13.167-57.334-39.5-80.001s-57.166-34-92.499-34z"/><glyph glyph-name="idieresis" unicode="ï" horiz-adv-x="574" d="M415 469c0-38 1.167-99 3.5-183s3.5-145 3.5-183c0-38.667-13-70.5-39-95.5S324-30 284-30s-73 12.5-99 37.5-39 56.833-39 95.5c0 38-1.167 99-3.5 183S139 431 139 469c0 59.333 3.333 133.666 10 222.999s10 163.666 10 222.999c0 38.667 13 70.5 39 95.5s59 37.5 99 37.5 73-12.5 99-37.5 39-56.833 39-95.5c0-59.333-3.333-133.666-10-222.999S415 528.333 415 469zm93 695c-39.333 0-76.333 10.668-111 32.001-41.333 25.333-62 57.333-62 96 0 93.333 69.333 140 208 140 36 0 71.667-12 107-36 40.667-27.333 61-60 61-98 0-44.667-22.667-79.334-68-104.001-37.333-20-82.333-30-135-30zm-431 0c-124 0-186.001 47.332-186.001 141.999 0 32 20.667 62 62 90 38.667 26 76.334 39 113.001 39 128.667 0 192.667-48 192-144 0-33.333-23.333-63.666-70-90.999-40.667-24-77.667-36-111-36z"/><glyph glyph-name="eth" unicode="ð" horiz-adv-x="1042" d="M331 1260c-80 59.333-119.997 110.002-119.997 152.002 0 33.333 13 62.666 39 87.999s56.667 38 92 38c46 0 118.667-52.333 218-157 108 52 184 78 228 78 38.667 0 70.667-12 96-36s38-54.333 38-91c0-32.667-12-58.667-36-78-2.667-2-28.334-17-77.001-45-10-6-32.667-16-68-30l-16-6c165.333-241.333 248-447.333 248-618 0-158-33.667-290.333-101-397-84-132.667-208.333-199-373-199-112.667 0-210.334 44-293.001 132-78.667 84.667-118 180.334-118 287.001 0 136 47.667 256.667 143 362C320.334 839.335 434.667 906.668 574 942.001c-22 42.667-44.333 81.667-67 117-118.667-70-193.667-105-225-105-37.333 0-68.833 13.5-94.5 40.5s-38.5 57.5-38.5 91.5c0 39.333 21.667 75 65 107 10 7.333 49 29.666 117 66.999zm342.003-543.998c-26-6-65-17-117-33-140-52-210-153.667-210-305 0-41.333 16-80.5 48-117.5s67-55.5 105-55.5c144 0 216 116.667 216 350 0 32-14 85.667-42 161z"/><glyph glyph-name="ntilde" unicode="ñ" horiz-adv-x="1072" d="M890-71c-82 0-127.667 40.336-137 121.003l-28 207c-10 73.333-15 142.333-15 207 0 17.333 1.167 47 3.5 89s3.5 71.667 3.5 89c0 4.667.667 16.5 2 35.5s2 34.5 2 46.5c0 55.333-14.333 83-43 83-61.333 0-121.5-35.833-180.5-107.5s-105.167-162.5-138.5-272.5c-1.333-22-4.333-51.333-9-88-4-30-6-59.333-6-88 0-18.667 2.167-46.834 6.5-84.501s6.5-65.834 6.5-84.501c0-38-13.167-69.5-39.5-94.5s-59.5-37.5-99.5-37.5-73 12.5-99 37.5-39 56.5-39 94.5c0 18.667-2 46.834-6 84.501s-6 65.834-6 84.501c0 64 4.667 153 14 267s14 203 14 267c0 20-1.167 49.833-3.5 89.5s-3.5 69.167-3.5 88.5c0 37.333 13.5 68.166 40.5 92.499s60.167 36.5 99.5 36.5c87.333 0 134-52.333 140-157l1-11c97.333 98 200 147 308 147 126 0 213-52.667 261-158 32-70.667 48-176.334 48-317.001v-71c-.667-30.667-1-52.334-1-65.001 0-52 7.167-119 21.5-201S1029 110.333 1029 59c0-37.333-13.333-68.333-40-93s-59.667-37-99-37zm100 1311c-44.667-38-101.667-57.001-171-57.001-78 0-140.667 10.667-188 32-44 20-87.333 55.667-130 107-24 28.667-47 43-69 43-36.667 0-69-24.167-97-72.5s-64.667-72.5-110-72.5c-30.667 0-57.334 8.333-80.001 25-24.667 18-37 40.333-37 67 0 8.667 1.667 18 5 28 20.667 62 58.667 112.667 114 152 58.667 41.333 127 62 205 62 66.667 0 120.334-12.667 161.001-38 24-14.667 59.333-48 106-100 26.667-29.333 56.334-44 89.001-44 27.333 0 48.333 9.333 63 28l33 57c3.333 10.667 9.666 26.334 18.999 47.001 16 28.667 48 43 96 43 32.667 0 60-9 82-27s33-40.333 33-67c0-24.667-15.667-62.667-47-114-29.333-47.333-55-80.333-77-99z"/><glyph glyph-name="ograve" unicode="ò" horiz-adv-x="1077" d="M561-59C437.667-59 331.668-16.667 243.001 68c-97.333 92.667-148.333 216.334-153 371.001C85.334 586.334 125.667 717.667 211 833c101.333 136 242.333 204 423 204 133.333 0 239.333-53.333 318-160 70.667-96 106-215 106-357 0-154.667-41.333-286.667-124-396C841.333 2 717-59 561-59zm60.001 832c-82 .667-146.668-36.668-194.001-112.001-40-63.333-60-137.333-60-222 0-80 22.667-141.333 68-184 36-34 78-51 126-51 58 0 108.333 19.667 151 59 48.667 46 74.667 108.333 78 187C798.667 664.666 742.334 772.333 621.001 773zM756 1178c-42.667 0-77.667 16.669-105 50.002l-96 123c-36 43.333-75.667 79.333-119 108-36.667 24-55 53.333-55 88 0 29.333 12.5 55.666 37.5 78.999s55.5 35 91.5 35c54.667 0 132-51.667 232-155 98-100.667 147-173.334 147-218.001 0-30.667-13.5-56.667-40.5-78s-57.833-32-92.5-32z"/><glyph glyph-name="oacute" unicode="ó" horiz-adv-x="1077" d="M521-59C397.667-59 291.668-16.667 203.001 68c-97.333 92.667-148.333 216.334-153 371.001C45.334 586.334 85.667 717.667 171 833c101.333 136 242.333 204 423 204 133.333 0 239.333-53.333 318-160 70.667-96 106-215 106-357 0-154.667-41.333-286.667-124-396C801.333 2 677-59 521-59zm60.001 832c-82 .667-146.668-36.668-194.001-112.001-40-63.333-60-137.333-60-222 0-80 22.667-141.333 68-184 36-34 78-51 126-51 58 0 108.333 19.667 151 59 48.667 46 74.667 108.333 78 187C758.667 664.666 702.334 772.333 581.001 773zM699 1341c-54.667-60-98.001-101.669-130.001-125.002-26-19.333-54.667-29-86-29-35.333 0-66 11.333-92 34s-39 49-39 79c0 24.667 14 51.667 42 81l73 68c71.333 78 113.333 122.667 126 134 60.667 54.667 114.334 82 161.001 82 35.333 0 65.833-11.667 91.5-35s38.5-49.666 38.5-78.999c0-34-17.833-63.167-53.5-87.5S751 1398.333 699 1341z"/><glyph glyph-name="ocircumflex" unicode="ô" horiz-adv-x="1077" d="M561-59C437.667-59 331.668-16.667 243.001 68c-97.333 92.667-148.333 216.334-153 371.001C85.334 586.334 125.667 717.667 211 833c101.333 136 242.333 204 423 204 133.333 0 239.333-53.333 318-160 70.667-96 106-215 106-357 0-154.667-41.333-286.667-124-396C841.333 2 717-59 561-59zm60.001 832c-82 .667-146.668-36.668-194.001-112.001-40-63.333-60-137.333-60-222 0-80 22.667-141.333 68-184 36-34 78-51 126-51 58 0 108.333 19.667 151 59 48.667 46 74.667 108.333 78 187C798.667 664.666 742.334 772.333 621.001 773zM943 1186c-32.667 0-63.001 11.667-91.001 35l-218 200c-162-170-272-255-330-255-35.333 0-66 11.5-92 34.5s-39 49.833-39 80.5c0 30 14.333 57 43 81 35.333 30 136 126.667 302 290 26 25.333 56.333 38 91 38 44 0 93.333-20 148-60 19.333-14 60-49.333 122-106l160-148c24-23.333 36-48.666 36-75.999 0-30.667-13.167-57.334-39.5-80.001s-57.166-34-92.499-34z"/><glyph glyph-name="otilde" unicode="õ" horiz-adv-x="1077" d="M561-59C437.667-59 331.668-16.667 243.001 68c-97.333 92.667-148.333 216.334-153 371.001C85.334 586.334 125.667 717.667 211 833c101.333 136 242.333 204 423 204 133.333 0 239.333-53.333 318-160 70.667-96 106-215 106-357 0-154.667-41.333-286.667-124-396C841.333 2 717-59 561-59zm60.001 832c-82 .667-146.668-36.668-194.001-112.001-40-63.333-60-137.333-60-222 0-80 22.667-141.333 68-184 36-34 78-51 126-51 58 0 108.333 19.667 151 59 48.667 46 74.667 108.333 78 187C798.667 664.666 742.334 772.333 621.001 773zM1050 1240c-44.667-38-101.667-57.001-171-57.001-78 0-140.667 10.667-188 32-44 20-87.333 55.667-130 107-24 28.667-47 43-69 43-36.667 0-69-24.167-97-72.5s-64.667-72.5-110-72.5c-30.667 0-57.334 8.333-80.001 25-24.667 18-37 40.333-37 67 0 8.667 1.667 18 5 28 20.667 62 58.667 112.667 114 152 58.667 41.333 127 62 205 62 66.667 0 120.334-12.667 161.001-38 24-14.667 59.333-48 106-100 26.667-29.333 56.334-44 89.001-44 27.333 0 48.333 9.333 63 28l33 57c3.333 10.667 9.666 26.334 18.999 47.001 16 28.667 48 43 96 43 32.667 0 60-9 82-27s33-40.333 33-67c0-24.667-15.667-62.667-47-114-29.333-47.333-55-80.333-77-99z"/><glyph glyph-name="odieresis" unicode="ö" horiz-adv-x="1077" d="M521-59C397.667-59 291.668-16.667 203.001 68c-97.333 92.667-148.333 216.334-153 371.001C45.334 586.334 85.667 717.667 171 833c101.333 136 242.333 204 423 204 133.333 0 239.333-53.333 318-160 70.667-96 106-215 106-357 0-154.667-41.333-286.667-124-396C801.333 2 677-59 521-59zm60.001 832c-82 .667-146.668-36.668-194.001-112.001-40-63.333-60-137.333-60-222 0-80 22.667-141.333 68-184 36-34 78-51 126-51 58 0 108.333 19.667 151 59 48.667 46 74.667 108.333 78 187C758.667 664.666 702.334 772.333 581.001 773zM834 1164c-39.333 0-76.333 10.668-111 32.001-41.333 25.333-62 57.333-62 96 0 93.333 69.333 140 208 140 36 0 71.667-12 107-36 40.667-27.333 61-60 61-98 0-44.667-22.667-79.334-68-104.001-37.333-20-82.333-30-135-30zm-431 0c-124 0-186.001 47.332-186.001 141.999 0 32 20.667 62 62 90 38.667 26 76.334 39 113.001 39 128.667 0 192.667-48 192-144 0-33.333-23.333-63.666-70-90.999-40.667-24-77.667-36-111-36z"/><glyph glyph-name="divide" unicode="÷" d="M596 902c-37.333 0-68.334 11.333-93.001 34s-37 51-37 85c0 35.333 12.5 64 37.5 86s56.5 33 94.5 33c36.667 0 67.334-11.333 92.001-34s37-51 37-85c0-35.333-12.5-64-37.5-86s-56.167-33-93.5-33zm375.999-379c-8.667 0-21.002 1.167-37.002 3.5s-28 3.5-36 3.5c-61.333 0-153.166-2-275.499-6s-214.166-6-275.499-6c-48 0-90.333 9-127 27-45.333 22-68 53.667-68 95 0 52.667 21 87 63 103 24 8.667 68 13 132 13 38.667 0 97 2 175 6s136.667 6 176 6c8 0 20-.667 36-2s28.333-2 37-2c13.333 0 33.5.667 60.5 2s47.5 2 61.5 2c136 0 204-41 204-123 0-32-12-60.333-36-85s-54-37-90-37zM613.997 187c-36 0-66.5 11.667-91.5 35s-37.5 51.333-37.5 84 12.5 60.834 37.5 84.501 55.5 35.5 91.5 35.5c35.333 0 65.666-11.833 90.999-35.5s38-51.834 38-84.501-12.667-60.667-38-84-55.666-35-90.999-35z"/><glyph glyph-name="oslash" unicode="ø" horiz-adv-x="1092" d="M1068 944c0-17.333-5.999-34.999-17.999-52.999-18.667-28.667-44.667-62.667-78-102 36.667-80.667 55-170.334 55-269.001 0-154.667-41.333-286.667-124-396-92-122-216-183-372-183-102.667 0-194.667 30.333-276 91-25.333-28-47.333-51-66-69-22-21.333-44-32-66-32-24 0-45.333 9.167-64 27.5s-28 39.5-28 63.5c0 19.333 8 39 24 59 21.333 26.667 47 56.334 77 89.001-45.333 77.333-69.333 167-72 269-5.333 147.333 34.667 278.666 120 393.999C281.334 969 422.667 1037 604 1037c101.333 0 187.333-31.667 258-95 9.333 12 23.666 29.333 42.999 52 22.667 26 46 39 70 39 24.667 0 46.334-8.833 65.001-26.5s28-38.5 28-62.5zM686.001 742.001C660.668 762.668 629.002 773 591.002 773c-82.667.667-147.334-36.666-194.001-111.999-40-63.333-60-137.333-60-222 0-20 1.333-39 4-57l26 27zM760.002 450c1.333 40.667.668 77.001-1.999 109.001l-77-79-241-251c28.667-16.667 59-25 91-25 57.333 0 107.333 19.667 150 59 49.333 45.333 75.666 107.666 78.999 186.999z"/><glyph glyph-name="ugrave" unicode="ù" horiz-adv-x="1065" d="M1034 578c0-44.667.33-112 .997-202s1-157.333 1-202c0-14 1.167-34.833 3.5-62.5s3.5-48.5 3.5-62.5c0-37.333-13.5-68.166-40.5-92.499s-60.167-36.5-99.5-36.5c-55.333 0-95.666 25-120.999 75-85.333-31.333-173.666-47-264.999-47-94.667 0-174.334 20-239 60-72.668 46-116 113-130 201-26 166.667-39 315.667-39 447 0 86.667 10 185.667 30 297 13.332 75.333 58.332 113 135 113 38.666 0 71.666-12.167 99-36.5s41-55.166 41-92.499c0-29.333-4.834-75.333-14.5-138s-14.5-110.334-14.5-143.001c0-94 3.166-176.167 9.5-246.5s15.832-128.5 28.5-174.5c16.666-7.333 32.833-13 48.5-17s30.834-6 45.501-6c74 0 155.333 10.667 244 32 0 51.333-.333 109.666-1 174.999-1.333 78-2 134-2 168 0 136.667 6.333 254.667 19 354 10 79.333 55.333 119 136 119 39.333 0 73-12.333 101-37s41-55.667 39-93c-12.667-254-19-371.333-19-352zm-305.003 608c-42.667 0-77.667 16.669-105 50.002l-96 123c-36 43.333-75.667 79.333-119 108-36.667 24-55 53.333-55 88 0 29.333 12.5 55.666 37.5 78.999s55.5 35 91.5 35c54.667 0 132-51.667 232-155 98-100.667 147-173.334 147-218.001 0-30.667-13.5-56.667-40.5-78s-57.833-32-92.5-32z"/><glyph glyph-name="uacute" unicode="ú" horiz-adv-x="1065" d="M1034 578c0-44.667.33-112 .997-202s1-157.333 1-202c0-14 1.167-34.833 3.5-62.5s3.5-48.5 3.5-62.5c0-37.333-13.5-68.166-40.5-92.499s-60.167-36.5-99.5-36.5c-55.333 0-95.666 25-120.999 75-85.333-31.333-173.666-47-264.999-47-94.667 0-174.334 20-239 60-72.668 46-116 113-130 201-26 166.667-39 315.667-39 447 0 86.667 10 185.667 30 297 13.332 75.333 58.332 113 135 113 38.666 0 71.666-12.167 99-36.5s41-55.166 41-92.499c0-29.333-4.834-75.333-14.5-138s-14.5-110.334-14.5-143.001c0-94 3.166-176.167 9.5-246.5s15.832-128.5 28.5-174.5c16.666-7.333 32.833-13 48.5-17s30.834-6 45.501-6c74 0 155.333 10.667 244 32 0 51.333-.333 109.666-1 174.999-1.333 78-2 134-2 168 0 136.667 6.333 254.667 19 354 10 79.333 55.333 119 136 119 39.333 0 73-12.333 101-37s41-55.667 39-93c-12.667-254-19-371.333-19-352zm-214.003 763c-54.667-60-98.001-101.669-130.001-125.002-26-19.333-54.667-29-86-29-35.333 0-66 11.333-92 34s-39 49-39 79c0 24.667 14 51.667 42 81l73 68c71.333 78 113.333 122.667 126 134 60.667 54.667 114.334 82 161.001 82 35.333 0 65.833-11.667 91.5-35s38.5-49.666 38.5-78.999c0-34-17.833-63.167-53.5-87.5s-79.5-65.166-131.5-122.499z"/><glyph glyph-name="ucircumflex" unicode="û" horiz-adv-x="1065" d="M1034 578c0-44.667.33-112 .997-202s1-157.333 1-202c0-14 1.167-34.833 3.5-62.5s3.5-48.5 3.5-62.5c0-37.333-13.5-68.166-40.5-92.499s-60.167-36.5-99.5-36.5c-55.333 0-95.666 25-120.999 75-85.333-31.333-173.666-47-264.999-47-94.667 0-174.334 20-239 60-72.668 46-116 113-130 201-26 166.667-39 315.667-39 447 0 86.667 10 185.667 30 297 13.332 75.333 58.332 113 135 113 38.666 0 71.666-12.167 99-36.5s41-55.166 41-92.499c0-29.333-4.834-75.333-14.5-138s-14.5-110.334-14.5-143.001c0-94 3.166-176.167 9.5-246.5s15.832-128.5 28.5-174.5c16.666-7.333 32.833-13 48.5-17s30.834-6 45.501-6c74 0 155.333 10.667 244 32 0 51.333-.333 109.666-1 174.999-1.333 78-2 134-2 168 0 136.667 6.333 254.667 19 354 10 79.333 55.333 119 136 119 39.333 0 73-12.333 101-37s41-55.667 39-93c-12.667-254-19-371.333-19-352zm-72.003 608c-32.667 0-63.001 11.667-91.001 35l-218 200c-162-170-272-255-330-255-35.333 0-66 11.5-92 34.5s-39 49.833-39 80.5c0 30 14.333 57 43 81 35.333 30 136 126.667 302 290 26 25.333 56.333 38 91 38 44 0 93.333-20 148-60 19.333-14 60-49.333 122-106l160-148c24-23.333 36-48.666 36-75.999 0-30.667-13.167-57.334-39.5-80.001s-57.166-34-92.499-34z"/><glyph glyph-name="udieresis" unicode="ü" horiz-adv-x="1065" d="M1034 578c0-44.667.33-112 .997-202s1-157.333 1-202c0-14 1.167-34.833 3.5-62.5s3.5-48.5 3.5-62.5c0-37.333-13.5-68.166-40.5-92.499s-60.167-36.5-99.5-36.5c-55.333 0-95.666 25-120.999 75-85.333-31.333-173.666-47-264.999-47-94.667 0-174.334 20-239 60-72.668 46-116 113-130 201-26 166.667-39 315.667-39 447 0 86.667 10 185.667 30 297 13.332 75.333 58.332 113 135 113 38.666 0 71.666-12.167 99-36.5s41-55.166 41-92.499c0-29.333-4.834-75.333-14.5-138s-14.5-110.334-14.5-143.001c0-94 3.166-176.167 9.5-246.5s15.832-128.5 28.5-174.5c16.666-7.333 32.833-13 48.5-17s30.834-6 45.501-6c74 0 155.333 10.667 244 32 0 51.333-.333 109.666-1 174.999-1.333 78-2 134-2 168 0 136.667 6.333 254.667 19 354 10 79.333 55.333 119 136 119 39.333 0 73-12.333 101-37s41-55.667 39-93c-12.667-254-19-371.333-19-352zm-170.003 586c-39.333 0-76.333 10.668-111 32.001-41.333 25.333-62 57.333-62 96 0 93.333 69.333 140 208 140 36 0 71.667-12 107-36 40.667-27.333 61-60 61-98 0-44.667-22.667-79.334-68-104.001-37.333-20-82.333-30-135-30zm-431 0c-124 0-186.001 47.332-186.001 141.999 0 32 20.667 62 62 90 38.667 26 76.334 39 113.001 39 128.667 0 192.667-48 192-144 0-33.333-23.333-63.666-70-90.999-40.667-24-77.667-36-111-36z"/><glyph glyph-name="yacute" unicode="ý" horiz-adv-x="1132" d="M1096 845L751.001 131.999c-85.333-174-150.333-318.333-195-433-14-41.333-36-102.666-66-183.999-24-62.667-66.667-94-128-94-38 0-71.333 12.333-100 37s-43 55.667-43 93c0 62 70.667 245.667 212 551-73.333 144.667-189.666 357.667-348.999 639l-49 77c-18 30.667-27 58.667-27 84 0 36 14.333 67.667 43 95s61.667 41 99 41c44 0 78.333-16.333 103-49 94.667-126 205-315.667 331-569l130 286c47.333 99.333 93.666 186.666 138.999 261.999 28.667 48 68 72 118 72 37.333 0 70.666-12.667 99.999-38s44-56.333 44-93c0-19.333-5.667-40.666-17-63.999zm-452.999 496C588.334 1281 545 1239.331 513 1215.998c-26-19.333-54.667-29-86-29-35.333 0-66 11.333-92 34s-39 49-39 79c0 24.667 14 51.667 42 81l73 68c71.333 78 113.333 122.667 126 134 60.667 54.667 114.334 82 161.001 82 35.333 0 65.833-11.667 91.5-35s38.5-49.666 38.5-78.999c0-34-17.833-63.167-53.5-87.5s-79.5-65.166-131.5-122.499z"/><glyph glyph-name="thorn" unicode="þ" horiz-adv-x="1095" d="M564-55c-58 0-118.333 6.665-181 19.998l-1-411c0-38.667-13-70.834-39-96.501s-59-38.5-99-38.5-73 12.833-99 38.5-39 57.834-39 96.501c0 32 .667 157.333 2 376 1.333 163.333 1.333 296.333 0 399-2 146-6.667 271.333-14 376-14.667 212-22 404.333-22 577 0 56 12.333 104 37 144 28.667 45.333 67.334 68 116.001 68 37.333 0 68.5-12.667 93.5-38s37.5-56 37.5-92v-395c93.333 54 185.666 81 276.999 81 153.333 0 265.333-65.667 336-197 52.667-99.333 79-227.666 79-384.999 0-147.333-41.667-269.666-125-366.999C833.667-3 714-55 564-55zm69 834.998c-84.667 0-171.002-39.666-259.002-118.999 8-138.667 12-277.334 12-416.001 60.667-20 120-30 178-30 68.667 0 121.334 24.333 158.001 73 33.333 44.667 50 104.667 50 180 0 91.333-4 154.333-12 189-19.333 82-61.666 123-126.999 123z"/><glyph glyph-name="ydieresis" unicode="ÿ" horiz-adv-x="1132" d="M1096 845L751.001 131.999c-85.333-174-150.333-318.333-195-433-14-41.333-36-102.666-66-183.999-24-62.667-66.667-94-128-94-38 0-71.333 12.333-100 37s-43 55.667-43 93c0 62 70.667 245.667 212 551-73.333 144.667-189.666 357.667-348.999 639l-49 77c-18 30.667-27 58.667-27 84 0 36 14.333 67.667 43 95s61.667 41 99 41c44 0 78.333-16.333 103-49 94.667-126 205-315.667 331-569l130 286c47.333 99.333 93.666 186.666 138.999 261.999 28.667 48 68 72 118 72 37.333 0 70.666-12.667 99.999-38s44-56.333 44-93c0-19.333-5.667-40.666-17-63.999zm-298.999 319c-39.333 0-76.333 10.668-111 32.001-41.333 25.333-62 57.333-62 96 0 93.333 69.333 140 208 140 36 0 71.667-12 107-36 40.667-27.333 61-60 61-98 0-44.667-22.667-79.334-68-104.001-37.333-20-82.333-30-135-30zm-431 0c-124 0-186.001 47.332-186.001 141.999 0 32 20.667 62 62 90 38.667 26 76.334 39 113.001 39 128.667 0 192.667-48 192-144 0-33.333-23.333-63.666-70-90.999-40.667-24-77.667-36-111-36z"/><glyph glyph-name="Amacron" unicode="Ā" horiz-adv-x="1498" d="M1250-30c-52.667 2-105.67 63.997-159.003 185.997-35.333 78.667-65.666 169.334-90.999 272.001-49.333-7.333-130-14.666-242-21.999-105.333-7.333-186-16-242-26-30.667-73.333-84-183.666-160-330.999-29.333-48-70-72-122-72-36.667 0-69.667 12.5-99 37.5s-44 56.833-44 95.5c0 34 48.667 149.333 146 346-9.333 20.667-13.333 40-12 58 2.667 32 35 57 97 75 94.667 164 200 334 316 510 166.667 252.667 269.334 379 308.001 379 73.333 0 122.333-44.333 147-133l63-321c40.667-192 90.334-411.667 149.001-659 4.667-18.667 21.667-62.667 51-132 24-57.333 36-100.333 36-129 0-38.667-14.5-71-43.5-97s-61.833-38.333-98.5-37zM876.997 995.997l-215-365.002c30 6.667 76.667 12 140 16 74.667 4.667 121.667 8.334 141 11.001-16 86.667-38 199.334-66 338.001zM1259 1600c-19.333-2.667-42.667-4.001-70-4.001H979c-32 0-80.167.667-144.5 2s-112.5 2-144.5 2c-40.667 0-75.667 10.333-105 31-31.333 22.667-47 51.334-47 86.001 0 78 71.667 117 215 117 26.667 0 66.167-1 118.5-3s91.833-3 118.5-3 67.167.5 121.5 1.5 94.833 1.5 121.5 1.5c40 0 75-8.667 105-26 35.333-21.333 53-51.333 53-90 0-64.667-44-103-132-115z"/><glyph glyph-name="amacron" unicode="ā" horiz-adv-x="1138" d="M965-66c-30.667 0-79.33 33.331-145.997 99.998-61.333-29.333-115.333-51.5-162-66.5s-86.334-22.5-119.001-22.5c-160.667 0-281.167 43-361.5 129s-120.5 214.667-120.5 386c0 160.667 59.333 298.167 178 412.5s260.667 171.5 426 171.5c63.333 0 136.666-18 219.999-54 100.667-43.333 151-93.666 151-150.999 0-24-7.667-45-23-63-6.667-26.667-11.834-60.167-15.501-100.5s-5.5-87.5-5.5-141.5c0-127.333 9-219 27-275 2-6 17.333-40.667 46-104 26-57.333 39-90 39-98 0-35.333-13.5-64.666-40.5-87.999s-58.167-35-93.5-35zM717.004 619.998c0 21.333 1.498 45.831 4.498 73.498s7.5 58.5 13.5 92.5c-13.333 6.667-25.166 11.5-35.499 14.5s-19.166 4.5-26.499 4.5c-90.667 0-170-35.5-238-106.5s-102-153.167-102-246.5c0-89.333 16-156.5 48-201.5s80-67.5 144-67.5c41.333 0 80.5 6.833 117.5 20.5s71.833 33.834 104.5 60.501c-20 158.667-30 277.334-30 356.001zM949.002 1150c-19.333-2.667-42.667-4.001-70-4.001h-210c-32 0-80.167.667-144.5 2s-112.5 2-144.5 2c-40.667 0-75.667 10.333-105 31-31.333 22.667-47 51.334-47 86.001 0 78 71.667 117 215 117 26.667 0 66.167-1 118.5-3s91.833-3 118.5-3 67.167.5 121.5 1.5 94.833 1.5 121.5 1.5c40 0 75-8.667 105-26 35.333-21.333 53-51.333 53-90 0-64.667-44-103-132-115z"/><glyph glyph-name="Abreve" unicode="Ă" horiz-adv-x="1498" d="M1250-30c-52.667 2-105.67 63.997-159.003 185.997-35.333 78.667-65.666 169.334-90.999 272.001-49.333-7.333-130-14.666-242-21.999-105.333-7.333-186-16-242-26-30.667-73.333-84-183.666-160-330.999-29.333-48-70-72-122-72-36.667 0-69.667 12.5-99 37.5s-44 56.833-44 95.5c0 34 48.667 149.333 146 346-9.333 20.667-13.333 40-12 58 2.667 32 35 57 97 75 94.667 164 200 334 316 510 166.667 252.667 269.334 379 308.001 379 73.333 0 122.333-44.333 147-133l63-321c40.667-192 90.334-411.667 149.001-659 4.667-18.667 21.667-62.667 51-132 24-57.333 36-100.333 36-129 0-38.667-14.5-71-43.5-97s-61.833-38.333-98.5-37zM876.997 995.997l-215-365.002c30 6.667 76.667 12 140 16 74.667 4.667 121.667 8.334 141 11.001-16 86.667-38 199.334-66 338.001zM1395 1899c-9.333-98.667-75.998-171.333-199.998-218-90.667-34.667-198.334-52-323.001-52-104.667 0-196.334 29.667-275.001 89-82.667 61.333-124 136.333-124 225 0 27.333 10.833 50.166 32.5 68.499s48.834 27.5 81.501 27.5 60-9.167 82-27.5 33-41.166 33-68.499c0-32.667 17.333-61 52-85 34.667-24.667 74-37 118-37 174.667 0 273.667 36.333 297 109 16.667 52 53.667 78 111 78 37.333 0 66.666-10.333 87.999-31s30.333-46.667 27-78z"/><glyph glyph-name="abreve" unicode="ă" horiz-adv-x="1138" d="M965-66c-30.667 0-79.33 33.331-145.997 99.998-61.333-29.333-115.333-51.5-162-66.5s-86.334-22.5-119.001-22.5c-160.667 0-281.167 43-361.5 129s-120.5 214.667-120.5 386c0 160.667 59.333 298.167 178 412.5s260.667 171.5 426 171.5c63.333 0 136.666-18 219.999-54 100.667-43.333 151-93.666 151-150.999 0-24-7.667-45-23-63-6.667-26.667-11.834-60.167-15.501-100.5s-5.5-87.5-5.5-141.5c0-127.333 9-219 27-275 2-6 17.333-40.667 46-104 26-57.333 39-90 39-98 0-35.333-13.5-64.666-40.5-87.999s-58.167-35-93.5-35zM717.004 619.998c0 21.333 1.498 45.831 4.498 73.498s7.5 58.5 13.5 92.5c-13.333 6.667-25.166 11.5-35.499 14.5s-19.166 4.5-26.499 4.5c-90.667 0-170-35.5-238-106.5s-102-153.167-102-246.5c0-89.333 16-156.5 48-201.5s80-67.5 144-67.5c41.333 0 80.5 6.833 117.5 20.5s71.833 33.834 104.5 60.501c-20 158.667-30 277.334-30 356.001zM1095 1449c-9.333-98.667-75.998-171.333-199.998-218-90.667-34.667-198.334-52-323.001-52-104.667 0-196.334 29.667-275.001 89-82.667 61.333-124 136.333-124 225 0 27.333 10.833 50.166 32.5 68.499s48.834 27.5 81.501 27.5 60-9.167 82-27.5 33-41.166 33-68.499c0-32.667 17.333-61 52-85 34.667-24.667 74-37 118-37 174.667 0 273.667 36.333 297 109 16.667 52 53.667 78 111 78 37.333 0 66.666-10.333 87.999-31s30.333-46.667 27-78z"/><glyph glyph-name="Aogonek" unicode="Ą" horiz-adv-x="1498" d="M1250-30c-52.667 2-105.67 63.997-159.003 185.997-35.333 78.667-65.666 169.334-90.999 272.001-49.333-7.333-130-14.666-242-21.999-105.333-7.333-186-16-242-26-30.667-73.333-84-183.666-160-330.999-29.333-48-70-72-122-72-36.667 0-69.667 12.5-99 37.5s-44 56.833-44 95.5c0 34 48.667 149.333 146 346-9.333 20.667-13.333 40-12 58 2.667 32 35 57 97 75 94.667 164 200 334 316 510 166.667 252.667 269.334 379 308.001 379 73.333 0 122.333-44.333 147-133l63-321c40.667-192 90.334-411.667 149.001-659 4.667-18.667 21.667-62.667 51-132 24-57.333 36-100.333 36-129 0-38.667-14.5-71-43.5-97s-61.833-38.333-98.5-37zM876.997 995.997l-215-365.002c30 6.667 76.667 12 140 16 74.667 4.667 121.667 8.334 141 11.001-16 86.667-38 199.334-66 338.001zM1215-344.005c-78 0-144.666 29-199.999 87-51.333 54-77 113.667-77 179 0 56 27.333 110.667 82 164 57.333 56 119 84 185 84 32.667 0 60-10.667 82-32 20-19.333 30-42.333 30-69 0-37.333-25-67.5-75-90.5s-75-41.833-75-56.5 6.167-29.667 18.5-45 22.166-23 29.499-23c60 0 111.667 9.667 155 29 19.333 8.667 38.333 13 57 13 32 0 59-10.333 81-31s33-44.334 33-71.001c0-43.333-44-78.666-132-105.999-68-21.333-132.667-32-194-32z"/><glyph glyph-name="aogonek" unicode="ą" horiz-adv-x="1138" d="M965-66c-30.667 0-79.33 33.331-145.997 99.998-61.333-29.333-115.333-51.5-162-66.5s-86.334-22.5-119.001-22.5c-160.667 0-281.167 43-361.5 129s-120.5 214.667-120.5 386c0 160.667 59.333 298.167 178 412.5s260.667 171.5 426 171.5c63.333 0 136.666-18 219.999-54 100.667-43.333 151-93.666 151-150.999 0-24-7.667-45-23-63-6.667-26.667-11.834-60.167-15.501-100.5s-5.5-87.5-5.5-141.5c0-127.333 9-219 27-275 2-6 17.333-40.667 46-104 26-57.333 39-90 39-98 0-35.333-13.5-64.666-40.5-87.999s-58.167-35-93.5-35zM717.004 619.998c0 21.333 1.498 45.831 4.498 73.498s7.5 58.5 13.5 92.5c-13.333 6.667-25.166 11.5-35.499 14.5s-19.166 4.5-26.499 4.5c-90.667 0-170-35.5-238-106.5s-102-153.167-102-246.5c0-89.333 16-156.5 48-201.5s80-67.5 144-67.5c41.333 0 80.5 6.833 117.5 20.5s71.833 33.834 104.5 60.501c-20 158.667-30 277.334-30 356.001zm277.998-964.002c-78 0-144.666 29-199.999 87-51.333 54-77 113.667-77 179 0 56 27.333 110.667 82 164 57.333 56 119 84 185 84 32.667 0 60-10.667 82-32 20-19.333 30-42.333 30-69 0-37.333-25-67.5-75-90.5s-75-41.833-75-56.5 6.167-29.667 18.5-45 22.166-23 29.499-23c60 0 111.667 9.667 155 29 19.333 8.667 38.333 13 57 13 32 0 59-10.333 81-31s33-44.334 33-71.001c0-43.333-44-78.666-132-105.999-68-21.333-132.667-32-194-32z"/><glyph glyph-name="Cacute" unicode="Ć" horiz-adv-x="1267" d="M1104 1065c-60 0-104.333 31.663-133 94.996-13.333 30-26.666 48-39.999 54-10 4.667-36.333 7-79 7-84 0-181-65.333-291-196-154-182.667-231-353.667-231-513 0-72.667 24.333-135 73-187s107-78 175-78c66 0 133 17.333 201 52 24 12.667 74.667 45.334 152 98.001 52 34.667 91.333 52 118 52 40 0 74-14.667 102-44 26-27.333 39-58.666 39-93.999 0-39.333-17.333-73.666-52-102.999-183.333-154.667-370-232-560-232-150 0-276.667 54.667-380 164-98.667 105.333-148 229.333-148 372 0 223.333 97.667 451.333 293 684 166 197.333 335.667 296 509 296 29.333 0 55.833-1 79.5-3s44.5-5 62.5-9c29.333 28.667 64.666 43 105.999 43 68 0 110-39 126-117 11.333-56 17-121.333 17-196 0-33.333-9.667-63.666-29-90.999-25.333-36-62-54-110-54zm-144 726c-54.667-60-98.001-101.669-130.001-125.002-26-19.333-54.667-29-86-29-35.333 0-66 11.333-92 34s-39 49-39 79c0 24.667 14 51.667 42 81l73 68c71.333 78 113.333 122.667 126 134 60.667 54.667 114.334 82 161.001 82 35.333 0 65.833-11.667 91.5-35s38.5-49.666 38.5-78.999c0-34-17.833-63.167-53.5-87.5S1012 1848.333 960 1791z"/><glyph glyph-name="cacute" unicode="ć" horiz-adv-x="1052" d="M562-63C415.333-63 292.332-21.333 192.999 62c-104.667 88-157 204-157 348 0 132.667 47 269.667 141 411 106.667 161.333 230.667 242 372 242 69.333 0 150.333-18.667 243-56 112.667-46 169-99 169-159 0-32.667-11.333-61.667-34-87-24-27.333-55-41-93-41-28.667 0-63.167 15.5-103.5 46.5S629.666 813 548.999 813c-51.333 0-107-50.333-167-151-57.333-97.333-86-181.333-86-252 0-70 25.333-125 76-165 48-38 111.333-57 190-57 44.667 0 99.334 17 164.001 51s105.667 51 123 51c36 0 66.833-13 92.5-39s38.5-55.667 38.5-89c0-52-56.667-104-170-156-101.333-46-184-69-248-69zm167.999 1404c-54.667-60-98.001-101.669-130.001-125.002-26-19.333-54.667-29-86-29-35.333 0-66 11.333-92 34s-39 49-39 79c0 24.667 14 51.667 42 81l73 68c71.333 78 113.333 122.667 126 134 60.667 54.667 114.334 82 161.001 82 35.333 0 65.833-11.667 91.5-35s38.5-49.666 38.5-78.999c0-34-17.833-63.167-53.5-87.5s-79.5-65.166-131.5-122.499z"/><glyph glyph-name="Ccircumflex" unicode="Ĉ" horiz-adv-x="1267" d="M1104 1065c-60 0-104.333 31.663-133 94.996-13.333 30-26.666 48-39.999 54-10 4.667-36.333 7-79 7-84 0-181-65.333-291-196-154-182.667-231-353.667-231-513 0-72.667 24.333-135 73-187s107-78 175-78c66 0 133 17.333 201 52 24 12.667 74.667 45.334 152 98.001 52 34.667 91.333 52 118 52 40 0 74-14.667 102-44 26-27.333 39-58.666 39-93.999 0-39.333-17.333-73.666-52-102.999-183.333-154.667-370-232-560-232-150 0-276.667 54.667-380 164-98.667 105.333-148 229.333-148 372 0 223.333 97.667 451.333 293 684 166 197.333 335.667 296 509 296 29.333 0 55.833-1 79.5-3s44.5-5 62.5-9c29.333 28.667 64.666 43 105.999 43 68 0 110-39 126-117 11.333-56 17-121.333 17-196 0-33.333-9.667-63.666-29-90.999-25.333-36-62-54-110-54zm40 621c-32.667 0-63.001 11.667-91.001 35l-218 200c-162-170-272-255-330-255-35.333 0-66 11.5-92 34.5s-39 49.833-39 80.5c0 30 14.333 57 43 81 35.333 30 136 126.667 302 290 26 25.333 56.333 38 91 38 44 0 93.333-20 148-60 19.333-14 60-49.333 122-106l160-148c24-23.333 36-48.666 36-75.999 0-30.667-13.167-57.334-39.5-80.001s-57.166-34-92.499-34z"/><glyph glyph-name="ccircumflex" unicode="ĉ" horiz-adv-x="1052" d="M562-63C415.333-63 292.332-21.333 192.999 62c-104.667 88-157 204-157 348 0 132.667 47 269.667 141 411 106.667 161.333 230.667 242 372 242 69.333 0 150.333-18.667 243-56 112.667-46 169-99 169-159 0-32.667-11.333-61.667-34-87-24-27.333-55-41-93-41-28.667 0-63.167 15.5-103.5 46.5S629.666 813 548.999 813c-51.333 0-107-50.333-167-151-57.333-97.333-86-181.333-86-252 0-70 25.333-125 76-165 48-38 111.333-57 190-57 44.667 0 99.334 17 164.001 51s105.667 51 123 51c36 0 66.833-13 92.5-39s38.5-55.667 38.5-89c0-52-56.667-104-170-156-101.333-46-184-69-248-69zm361.999 1249c-32.667 0-63.001 11.667-91.001 35l-218 200c-162-170-272-255-330-255-35.333 0-66 11.5-92 34.5s-39 49.833-39 80.5c0 30 14.333 57 43 81 35.333 30 136 126.667 302 290 26 25.333 56.333 38 91 38 44 0 93.333-20 148-60 19.333-14 60-49.333 122-106l160-148c24-23.333 36-48.666 36-75.999 0-30.667-13.167-57.334-39.5-80.001s-57.166-34-92.499-34z"/><glyph glyph-name="Cdot" unicode="Ċ" horiz-adv-x="1267" d="M1104 1065c-60 0-104.333 31.663-133 94.996-13.333 30-26.666 48-39.999 54-10 4.667-36.333 7-79 7-84 0-181-65.333-291-196-154-182.667-231-353.667-231-513 0-72.667 24.333-135 73-187s107-78 175-78c66 0 133 17.333 201 52 24 12.667 74.667 45.334 152 98.001 52 34.667 91.333 52 118 52 40 0 74-14.667 102-44 26-27.333 39-58.666 39-93.999 0-39.333-17.333-73.666-52-102.999-183.333-154.667-370-232-560-232-150 0-276.667 54.667-380 164-98.667 105.333-148 229.333-148 372 0 223.333 97.667 451.333 293 684 166 197.333 335.667 296 509 296 29.333 0 55.833-1 79.5-3s44.5-5 62.5-9c29.333 28.667 64.666 43 105.999 43 68 0 110-39 126-117 11.333-56 17-121.333 17-196 0-33.333-9.667-63.666-29-90.999-25.333-36-62-54-110-54zm-182 528c-30.667 0-66.666 16.334-107.999 49.001-45.333 36.667-68 74.667-68 114 0 43.333 18.667 78.333 56 105 30.667 22 62 33 94 33 29.333 0 64.666-16.333 105.999-49 45.333-36.667 68-74.334 68-113.001 0-42.667-18-77.667-54-105-30-22.667-61.333-34-94-34z"/><glyph glyph-name="cdot" unicode="ċ" horiz-adv-x="1052" d="M562-63C415.333-63 292.332-21.333 192.999 62c-104.667 88-157 204-157 348 0 132.667 47 269.667 141 411 106.667 161.333 230.667 242 372 242 69.333 0 150.333-18.667 243-56 112.667-46 169-99 169-159 0-32.667-11.333-61.667-34-87-24-27.333-55-41-93-41-28.667 0-63.167 15.5-103.5 46.5S629.666 813 548.999 813c-51.333 0-107-50.333-167-151-57.333-97.333-86-181.333-86-252 0-70 25.333-125 76-165 48-38 111.333-57 190-57 44.667 0 99.334 17 164.001 51s105.667 51 123 51c36 0 66.833-13 92.5-39s38.5-55.667 38.5-89c0-52-56.667-104-170-156-101.333-46-184-69-248-69zm59.999 1206c-30.667 0-66.666 16.334-107.999 49.001-45.333 36.667-68 74.667-68 114 0 43.333 18.667 78.333 56 105 30.667 22 62 33 94 33 29.333 0 64.666-16.333 105.999-49 45.333-36.667 68-74.334 68-113.001 0-42.667-18-77.667-54-105-30-22.667-61.333-34-94-34z"/><glyph glyph-name="Ccaron" unicode="Č" horiz-adv-x="1267" d="M1104 1065c-60 0-104.333 31.663-133 94.996-13.333 30-26.666 48-39.999 54-10 4.667-36.333 7-79 7-84 0-181-65.333-291-196-154-182.667-231-353.667-231-513 0-72.667 24.333-135 73-187s107-78 175-78c66 0 133 17.333 201 52 24 12.667 74.667 45.334 152 98.001 52 34.667 91.333 52 118 52 40 0 74-14.667 102-44 26-27.333 39-58.666 39-93.999 0-39.333-17.333-73.666-52-102.999-183.333-154.667-370-232-560-232-150 0-276.667 54.667-380 164-98.667 105.333-148 229.333-148 372 0 223.333 97.667 451.333 293 684 166 197.333 335.667 296 509 296 29.333 0 55.833-1 79.5-3s44.5-5 62.5-9c29.333 28.667 64.666 43 105.999 43 68 0 110-39 126-117 11.333-56 17-121.333 17-196 0-33.333-9.667-63.666-29-90.999-25.333-36-62-54-110-54zm11 798c-197.333-158-315.667-236.997-355-236.997-30 0-58.333 11.333-85 34l-61 62-126 123c-56 60.667-84 105.667-84 135 0 27.333 12.667 50.666 38 69.999 23.333 18 50.333 27 81 27 40.667 0 73-16.667 97-50 26-36.667 77-91.334 153-164.001l191 146c24 16.667 48.667 25 74 25 31.333 0 58.5-10 81.5-30s34.5-43.333 34.5-70-13-50.334-39-71.001z"/><glyph glyph-name="ccaron" unicode="č" horiz-adv-x="1052" d="M562-63C415.333-63 292.332-21.333 192.999 62c-104.667 88-157 204-157 348 0 132.667 47 269.667 141 411 106.667 161.333 230.667 242 372 242 69.333 0 150.333-18.667 243-56 112.667-46 169-99 169-159 0-32.667-11.333-61.667-34-87-24-27.333-55-41-93-41-28.667 0-63.167 15.5-103.5 46.5S629.666 813 548.999 813c-51.333 0-107-50.333-167-151-57.333-97.333-86-181.333-86-252 0-70 25.333-125 76-165 48-38 111.333-57 190-57 44.667 0 99.334 17 164.001 51s105.667 51 123 51c36 0 66.833-13 92.5-39s38.5-55.667 38.5-89c0-52-56.667-104-170-156-101.333-46-184-69-248-69zm392.999 1476c-197.333-158-315.667-236.997-355-236.997-30 0-58.333 11.333-85 34l-61 62-126 123c-56 60.667-84 105.667-84 135 0 27.333 12.667 50.666 38 69.999 23.333 18 50.333 27 81 27 40.667 0 73-16.667 97-50 26-36.667 77-91.334 153-164.001l191 146c24 16.667 48.667 25 74 25 31.333 0 58.5-10 81.5-30s34.5-43.333 34.5-70-13-50.334-39-71.001z"/><glyph glyph-name="Dcaron" unicode="Ď" horiz-adv-x="1478" d="M282-10c-39.333.667-72.33 14.168-98.997 40.501s-40 58.166-40 95.499c0 66.667 3.167 166.667 9.5 300s9.5 233.333 9.5 300c0 74-1.5 185-4.5 333s-4.5 259-4.5 333c0 36.667 17.667 73.167 53 109.5s73 54.5 113 54.5c22 0 77.333-20.667 166-62 103.333-49.333 164.666-77 183.999-83 195.333-63.333 362-161.333 500-294 164.667-158 247-332.667 247-524 0-115.333-28.333-225-85-329C1274.335 158 1196.668 73 1098 9 987.334-63 831.667-99 631-99c-48.667 0-104.667 7-168 21-76.667 17.333-137 40-181 68zm562.003 1028c-64.667 40.667-203.333 104.667-416 192V220c26-16.667 55.833-29.167 89.5-37.5s71.167-12.5 112.5-12.5c144 0 247.333 20 310 60 59.333 38 106.5 89.667 141.5 155s52.5 133.333 52.5 204c0 165.333-96.667 308.333-290 429zM1015 1863c-197.333-158-315.667-236.997-355-236.997-30 0-58.333 11.333-85 34l-61 62-126 123c-56 60.667-84 105.667-84 135 0 27.333 12.667 50.666 38 69.999 23.333 18 50.333 27 81 27 40.667 0 73-16.667 97-50 26-36.667 77-91.334 153-164.001l191 146c24 16.667 48.667 25 74 25 31.333 0 58.5-10 81.5-30s34.5-43.333 34.5-70-13-50.334-39-71.001z"/><glyph glyph-name="dcaron" unicode="ď" horiz-adv-x="1565" d="M834 1005c8.667 227.333 19.002 384.336 31.002 471.003 11.333 78.667 54.666 118 129.999 118 39.333 0 71-12.667 95-38s36-56.333 36-93c0-96.667-7.5-240.667-22.5-432s-22.5-335.333-22.5-432c0-236 7.667-394 23-474 2-10.667 3-20.334 3-29.001 0-36.667-13.333-66.834-40-90.501s-57.667-35.5-93-35.5c-49.333 0-86 22-110 66-45.333-27.333-92.333-47.833-141-61.5s-99-20.5-151-20.5c-149.333 0-273.333 47.667-372 143-100.667 97.333-151 221.333-151 372 0 179.333 50.667 324.166 152 434.499S434.667 1069 598 1069c50 0 94.667-5.333 134-16s73.333-26.667 102-48zm-19.998-314.997c-22 42-50.667 73.334-86 94.001s-77.333 31-126 31c-98.667 0-172.667-28.5-222-85.5s-74-142.5-74-256.5c0-72 26.667-133.667 80-185s115.333-77 186-77c51.333 0 90.333 6 117 18 18 8 48.667 29.333 92 64 11.333 9.333 22.333 19.666 33 30.999-1.333 32-1.333 154 0 366zM1318 1103c-23.333 0-42.667 7.667-58 23s-23 34.333-23 57c0 19.333 7.667 40.666 23 63.999l41 56c9.333 13.333 16.333 27 21 41-56.667 34.667-85 78.334-85 131.001 0 37.333 13.167 68 39.5 92s59.166 36 98.499 36c94.667 0 142-55.333 142-166 0-64-17-132-51-204-41.333-86.667-90.666-130-147.999-130z"/><glyph glyph-name="Dslash" unicode="Đ" horiz-adv-x="1478" d="M282-10c-40 .667-71.502 13.502-94.502 38.502s-34.5 57.5-34.5 97.5v436c-18-.667-33.667-1-47-1-126.667 0-190 45-190 135s62.667 135 188 135c14 0 30.333-.333 49-1v562c0 38.667 18 75.667 54 111s73.333 53 112 53c20.667 0 76.667-21 168-63 114-52 175-79.333 183-82 207.333-76 376-176 506-300 160-152.667 240-325.334 240-518.001 0-116-28.667-226.833-86-332.5S1195.332 70.667 1097.999 8c-111.333-71.333-267-107-467-107C491.666-99 375.333-69.333 282-10zm145.998 1220l.003-381.999c18-.667 57.667-3.667 119-9 49.333-4 89-6 119-6 39.333 0 72.333-12.5 99-37.5s40-56.833 40-95.5-13.333-70.334-40-95.001-59.667-37-99-37c-30.667 0-70.334 2-119.001 6-62.667 4.667-102.334 7.334-119.001 8.001 1.333-75.333 1.333-188.666 0-339.999 68.667-34.667 136-52 202-52 143.333 0 246.666 20 309.999 60 59.333 37.333 106.5 88.666 141.5 153.999s52.5 133.666 52.5 204.999c0 156-83.333 290.333-250 403-76.667 52-228.667 124.667-456 218z"/><glyph glyph-name="dcroat" unicode="đ" horiz-adv-x="1203" d="M1296 1290c0-29.333-13.165-53.494-39.498-72.494s-59.5-28.5-99.5-28.5h-42c-22.667-338-34-534.667-34-590 0-236 7.667-394 23-474 2-10.667 3-20.334 3-29.001 0-36.667-13.333-66.834-40-90.501s-57.667-35.5-93-35.5c-49.333 0-86 22-110 66-90.667-54.667-188-82-292-82-149.333 0-273.333 47.667-372 143-100.667 97.333-151 221.333-151 372 0 179.333 50.667 324.166 152 434.499s233.666 165.5 396.999 165.5c100 0 178.667-21.333 236-64 2.667 71.333 5.667 136.666 9 195.999h-18c-28.667 0-71.334-2-128.001-6s-98.667-6-126-6c-39.333 0-72.333 9.667-99 29s-40 44-40 74c0 55.333 51 90 153 104 35.333 5.333 115.333 8 240 8h32c2.667 28 5.334 52 8.001 72 11.333 78.667 54.666 118 129.999 118 39.333 0 71-12.667 95-38s36-56.333 36-93c0-22.667-.333-46.334-1-71.001h32c40 0 73.167-9.833 99.5-29.5s39.5-43.834 39.5-72.501zM814.002 324.006c-1.333 32-1.333 154.001 0 366.001-44 83.333-114.667 125-212 125-197.333 0-296-114-296-342 0-72 26.667-133.667 80-185s115.333-77 186-77c51.333 0 90.333 6 117 18 18 8 48.667 29.333 92 64 11.333 9.333 22.333 19.666 33 30.999z"/><glyph glyph-name="Emacron" unicode="Ē" horiz-adv-x="1279" d="M1109 1282c-13.333 0-27.33 2.003-41.996 6.003-108 29.333-213 44-315 44-50 0-103.667-4-161-12s-118.333-20-183-36c0-88.667-3-220.334-9-395.001 37.333 2.667 167.666 15 390.999 37 127.333 12.667 208 19 242 19 39.333 0 73-12.5 101-37.5s42-58.167 42-99.5c0-79.333-42.333-124.333-127-135-53.333-4-133-10.667-239-20-94.667-10.667-237.334-23.667-428.001-39-4.667-84.667-7-153-7-205 0-130.667 7.667-205 23-223 7.333-8.667 49.333-13 126-13 41.333 0 103.666 1 186.999 3s145.666 3 186.999 3c13.333 0 33 2 59 6s45.333 6 58 6c38.667 0 71.667-11 99-33 31.333-24.667 47-59.334 47-104.001 0-74.667-39-119.334-117-134.001-66.667-12.667-205-19-415-19-217.333 0-359 29.333-425 88C130.333 53.667 94 193.667 94 409c0 89.333 6.5 223.5 19.5 402.5S133 1124.333 133 1213c0 23.333-3.333 57.833-10 103.5s-10 80.167-10 103.5c0 101.333 46.667 152 140 152 29.333 0 56.333-8.333 81-25 77.333 19.333 150.833 33.833 220.5 43.5S690 1605 752 1605c168 0 302.333-19.333 403-58 61.333-23.333 92-65.666 92-127 0-34.666-12-65.333-36-92-26.667-30.667-60.667-46-102-46zm-109.996 398c-19.333-2.667-42.667-4.001-70-4.001h-210c-32 0-80.167.667-144.5 2s-112.5 2-144.5 2c-40.667 0-75.667 10.333-105 31-31.333 22.667-47 51.334-47 86.001 0 78 71.667 117 215 117 26.667 0 66.167-1 118.5-3s91.833-3 118.5-3 67.167.5 121.5 1.5 94.833 1.5 121.5 1.5c40 0 75-8.667 105-26 35.333-21.333 53-51.333 53-90 0-64.667-44-103-132-115z"/><glyph glyph-name="emacron" unicode="ē" horiz-adv-x="1145" d="M606-46C446.667-46 316.334-8.001 215.001 67.999c-112 84-168 202.333-168 355 0 168.667 44.333 311.334 133 428.001 98.667 129.333 231.667 194 399 194 116 0 212.333-18.667 289-56 100.667-49.333 151-126 151-230 0-73.333-41-138.333-123-195-37.333-26-112.333-64-225-114l-337-149c32-34.667 70.667-60.667 116-78s97.333-26 156-26c89.333 0 165 18.333 227 55 55.333 32.667 99.666 49 132.999 49 69.333 0 104-33.667 104-101 0-76-55.667-138-167-186-93.333-40-192.333-60-297-60zm-27 848.999c-62 0-115-20.668-159-62.001s-79.333-103.333-106-186l225 97c90 40.667 161.667 78.334 215 113.001-44.667 25.333-103 38-175 38zM919 1150c-19.333-2.667-42.667-4.001-70-4.001H639c-32 0-80.167.667-144.5 2s-112.5 2-144.5 2c-40.667 0-75.667 10.333-105 31-31.333 22.667-47 51.334-47 86.001 0 78 71.667 117 215 117 26.667 0 66.167-1 118.5-3s91.833-3 118.5-3 67.167.5 121.5 1.5 94.833 1.5 121.5 1.5c40 0 75-8.667 105-26 35.333-21.333 53-51.333 53-90 0-64.667-44-103-132-115z"/><glyph glyph-name="Ebreve" unicode="Ĕ" horiz-adv-x="1279" d="M1109 1282c-13.333 0-27.33 2.003-41.996 6.003-108 29.333-213 44-315 44-50 0-103.667-4-161-12s-118.333-20-183-36c0-88.667-3-220.334-9-395.001 37.333 2.667 167.666 15 390.999 37 127.333 12.667 208 19 242 19 39.333 0 73-12.5 101-37.5s42-58.167 42-99.5c0-79.333-42.333-124.333-127-135-53.333-4-133-10.667-239-20-94.667-10.667-237.334-23.667-428.001-39-4.667-84.667-7-153-7-205 0-130.667 7.667-205 23-223 7.333-8.667 49.333-13 126-13 41.333 0 103.666 1 186.999 3s145.666 3 186.999 3c13.333 0 33 2 59 6s45.333 6 58 6c38.667 0 71.667-11 99-33 31.333-24.667 47-59.334 47-104.001 0-74.667-39-119.334-117-134.001-66.667-12.667-205-19-415-19-217.333 0-359 29.333-425 88C130.333 53.667 94 193.667 94 409c0 89.333 6.5 223.5 19.5 402.5S133 1124.333 133 1213c0 23.333-3.333 57.833-10 103.5s-10 80.167-10 103.5c0 101.333 46.667 152 140 152 29.333 0 56.333-8.333 81-25 77.333 19.333 150.833 33.833 220.5 43.5S690 1605 752 1605c168 0 302.333-19.333 403-58 61.333-23.333 92-65.666 92-127 0-34.666-12-65.333-36-92-26.667-30.667-60.667-46-102-46zm126 667c-9.333-98.667-75.998-171.333-199.998-218-90.667-34.667-198.334-52-323.001-52-104.667 0-196.334 29.667-275.001 89-82.667 61.333-124 136.333-124 225 0 27.333 10.833 50.166 32.5 68.499s48.834 27.5 81.501 27.5 60-9.167 82-27.5 33-41.166 33-68.499c0-32.667 17.333-61 52-85 34.667-24.667 74-37 118-37 174.667 0 273.667 36.333 297 109 16.667 52 53.667 78 111 78 37.333 0 66.666-10.333 87.999-31s30.333-46.667 27-78z"/><glyph glyph-name="ebreve" unicode="ĕ" horiz-adv-x="1145" d="M606-46C446.667-46 316.334-8.001 215.001 67.999c-112 84-168 202.333-168 355 0 168.667 44.333 311.334 133 428.001 98.667 129.333 231.667 194 399 194 116 0 212.333-18.667 289-56 100.667-49.333 151-126 151-230 0-73.333-41-138.333-123-195-37.333-26-112.333-64-225-114l-337-149c32-34.667 70.667-60.667 116-78s97.333-26 156-26c89.333 0 165 18.333 227 55 55.333 32.667 99.666 49 132.999 49 69.333 0 104-33.667 104-101 0-76-55.667-138-167-186-93.333-40-192.333-60-297-60zm-27 848.999c-62 0-115-20.668-159-62.001s-79.333-103.333-106-186l225 97c90 40.667 161.667 78.334 215 113.001-44.667 25.333-103 38-175 38zM1095 1449c-9.333-98.667-75.998-171.333-199.998-218-90.667-34.667-198.334-52-323.001-52-104.667 0-196.334 29.667-275.001 89-82.667 61.333-124 136.333-124 225 0 27.333 10.833 50.166 32.5 68.499s48.834 27.5 81.501 27.5 60-9.167 82-27.5 33-41.166 33-68.499c0-32.667 17.333-61 52-85 34.667-24.667 74-37 118-37 174.667 0 273.667 36.333 297 109 16.667 52 53.667 78 111 78 37.333 0 66.666-10.333 87.999-31s30.333-46.667 27-78z"/><glyph glyph-name="Edot" unicode="Ė" horiz-adv-x="1279" d="M1109 1282c-13.333 0-27.33 2.003-41.996 6.003-108 29.333-213 44-315 44-50 0-103.667-4-161-12s-118.333-20-183-36c0-88.667-3-220.334-9-395.001 37.333 2.667 167.666 15 390.999 37 127.333 12.667 208 19 242 19 39.333 0 73-12.5 101-37.5s42-58.167 42-99.5c0-79.333-42.333-124.333-127-135-53.333-4-133-10.667-239-20-94.667-10.667-237.334-23.667-428.001-39-4.667-84.667-7-153-7-205 0-130.667 7.667-205 23-223 7.333-8.667 49.333-13 126-13 41.333 0 103.666 1 186.999 3s145.666 3 186.999 3c13.333 0 33 2 59 6s45.333 6 58 6c38.667 0 71.667-11 99-33 31.333-24.667 47-59.334 47-104.001 0-74.667-39-119.334-117-134.001-66.667-12.667-205-19-415-19-217.333 0-359 29.333-425 88C130.333 53.667 94 193.667 94 409c0 89.333 6.5 223.5 19.5 402.5S133 1124.333 133 1213c0 23.333-3.333 57.833-10 103.5s-10 80.167-10 103.5c0 101.333 46.667 152 140 152 29.333 0 56.333-8.333 81-25 77.333 19.333 150.833 33.833 220.5 43.5S690 1605 752 1605c168 0 302.333-19.333 403-58 61.333-23.333 92-65.666 92-127 0-34.666-12-65.333-36-92-26.667-30.667-60.667-46-102-46zm-306.996 391c-30.667 0-66.666 16.334-107.999 49.001-45.333 36.667-68 74.667-68 114 0 43.333 18.667 78.333 56 105 30.667 22 62 33 94 33 29.333 0 64.666-16.333 105.999-49 45.333-36.667 68-74.334 68-113.001 0-42.667-18-77.667-54-105-30-22.667-61.333-34-94-34z"/><glyph glyph-name="edot" unicode="ė" horiz-adv-x="1145" d="M606-46C446.667-46 316.334-8.001 215.001 67.999c-112 84-168 202.333-168 355 0 168.667 44.333 311.334 133 428.001 98.667 129.333 231.667 194 399 194 116 0 212.333-18.667 289-56 100.667-49.333 151-126 151-230 0-73.333-41-138.333-123-195-37.333-26-112.333-64-225-114l-337-149c32-34.667 70.667-60.667 116-78s97.333-26 156-26c89.333 0 165 18.333 227 55 55.333 32.667 99.666 49 132.999 49 69.333 0 104-33.667 104-101 0-76-55.667-138-167-186-93.333-40-192.333-60-297-60zm-27 848.999c-62 0-115-20.668-159-62.001s-79.333-103.333-106-186l225 97c90 40.667 161.667 78.334 215 113.001-44.667 25.333-103 38-175 38zM602 1143c-30.667 0-66.666 16.334-107.999 49.001-45.333 36.667-68 74.667-68 114 0 43.333 18.667 78.333 56 105 30.667 22 62 33 94 33 29.333 0 64.666-16.333 105.999-49 45.333-36.667 68-74.334 68-113.001 0-42.667-18-77.667-54-105-30-22.667-61.333-34-94-34z"/><glyph glyph-name="Eogonek" unicode="Ę" horiz-adv-x="1279" d="M1109 1282c-13.333 0-27.33 2.003-41.996 6.003-108 29.333-213 44-315 44-50 0-103.667-4-161-12s-118.333-20-183-36c0-88.667-3-220.334-9-395.001 37.333 2.667 167.666 15 390.999 37 127.333 12.667 208 19 242 19 39.333 0 73-12.5 101-37.5s42-58.167 42-99.5c0-79.333-42.333-124.333-127-135-53.333-4-133-10.667-239-20-94.667-10.667-237.334-23.667-428.001-39-4.667-84.667-7-153-7-205 0-130.667 7.667-205 23-223 7.333-8.667 49.333-13 126-13 41.333 0 103.666 1 186.999 3s145.666 3 186.999 3c13.333 0 33 2 59 6s45.333 6 58 6c38.667 0 71.667-11 99-33 31.333-24.667 47-59.334 47-104.001 0-74.667-39-119.334-117-134.001-66.667-12.667-205-19-415-19-217.333 0-359 29.333-425 88C130.333 53.667 94 193.667 94 409c0 89.333 6.5 223.5 19.5 402.5S133 1124.333 133 1213c0 23.333-3.333 57.833-10 103.5s-10 80.167-10 103.5c0 101.333 46.667 152 140 152 29.333 0 56.333-8.333 81-25 77.333 19.333 150.833 33.833 220.5 43.5S690 1605 752 1605c168 0 302.333-19.333 403-58 61.333-23.333 92-65.666 92-127 0-34.666-12-65.333-36-92-26.667-30.667-60.667-46-102-46zM875.004-403.997c-78 0-144.666 29-199.999 87-51.333 54-77 113.667-77 179 0 56 27.333 110.667 82 164 57.333 56 119 84 185 84 32.667 0 60-10.667 82-32 20-19.333 30-42.333 30-69 0-37.333-25-67.5-75-90.5s-75-41.833-75-56.5 6.167-29.667 18.5-45 22.166-23 29.499-23c60 0 111.667 9.667 155 29 19.333 8.667 38.333 13 57 13 32 0 59-10.333 81-31s33-44.334 33-71.001c0-43.333-44-78.666-132-105.999-68-21.333-132.667-32-194-32z"/><glyph glyph-name="eogonek" unicode="ę" horiz-adv-x="1145" d="M606-46C446.667-46 316.334-8.001 215.001 67.999c-112 84-168 202.333-168 355 0 168.667 44.333 311.334 133 428.001 98.667 129.333 231.667 194 399 194 116 0 212.333-18.667 289-56 100.667-49.333 151-126 151-230 0-73.333-41-138.333-123-195-37.333-26-112.333-64-225-114l-337-149c32-34.667 70.667-60.667 116-78s97.333-26 156-26c89.333 0 165 18.333 227 55 55.333 32.667 99.666 49 132.999 49 69.333 0 104-33.667 104-101 0-76-55.667-138-167-186-93.333-40-192.333-60-297-60zm-27 848.999c-62 0-115-20.668-159-62.001s-79.333-103.333-106-186l225 97c90 40.667 161.667 78.334 215 113.001-44.667 25.333-103 38-175 38zm96-1187.001c-78 0-144.666 29-199.999 87-51.333 54-77 113.667-77 179 0 56 27.333 110.667 82 164 57.333 56 119 84 185 84 32.667 0 60-10.667 82-32 20-19.333 30-42.333 30-69 0-37.333-25-67.5-75-90.5s-75-41.833-75-56.5 6.167-29.667 18.5-45 22.166-23 29.499-23c60 0 111.667 9.667 155 29 19.333 8.667 38.333 13 57 13 32 0 59-10.333 81-31s33-44.334 33-71.001c0-43.333-44-78.666-132-105.999-68-21.333-132.667-32-194-32z"/><glyph glyph-name="Ecaron" unicode="Ě" horiz-adv-x="1279" d="M1109 1282c-13.333 0-27.33 2.003-41.996 6.003-108 29.333-213 44-315 44-50 0-103.667-4-161-12s-118.333-20-183-36c0-88.667-3-220.334-9-395.001 37.333 2.667 167.666 15 390.999 37 127.333 12.667 208 19 242 19 39.333 0 73-12.5 101-37.5s42-58.167 42-99.5c0-79.333-42.333-124.333-127-135-53.333-4-133-10.667-239-20-94.667-10.667-237.334-23.667-428.001-39-4.667-84.667-7-153-7-205 0-130.667 7.667-205 23-223 7.333-8.667 49.333-13 126-13 41.333 0 103.666 1 186.999 3s145.666 3 186.999 3c13.333 0 33 2 59 6s45.333 6 58 6c38.667 0 71.667-11 99-33 31.333-24.667 47-59.334 47-104.001 0-74.667-39-119.334-117-134.001-66.667-12.667-205-19-415-19-217.333 0-359 29.333-425 88C130.333 53.667 94 193.667 94 409c0 89.333 6.5 223.5 19.5 402.5S133 1124.333 133 1213c0 23.333-3.333 57.833-10 103.5s-10 80.167-10 103.5c0 101.333 46.667 152 140 152 29.333 0 56.333-8.333 81-25 77.333 19.333 150.833 33.833 220.5 43.5S690 1605 752 1605c168 0 302.333-19.333 403-58 61.333-23.333 92-65.666 92-127 0-34.666-12-65.333-36-92-26.667-30.667-60.667-46-102-46zm-14 611c-197.333-158-315.667-236.997-355-236.997-30 0-58.333 11.333-85 34l-61 62-126 123c-56 60.667-84 105.667-84 135 0 27.333 12.667 50.666 38 69.999 23.333 18 50.333 27 81 27 40.667 0 73-16.667 97-50 26-36.667 77-91.334 153-164.001l191 146c24 16.667 48.667 25 74 25 31.333 0 58.5-10 81.5-30s34.5-43.333 34.5-70-13-50.334-39-71.001z"/><glyph glyph-name="ecaron" unicode="ě" horiz-adv-x="1145" d="M606-46C446.667-46 316.334-8.001 215.001 67.999c-112 84-168 202.333-168 355 0 168.667 44.333 311.334 133 428.001 98.667 129.333 231.667 194 399 194 116 0 212.333-18.667 289-56 100.667-49.333 151-126 151-230 0-73.333-41-138.333-123-195-37.333-26-112.333-64-225-114l-337-149c32-34.667 70.667-60.667 116-78s97.333-26 156-26c89.333 0 165 18.333 227 55 55.333 32.667 99.666 49 132.999 49 69.333 0 104-33.667 104-101 0-76-55.667-138-167-186-93.333-40-192.333-60-297-60zm-27 848.999c-62 0-115-20.668-159-62.001s-79.333-103.333-106-186l225 97c90 40.667 161.667 78.334 215 113.001-44.667 25.333-103 38-175 38zM955 1413c-197.333-158-315.667-236.997-355-236.997-30 0-58.333 11.333-85 34l-61 62-126 123c-56 60.667-84 105.667-84 135 0 27.333 12.667 50.666 38 69.999 23.333 18 50.333 27 81 27 40.667 0 73-16.667 97-50 26-36.667 77-91.334 153-164.001l191 146c24 16.667 48.667 25 74 25 31.333 0 58.5-10 81.5-30s34.5-43.333 34.5-70-13-50.334-39-71.001z"/><glyph glyph-name="Gcircumflex" unicode="Ĝ" horiz-adv-x="1392" d="M1335 588c-45.333-198.667-136.667-357.664-274-476.997-139.333-120-302.666-180-489.999-180-177.333 0-310.333 46.833-399 140.5s-133 234.167-133 421.5c0 170.667 42 345.667 126 525s192 324.666 324 435.999c92.667 78 192 117 298 117 64.667 0 152.667-23.333 264-70 132-55.333 198-114.333 198-177 0-36-13.667-68.167-41-96.5s-61-42.5-101-42.5c-20 0-64.167 18.833-132.5 56.5s-130.833 56.5-187.5 56.5c-60 0-141-64.667-243-194-148.667-188-223-391.667-223-611 0-111.333 16.333-187 49-227 34.667-42 101.667-63 201-63 102 0 191.667 29 269 87 82 61.333 142.667 150.666 182 267.999-154.667-12-289.334-43.667-404.001-95-20.667-9.333-41.334-14-62.001-14-41.333 0-75.666 15.333-102.999 46-24.667 27.333-37 58.333-37 93 0 102 120.667 173.333 362 214 136 22.667 294.667 34 476 34 40 0 73.5-13 100.5-39s40.5-58 40.5-96c0-48.667-20-86.334-60-113.001zm-181 1048c-32.667 0-63.001 11.667-91.001 35l-218 200c-162-170-272-255-330-255-35.333 0-66 11.5-92 34.5s-39 49.833-39 80.5c0 30 14.333 57 43 81 35.333 30 136 126.667 302 290 26 25.333 56.333 38 91 38 44 0 93.333-20 148-60 19.333-14 60-49.333 122-106l160-148c24-23.333 36-48.666 36-75.999 0-30.667-13.167-57.334-39.5-80.001s-57.166-34-92.499-34z"/><glyph glyph-name="gcircumflex" unicode="ĝ" horiz-adv-x="1087" d="M1029 596c-28-156.667-44.665-322.001-49.998-496.001-6.667-215.333-42.667-371.666-108-468.999-87.333-130-242-195-464-195-259.333 0-389 51.333-389 154 0 36.667 11.667 66.334 35 89.001s54 34 92 34c30 0 73-5.667 129-17s105.667-17 149-17c99.333 0 172.666 30.333 219.999 91 45.333 59.333 72 153.666 80 282.999-34-34.667-72.333-60.667-115-78S518.667-51 468-51C335.333-51 227.5-7.833 144.5 78.5S20 275.333 20 410c0 181.333 55.333 328 166 440 114.667 116 269.667 174 465 174 62.667 0 116.667-7.667 162-23s82-38.666 110-69.999c84.667-10 127-60 127-150 0-44.667-7-106.334-21-185.001zM641.002 795.999c-112.667 0-200.334-37.001-263.001-111.001-56-67.333-84-154.666-84-261.999 0-79.333 15-139 45-179s75-60 135-60c54.667 0 109.667 31.667 165 95 52 60 81.667 119.333 89 178 12.667 64 27.334 163.667 44.001 299-22.667 13.333-45 23.333-67 30s-43.333 10-64 10zm303 390.001c-32.667 0-63.001 11.667-91.001 35l-218 200c-162-170-272-255-330-255-35.333 0-66 11.5-92 34.5s-39 49.833-39 80.5c0 30 14.333 57 43 81 35.333 30 136 126.667 302 290 26 25.333 56.333 38 91 38 44 0 93.333-20 148-60 19.333-14 60-49.333 122-106l160-148c24-23.333 36-48.666 36-75.999 0-30.667-13.167-57.334-39.5-80.001s-57.166-34-92.499-34z"/></font>
</defs>
</svg>
